<?xml version="1.0" encoding="UTF-8" standalone="no"?>
<!DOCTYPE svg PUBLIC "-//W3C//DTD SVG 1.1//EN"
 "http://www.w3.org/Graphics/SVG/1.1/DTD/svg11.dtd">
<!-- Generated by graphviz version 12.2.0 (20241103.1931)
 -->
<!-- Title: BMI088_checkGyroHealth Pages: 1 -->
<svg width="641pt" height="175pt"
 viewBox="0.00 0.00 641.25 175.25" xmlns="http://www.w3.org/2000/svg" xmlns:xlink="http://www.w3.org/1999/xlink">
<g id="graph0" class="graph" transform="scale(1 1) rotate(0) translate(4 171.25)">
<title>BMI088_checkGyroHealth</title>
<!-- Node1 -->
<g id="Node000001" class="node">
<title>Node1</title>
<g id="a_Node000001"><a xlink:title=" ">
<polygon fill="#999999" stroke="#666666" points="130,-56.25 0,-56.25 0,-37 130,-37 130,-56.25"/>
<text text-anchor="middle" x="65" y="-42.75" font-family="Helvetica,sans-Serif" font-size="10.00">BMI088_checkGyroHealth</text>
</a>
</g>
</g>
<!-- Node2 -->
<g id="Node000002" class="node">
<title>Node2</title>
<g id="a_Node000002"><a xlink:href="common_2phal__F4_2spi_2spi_8c.html#ac35bd14ad3b560e0ad69320caef4d4ac" target="_top" xlink:title="Blocking function to read a single byte from a SPI device. Useful for Initilization functions that ju...">
<polygon fill="white" stroke="#666666" points="274.25,-56.25 166,-56.25 166,-37 274.25,-37 274.25,-56.25"/>
<text text-anchor="middle" x="220.12" y="-42.75" font-family="Helvetica,sans-Serif" font-size="10.00">PHAL_SPI_readByte</text>
</a>
</g>
</g>
<!-- Node1&#45;&gt;Node2 -->
<g id="edge1_Node000001_Node000002" class="edge">
<title>Node1&#45;&gt;Node2</title>
<g id="a_edge1_Node000001_Node000002"><a xlink:title=" ">
<path fill="none" stroke="#63b8ff" d="M130.49,-46.62C138.4,-46.62 146.49,-46.62 154.4,-46.62"/>
<polygon fill="#63b8ff" stroke="#63b8ff" points="154.31,-50.13 164.31,-46.63 154.31,-43.13 154.31,-50.13"/>
</a>
</g>
</g>
<!-- Node3 -->
<g id="Node000003" class="node">
<title>Node3</title>
<g id="a_Node000003"><a xlink:href="common_2phal__F4_2spi_2spi_8c.html#a35fd94eb02f487e09065ddc0ecb92e53" target="_top" xlink:title="Check for current SPI transaction to complete.">
<polygon fill="white" stroke="#666666" points="605.12,-19.25 514.88,-19.25 514.88,0 605.12,0 605.12,-19.25"/>
<text text-anchor="middle" x="560" y="-5.75" font-family="Helvetica,sans-Serif" font-size="10.00">PHAL_SPI_busy</text>
</a>
</g>
</g>
<!-- Node2&#45;&gt;Node3 -->
<g id="edge2_Node000002_Node000003" class="edge">
<title>Node2&#45;&gt;Node3</title>
<g id="a_edge2_Node000002_Node000003"><a xlink:title=" ">
<path fill="none" stroke="#63b8ff" d="M262.63,-36.54C277.56,-33.24 294.59,-29.85 310.25,-27.62 376.27,-18.24 452.88,-13.64 503.44,-11.45"/>
<polygon fill="#63b8ff" stroke="#63b8ff" points="503.41,-14.96 513.26,-11.05 503.12,-7.96 503.41,-14.96"/>
</a>
</g>
</g>
<!-- Node4 -->
<g id="Node000004" class="node">
<title>Node4</title>
<g id="a_Node000004"><a xlink:href="common_2phal__F4_2spi_2spi_8c.html#aa44c022e7bafc2f33240d3fa837a4244" target="_top" xlink:title="Transfer data_len bytes from out_data to SPI device and place MISO data in in_data This function just...">
<polygon fill="white" stroke="#666666" points="432,-93.25 329,-93.25 329,-74 432,-74 432,-93.25"/>
<text text-anchor="middle" x="380.5" y="-79.75" font-family="Helvetica,sans-Serif" font-size="10.00">PHAL_SPI_transfer</text>
</a>
</g>
</g>
<!-- Node2&#45;&gt;Node4 -->
<g id="edge3_Node000002_Node000004" class="edge">
<title>Node2&#45;&gt;Node4</title>
<g id="a_edge3_Node000002_Node000004"><a xlink:title=" ">
<path fill="none" stroke="#63b8ff" d="M264.4,-56.74C283.17,-61.12 305.35,-66.3 325.21,-70.94"/>
<polygon fill="#63b8ff" stroke="#63b8ff" points="324.27,-74.32 334.8,-73.18 325.86,-67.5 324.27,-74.32"/>
</a>
</g>
</g>
<!-- Node9 -->
<g id="Node000009" class="node">
<title>Node9</title>
<g id="a_Node000009"><a xlink:href="common_2phal__F4_2spi_2spi_8c.html#a7593e1c8be8711c7bda6d7de43913816" target="_top" xlink:title="SPI handle.">
<polygon fill="white" stroke="#666666" points="450.75,-56.25 310.25,-56.25 310.25,-37 450.75,-37 450.75,-56.25"/>
<text text-anchor="middle" x="380.5" y="-42.75" font-family="Helvetica,sans-Serif" font-size="10.00">PHAL_SPI_transfer_noDMA</text>
</a>
</g>
</g>
<!-- Node2&#45;&gt;Node9 -->
<g id="edge9_Node000002_Node000009" class="edge">
<title>Node2&#45;&gt;Node9</title>
<g id="a_edge9_Node000002_Node000009"><a xlink:title=" ">
<path fill="none" stroke="#63b8ff" d="M274.74,-46.62C282.43,-46.62 290.47,-46.62 298.54,-46.62"/>
<polygon fill="#63b8ff" stroke="#63b8ff" points="298.42,-50.13 308.42,-46.63 298.42,-43.13 298.42,-50.13"/>
</a>
</g>
</g>
<!-- Node4&#45;&gt;Node3 -->
<g id="edge7_Node000004_Node000003" class="edge">
<title>Node4&#45;&gt;Node3</title>
<g id="a_edge7_Node000004_Node000003"><a xlink:title=" ">
<path fill="none" stroke="#63b8ff" d="M432.38,-73.93C438.79,-71.71 445.08,-68.97 450.75,-65.62 470.78,-53.8 466.66,-39.35 486.75,-27.62 492.05,-24.53 497.88,-21.96 503.84,-19.84"/>
<polygon fill="#63b8ff" stroke="#63b8ff" points="504.71,-23.23 513.21,-16.91 502.62,-16.55 504.71,-23.23"/>
</a>
</g>
</g>
<!-- Node5 -->
<g id="Node000005" class="node">
<title>Node5</title>
<g id="a_Node000005"><a xlink:href="phal__F4_2dma_2dma_8c.html#a87b11fd9c27f60363585940890fd2343" target="_top" xlink:title=" ">
<polygon fill="white" stroke="#666666" points="616.38,-130.25 503.62,-130.25 503.62,-111 616.38,-111 616.38,-130.25"/>
<text text-anchor="middle" x="560" y="-116.75" font-family="Helvetica,sans-Serif" font-size="10.00">PHAL_DMA_reEnable</text>
</a>
</g>
</g>
<!-- Node4&#45;&gt;Node5 -->
<g id="edge4_Node000004_Node000005" class="edge">
<title>Node4&#45;&gt;Node5</title>
<g id="a_edge4_Node000004_Node000005"><a xlink:title=" ">
<path fill="none" stroke="#63b8ff" d="M430,-93.74C451.43,-98.2 476.82,-103.5 499.39,-108.2"/>
<polygon fill="#63b8ff" stroke="#63b8ff" points="498.57,-111.6 509.07,-110.22 500,-104.75 498.57,-111.6"/>
</a>
</g>
</g>
<!-- Node6 -->
<g id="Node000006" class="node">
<title>Node6</title>
<g id="a_Node000006"><a xlink:href="phal__F4_2dma_2dma_8c.html#a2a989d2d9b7c591de33e96581ac3bb11" target="_top" xlink:title=" ">
<polygon fill="white" stroke="#666666" points="633.25,-93.25 486.75,-93.25 486.75,-74 633.25,-74 633.25,-93.25"/>
<text text-anchor="middle" x="560" y="-79.75" font-family="Helvetica,sans-Serif" font-size="10.00">PHAL_DMA_setMemAddress</text>
</a>
</g>
</g>
<!-- Node4&#45;&gt;Node6 -->
<g id="edge5_Node000004_Node000006" class="edge">
<title>Node4&#45;&gt;Node6</title>
<g id="a_edge5_Node000004_Node000006"><a xlink:title=" ">
<path fill="none" stroke="#63b8ff" d="M432.36,-83.62C445.75,-83.62 460.56,-83.62 475.18,-83.62"/>
<polygon fill="#63b8ff" stroke="#63b8ff" points="474.79,-87.13 484.79,-83.63 474.79,-80.13 474.79,-87.13"/>
</a>
</g>
</g>
<!-- Node7 -->
<g id="Node000007" class="node">
<title>Node7</title>
<g id="a_Node000007"><a xlink:href="phal__F4_2dma_2dma_8c.html#a14faecce0cd8bd38b14c987e17ce1033" target="_top" xlink:title=" ">
<polygon fill="white" stroke="#666666" points="630.25,-167.25 489.75,-167.25 489.75,-148 630.25,-148 630.25,-167.25"/>
<text text-anchor="middle" x="560" y="-153.75" font-family="Helvetica,sans-Serif" font-size="10.00">PHAL_DMA_setTxferLength</text>
</a>
</g>
</g>
<!-- Node4&#45;&gt;Node7 -->
<g id="edge6_Node000004_Node000007" class="edge">
<title>Node4&#45;&gt;Node7</title>
<g id="a_edge6_Node000004_Node000007"><a xlink:title=" ">
<path fill="none" stroke="#63b8ff" d="M397.32,-93.63C417.43,-105.97 453.51,-126.87 486.75,-139.62 491.16,-141.32 495.79,-142.9 500.48,-144.36"/>
<polygon fill="#63b8ff" stroke="#63b8ff" points="499.42,-147.69 510,-147.12 501.38,-140.97 499.42,-147.69"/>
</a>
</g>
</g>
<!-- Node8 -->
<g id="Node000008" class="node">
<title>Node8</title>
<g id="a_Node000008"><a xlink:href="phal__F4_2gpio_2gpio_8h.html#a67db851520637ffa4de5968c9730220b" target="_top" xlink:title="Write a logic value to an output pin.">
<polygon fill="white" stroke="#666666" points="607,-56.25 513,-56.25 513,-37 607,-37 607,-56.25"/>
<text text-anchor="middle" x="560" y="-42.75" font-family="Helvetica,sans-Serif" font-size="10.00">PHAL_writeGPIO</text>
</a>
</g>
</g>
<!-- Node4&#45;&gt;Node8 -->
<g id="edge8_Node000004_Node000008" class="edge">
<title>Node4&#45;&gt;Node8</title>
<g id="a_edge8_Node000004_Node000008"><a xlink:title=" ">
<path fill="none" stroke="#63b8ff" d="M430,-73.51C452.14,-68.9 478.52,-63.4 501.64,-58.58"/>
<polygon fill="#63b8ff" stroke="#63b8ff" points="502.14,-62.05 511.22,-56.59 500.71,-55.2 502.14,-62.05"/>
</a>
</g>
</g>
<!-- Node9&#45;&gt;Node3 -->
<g id="edge10_Node000009_Node000003" class="edge">
<title>Node9&#45;&gt;Node3</title>
<g id="a_edge10_Node000009_Node000003"><a xlink:title=" ">
<path fill="none" stroke="#63b8ff" d="M430,-36.51C452.67,-31.79 479.79,-26.14 503.3,-21.24"/>
<polygon fill="#63b8ff" stroke="#63b8ff" points="503.95,-24.67 513.03,-19.21 502.52,-17.82 503.95,-24.67"/>
</a>
</g>
</g>
<!-- Node9&#45;&gt;Node8 -->
<g id="edge11_Node000009_Node000008" class="edge">
<title>Node9&#45;&gt;Node8</title>
<g id="a_edge11_Node000009_Node000008"><a xlink:title=" ">
<path fill="none" stroke="#63b8ff" d="M451.14,-46.62C467.71,-46.62 485.21,-46.62 501.19,-46.62"/>
<polygon fill="#63b8ff" stroke="#63b8ff" points="501,-50.13 511,-46.63 501,-43.13 501,-50.13"/>
</a>
</g>
</g>
</g>
</svg>
