<?xml version="1.0" encoding="UTF-8" standalone="no"?>
<!DOCTYPE svg PUBLIC "-//W3C//DTD SVG 1.1//EN"
 "http://www.w3.org/Graphics/SVG/1.1/DTD/svg11.dtd">
<!-- Generated by graphviz version 12.2.0 (20241103.1931)
 -->
<!-- Title: common Pages: 1 -->
<!--zoomable 115 -->

<svg id="main" version="1.1" xmlns="http://www.w3.org/2000/svg" xmlns:xlink="http://www.w3.org/1999/xlink" xml:space="preserve" onload="init(evt)">

<style type="text/css"><![CDATA[
.node, .edge {opacity: 0.7;}
.node.selected, .edge.selected {opacity: 1;}
.edge:hover path { stroke: red; }
.edge:hover polygon { stroke: red; fill: red; }
]]></style>

<defs>
  <circle id="rim" cx="0" cy="0" r="7"/>
  <circle id="rim2" cx="0" cy="0" r="3.5"/>
  <g id="zoomPlus">
    <use xlink:href="#rim" fill="#404040"><set attributeName="fill" to="#808080" begin="zoomplus.mouseover" end="zoomplus.mouseout"/></use>
    <path d="M-4,0h8M0,-4v8" fill="none" stroke="white" stroke-width="1.5" pointer-events="none"/>
  </g>
  <g id="zoomMin">
    <use xlink:href="#rim" fill="#404040"><set attributeName="fill" to="#808080" begin="zoomminus.mouseover" end="zoomminus.mouseout"/></use>
    <path d="M-4,0h8" fill="none" stroke="white" stroke-width="1.5" pointer-events="none"/>
  </g>
  <g id="arrowUp" transform="translate(30 24)">
    <use xlink:href="#rim"/>
    <path pointer-events="none" fill="none" stroke="white" stroke-width="1.5" d="M0,-3.0v7 M-2.5,-0.5L0,-3.0L2.5,-0.5"/>
  </g>
  <g id="arrowRight" transform="rotate(90) translate(36 -43)">
    <use xlink:href="#rim"/>
    <path pointer-events="none" fill="none" stroke="white" stroke-width="1.5" d="M0,-3.0v7 M-2.5,-0.5L0,-3.0L2.5,-0.5"/>
  </g>
  <g id="arrowDown" transform="rotate(180) translate(-30 -48)">
    <use xlink:href="#rim"/>
    <path pointer-events="none" fill="none" stroke="white" stroke-width="1.5" d="M0,-3.0v7 M-2.5,-0.5L0,-3.0L2.5,-0.5"/>
  </g>
  <g id="arrowLeft" transform="rotate(270) translate(-36 17)">
    <use xlink:href="#rim"/>
    <path pointer-events="none" fill="none" stroke="white" stroke-width="1.5" d="M0,-3.0v7 M-2.5,-0.5L0,-3.0L2.5,-0.5"/>
  </g>
  <g id="resetDef">
    <use xlink:href="#rim2" fill="#404040"><set attributeName="fill" to="#808080" begin="reset.mouseover" end="reset.mouseout"/></use>
  </g>
</defs>
<script type="application/ecmascript">
var viewWidth = 957;
var viewHeight = 115;
var sectionId = 'dynsection-0';
</script>
<script type="application/ecmascript" xlink:href="svg.min.js"/>
<svg id="graph" class="graph">
<g id="viewport">
<title>common</title>
<g id="clust1" class="cluster">
<title>clusterdir_bdd9a5d540de89e9fe90efdfc6973a4f</title>
<g id="a_clust1"><a xlink:href="dir_bdd9a5d540de89e9fe90efdfc6973a4f.html" target="_top">
<polygon fill="#edf0f7" stroke="#404040" stroke-width="2" points="8,-8 8,-98.5 941,-98.5 941,-8 8,-8"/>
</a>
</g>
</g>
<!-- dir_bdd9a5d540de89e9fe90efdfc6973a4f -->
<g id="node1" class="node">
<title>dir_bdd9a5d540de89e9fe90efdfc6973a4f</title>
<text text-anchor="middle" x="43" y="-77" font-family="Helvetica,sans-Serif" font-size="10.00">common</text>
</g>
<!-- dir_4806829e1f7f35fab185c60a177bdae6 -->
<g id="node2" class="node">
<title>dir_4806829e1f7f35fab185c60a177bdae6</title>
<g id="a_node2"><a xlink:href="dir_4806829e1f7f35fab185c60a177bdae6.html" target="_top" xlink:title="amk">
<polygon fill="#a2b4d6" stroke="#404040" points="122.38,-90.5 87.62,-90.5 87.62,-71.25 122.38,-71.25 122.38,-90.5"/>
<text text-anchor="middle" x="105" y="-77" font-family="Helvetica,sans-Serif" font-size="10.00">amk</text>
</a>
</g>
</g>
<!-- dir_3ff6104c05cc3b58fb49010561da754f -->
<g id="node3" class="node">
<title>dir_3ff6104c05cc3b58fb49010561da754f</title>
<g id="a_node3"><a xlink:href="dir_3ff6104c05cc3b58fb49010561da754f.html" target="_top" xlink:title="bangbang">
<polygon fill="#a2b4d6" stroke="#404040" points="198,-90.5 140,-90.5 140,-71.25 198,-71.25 198,-90.5"/>
<text text-anchor="middle" x="169" y="-77" font-family="Helvetica,sans-Serif" font-size="10.00">bangbang</text>
</a>
</g>
</g>
<!-- dir_3b210a51bdfb7207c4ccc3bce16efa01 -->
<g id="node4" class="node">
<title>dir_3b210a51bdfb7207c4ccc3bce16efa01</title>
<g id="a_node4"><a xlink:href="dir_3b210a51bdfb7207c4ccc3bce16efa01.html" target="_top" xlink:title="bmi088">
<polygon fill="#a2b4d6" stroke="#404040" points="517.75,-90.5 470.25,-90.5 470.25,-71.25 517.75,-71.25 517.75,-90.5"/>
<text text-anchor="middle" x="494" y="-77" font-family="Helvetica,sans-Serif" font-size="10.00">bmi088</text>
</a>
</g>
</g>
<!-- dir_a3c0d50f55deba8c32b4e660038b52ec -->
<g id="node10" class="node">
<title>dir_a3c0d50f55deba8c32b4e660038b52ec</title>
<g id="a_node10"><a xlink:href="dir_a3c0d50f55deba8c32b4e660038b52ec.html" target="_top" xlink:title="phal">
<polygon fill="#a2b4d6" stroke="#404040" points="516,-35.25 482,-35.25 482,-16 516,-16 516,-35.25"/>
<text text-anchor="middle" x="499" y="-21.75" font-family="Helvetica,sans-Serif" font-size="10.00">phal</text>
</a>
</g>
</g>
<!-- dir_3b210a51bdfb7207c4ccc3bce16efa01&#45;&gt;dir_a3c0d50f55deba8c32b4e660038b52ec -->
<g id="edge1" class="edge">
<title>dir_3b210a51bdfb7207c4ccc3bce16efa01&#45;&gt;dir_a3c0d50f55deba8c32b4e660038b52ec</title>
<g id="a_edge1"><a xlink:href="dir_000006_000047.html" target="_top">
<path fill="none" stroke="#63b8ff" d="M494.83,-71.08C495.44,-64.49 496.32,-55.21 497.1,-46.82"/>
<polygon fill="#63b8ff" stroke="#63b8ff" points="500.56,-47.4 498.01,-37.12 493.6,-46.75 500.56,-47.4"/>
</a>
</g>
<g id="a_edge1&#45;headlabel"><a xlink:href="dir_000006_000047.html" target="_top" xlink:title="3">
<text text-anchor="middle" x="503.2" y="-45.86" font-family="Helvetica,sans-Serif" font-size="10.00" fill="#63b8ff">3</text>
</a>
</g>
</g>
<!-- dir_26279b31032f3838120ccd2327025368 -->
<g id="node5" class="node">
<title>dir_26279b31032f3838120ccd2327025368</title>
<g id="a_node5"><a xlink:href="dir_26279b31032f3838120ccd2327025368.html" target="_top" xlink:title="freertos">
<polygon fill="#a2b4d6" stroke="#404040" points="594.5,-35.25 545.5,-35.25 545.5,-16 594.5,-16 594.5,-35.25"/>
<text text-anchor="middle" x="570" y="-21.75" font-family="Helvetica,sans-Serif" font-size="10.00">freertos</text>
</a>
</g>
</g>
<!-- dir_563894f7215726e0b3ecac9d309826e0 -->
<g id="node6" class="node">
<title>dir_563894f7215726e0b3ecac9d309826e0</title>
<g id="a_node6"><a xlink:href="dir_563894f7215726e0b3ecac9d309826e0.html" target="_top" xlink:title="heartbeat">
<polygon fill="#a2b4d6" stroke="#404040" points="592.25,-90.5 535.75,-90.5 535.75,-71.25 592.25,-71.25 592.25,-90.5"/>
<text text-anchor="middle" x="564" y="-77" font-family="Helvetica,sans-Serif" font-size="10.00">heartbeat</text>
</a>
</g>
</g>
<!-- dir_563894f7215726e0b3ecac9d309826e0&#45;&gt;dir_26279b31032f3838120ccd2327025368 -->
<g id="edge2" class="edge">
<title>dir_563894f7215726e0b3ecac9d309826e0&#45;&gt;dir_26279b31032f3838120ccd2327025368</title>
<g id="a_edge2"><a xlink:href="dir_000037_000033.html" target="_top">
<path fill="none" stroke="#63b8ff" d="M564.99,-71.08C565.73,-64.49 566.78,-55.21 567.72,-46.82"/>
<polygon fill="#63b8ff" stroke="#63b8ff" points="571.18,-47.44 568.82,-37.11 564.22,-46.66 571.18,-47.44"/>
</a>
</g>
<g id="a_edge2&#45;headlabel"><a xlink:href="dir_000037_000033.html" target="_top" xlink:title="2">
<text text-anchor="middle" x="573.76" y="-45.95" font-family="Helvetica,sans-Serif" font-size="10.00" fill="#63b8ff">2</text>
</a>
</g>
</g>
<!-- dir_563894f7215726e0b3ecac9d309826e0&#45;&gt;dir_a3c0d50f55deba8c32b4e660038b52ec -->
<g id="edge3" class="edge">
<title>dir_563894f7215726e0b3ecac9d309826e0&#45;&gt;dir_a3c0d50f55deba8c32b4e660038b52ec</title>
<g id="a_edge3"><a xlink:href="dir_000037_000047.html" target="_top">
<path fill="none" stroke="#63b8ff" d="M552.97,-70.84C543.58,-63.15 529.85,-51.9 518.59,-42.68"/>
<polygon fill="#63b8ff" stroke="#63b8ff" points="520.99,-40.11 511.03,-36.48 516.55,-45.53 520.99,-40.11"/>
</a>
</g>
<g id="a_edge3&#45;headlabel"><a xlink:href="dir_000037_000047.html" target="_top" xlink:title="1">
<text text-anchor="middle" x="524.4" y="-35.36" font-family="Helvetica,sans-Serif" font-size="10.00" fill="#63b8ff">1</text>
</a>
</g>
</g>
<!-- dir_3d869cf79cc855611296189de4de01e3 -->
<g id="node7" class="node">
<title>dir_3d869cf79cc855611296189de4de01e3</title>
<g id="a_node7"><a xlink:href="dir_3d869cf79cc855611296189de4de01e3.html" target="_top" xlink:title="izze_imu">
<polygon fill="#a2b4d6" stroke="#404040" points="385.75,-90.5 332.25,-90.5 332.25,-71.25 385.75,-71.25 385.75,-90.5"/>
<text text-anchor="middle" x="359" y="-77" font-family="Helvetica,sans-Serif" font-size="10.00">izze_imu</text>
</a>
</g>
</g>
<!-- dir_f0d476005fd60c6020cb81dc0b85194b -->
<g id="node8" class="node">
<title>dir_f0d476005fd60c6020cb81dc0b85194b</title>
<g id="a_node8"><a xlink:href="dir_f0d476005fd60c6020cb81dc0b85194b.html" target="_top" xlink:title="lerp_lut">
<polygon fill="#a2b4d6" stroke="#404040" points="451.75,-90.5 404.25,-90.5 404.25,-71.25 451.75,-71.25 451.75,-90.5"/>
<text text-anchor="middle" x="428" y="-77" font-family="Helvetica,sans-Serif" font-size="10.00">lerp_lut</text>
</a>
</g>
</g>
<!-- dir_a6b6b77475247ffa0f2bc1e504c8d48a -->
<g id="node9" class="node">
<title>dir_a6b6b77475247ffa0f2bc1e504c8d48a</title>
<g id="a_node9"><a xlink:href="dir_a6b6b77475247ffa0f2bc1e504c8d48a.html" target="_top" xlink:title="nextion">
<polygon fill="#a2b4d6" stroke="#404040" points="262.38,-90.5 215.62,-90.5 215.62,-71.25 262.38,-71.25 262.38,-90.5"/>
<text text-anchor="middle" x="239" y="-77" font-family="Helvetica,sans-Serif" font-size="10.00">nextion</text>
</a>
</g>
</g>
<!-- dir_b326de142a01610c2e2fbdc361522621 -->
<g id="node14" class="node">
<title>dir_b326de142a01610c2e2fbdc361522621</title>
<g id="a_node14"><a xlink:href="dir_b326de142a01610c2e2fbdc361522621.html" target="_top" xlink:title="strbuf">
<polygon fill="#a2b4d6" stroke="#404040" points="259.38,-35.25 218.62,-35.25 218.62,-16 259.38,-16 259.38,-35.25"/>
<text text-anchor="middle" x="239" y="-21.75" font-family="Helvetica,sans-Serif" font-size="10.00">strbuf</text>
</a>
</g>
</g>
<!-- dir_a6b6b77475247ffa0f2bc1e504c8d48a&#45;&gt;dir_b326de142a01610c2e2fbdc361522621 -->
<g id="edge4" class="edge">
<title>dir_a6b6b77475247ffa0f2bc1e504c8d48a&#45;&gt;dir_b326de142a01610c2e2fbdc361522621</title>
<g id="a_edge4"><a xlink:href="dir_000042_000067.html" target="_top">
<path fill="none" stroke="#63b8ff" d="M239,-71.08C239,-64.57 239,-55.42 239,-47.12"/>
<polygon fill="#63b8ff" stroke="#63b8ff" points="242.5,-47.12 239,-37.12 235.5,-47.12 242.5,-47.12"/>
</a>
</g>
<g id="a_edge4&#45;headlabel"><a xlink:href="dir_000042_000067.html" target="_top" xlink:title="1">
<text text-anchor="middle" x="245.34" y="-45.33" font-family="Helvetica,sans-Serif" font-size="10.00" fill="#63b8ff">1</text>
</a>
</g>
</g>
<!-- dir_977239e98dcb81927fd2c50e4ca080d6 -->
<g id="node11" class="node">
<title>dir_977239e98dcb81927fd2c50e4ca080d6</title>
<g id="a_node11"><a xlink:href="dir_977239e98dcb81927fd2c50e4ca080d6.html" target="_top" xlink:title="phal_F4">
<polygon fill="#a2b4d6" stroke="#404040" points="661.25,-90.5 610.75,-90.5 610.75,-71.25 661.25,-71.25 661.25,-90.5"/>
<text text-anchor="middle" x="636" y="-77" font-family="Helvetica,sans-Serif" font-size="10.00">phal_F4</text>
</a>
</g>
</g>
<!-- dir_977239e98dcb81927fd2c50e4ca080d6&#45;&gt;dir_a3c0d50f55deba8c32b4e660038b52ec -->
<g id="edge5" class="edge">
<title>dir_977239e98dcb81927fd2c50e4ca080d6&#45;&gt;dir_a3c0d50f55deba8c32b4e660038b52ec</title>
<g id="a_edge5"><a xlink:href="dir_000048_000047.html" target="_top">
<path fill="none" stroke="#63b8ff" d="M612.76,-70.84C589.06,-61.63 552.28,-47.33 526.99,-37.5"/>
<polygon fill="#63b8ff" stroke="#63b8ff" points="528.27,-34.25 517.68,-33.88 525.73,-40.77 528.27,-34.25"/>
</a>
</g>
<g id="a_edge5&#45;headlabel"><a xlink:href="dir_000048_000047.html" target="_top" xlink:title="1">
<text text-anchor="middle" x="531.23" y="-28.48" font-family="Helvetica,sans-Serif" font-size="10.00" fill="#63b8ff">1</text>
</a>
</g>
</g>
<!-- dir_85effdddc426fd82e3610be0948fd413 -->
<g id="node17" class="node">
<title>dir_85effdddc426fd82e3610be0948fd413</title>
<g id="a_node17"><a xlink:href="dir_85effdddc426fd82e3610be0948fd413.html" target="_top" xlink:title="utils">
<polygon fill="#a2b4d6" stroke="#404040" points="788,-35.25 754,-35.25 754,-16 788,-16 788,-35.25"/>
<text text-anchor="middle" x="771" y="-21.75" font-family="Helvetica,sans-Serif" font-size="10.00">utils</text>
</a>
</g>
</g>
<!-- dir_977239e98dcb81927fd2c50e4ca080d6&#45;&gt;dir_85effdddc426fd82e3610be0948fd413 -->
<g id="edge6" class="edge">
<title>dir_977239e98dcb81927fd2c50e4ca080d6&#45;&gt;dir_85effdddc426fd82e3610be0948fd413</title>
<g id="a_edge6"><a xlink:href="dir_000048_000084.html" target="_top">
<path fill="none" stroke="#63b8ff" d="M658.9,-70.84C682.12,-61.68 718.1,-47.49 743,-37.67"/>
<polygon fill="#63b8ff" stroke="#63b8ff" points="744.15,-40.98 752.17,-34.05 741.59,-34.47 744.15,-40.98"/>
</a>
</g>
<g id="a_edge6&#45;headlabel"><a xlink:href="dir_000048_000084.html" target="_top" xlink:title="1">
<text text-anchor="middle" x="743.26" y="-40.51" font-family="Helvetica,sans-Serif" font-size="10.00" fill="#63b8ff">1</text>
</a>
</g>
</g>
<!-- dir_537865b7fa0534ad07c686239f783682 -->
<g id="node12" class="node">
<title>dir_537865b7fa0534ad07c686239f783682</title>
<g id="a_node12"><a xlink:href="dir_537865b7fa0534ad07c686239f783682.html" target="_top" xlink:title="phal_G4">
<polygon fill="#a2b4d6" stroke="#404040" points="933,-90.5 881,-90.5 881,-71.25 933,-71.25 933,-90.5"/>
<text text-anchor="middle" x="907" y="-77" font-family="Helvetica,sans-Serif" font-size="10.00">phal_G4</text>
</a>
</g>
</g>
<!-- dir_537865b7fa0534ad07c686239f783682&#45;&gt;dir_85effdddc426fd82e3610be0948fd413 -->
<g id="edge7" class="edge">
<title>dir_537865b7fa0534ad07c686239f783682&#45;&gt;dir_85effdddc426fd82e3610be0948fd413</title>
<g id="a_edge7"><a xlink:href="dir_000049_000084.html" target="_top">
<path fill="none" stroke="#63b8ff" d="M883.93,-70.84C860.4,-61.63 823.89,-47.33 798.78,-37.5"/>
<polygon fill="#63b8ff" stroke="#63b8ff" points="800.14,-34.28 789.55,-33.89 797.59,-40.79 800.14,-34.28"/>
</a>
</g>
<g id="a_edge7&#45;headlabel"><a xlink:href="dir_000049_000084.html" target="_top" xlink:title="1">
<text text-anchor="middle" x="803.11" y="-28.51" font-family="Helvetica,sans-Serif" font-size="10.00" fill="#63b8ff">1</text>
</a>
</g>
</g>
<!-- dir_6bd8692ac8326d2f6b10c3d83e4ae569 -->
<g id="node13" class="node">
<title>dir_6bd8692ac8326d2f6b10c3d83e4ae569</title>
<g id="a_node13"><a xlink:href="dir_6bd8692ac8326d2f6b10c3d83e4ae569.html" target="_top" xlink:title="sdio">
<polygon fill="#a2b4d6" stroke="#404040" points="314,-90.5 280,-90.5 280,-71.25 314,-71.25 314,-90.5"/>
<text text-anchor="middle" x="297" y="-77" font-family="Helvetica,sans-Serif" font-size="10.00">sdio</text>
</a>
</g>
</g>
<!-- dir_6bd8692ac8326d2f6b10c3d83e4ae569&#45;&gt;dir_a3c0d50f55deba8c32b4e660038b52ec -->
<g id="edge8" class="edge">
<title>dir_6bd8692ac8326d2f6b10c3d83e4ae569&#45;&gt;dir_a3c0d50f55deba8c32b4e660038b52ec</title>
<g id="a_edge8"><a xlink:href="dir_000059_000047.html" target="_top">
<path fill="none" stroke="#63b8ff" d="M314.29,-73.95C317.19,-73.01 320.17,-72.08 323,-71.25 374.7,-56.14 435.78,-41.32 470.7,-33.14"/>
<polygon fill="#63b8ff" stroke="#63b8ff" points="471.48,-36.55 480.43,-30.87 469.89,-29.73 471.48,-36.55"/>
</a>
</g>
<g id="a_edge8&#45;headlabel"><a xlink:href="dir_000059_000047.html" target="_top" xlink:title="3">
<text text-anchor="middle" x="470.1" y="-35.91" font-family="Helvetica,sans-Serif" font-size="10.00" fill="#63b8ff">3</text>
</a>
</g>
</g>
<!-- dir_1ce6f96d2d04ccccac1834bfcdb7bdde -->
<g id="node15" class="node">
<title>dir_1ce6f96d2d04ccccac1834bfcdb7bdde</title>
<g id="a_node15"><a xlink:href="dir_1ce6f96d2d04ccccac1834bfcdb7bdde.html" target="_top" xlink:title="syscalls">
<polygon fill="#a2b4d6" stroke="#404040" points="806.62,-90.5 755.38,-90.5 755.38,-71.25 806.62,-71.25 806.62,-90.5"/>
<text text-anchor="middle" x="781" y="-77" font-family="Helvetica,sans-Serif" font-size="10.00">syscalls</text>
</a>
</g>
</g>
<!-- dir_961b758cd052750ea8bbc705926feacf -->
<g id="node16" class="node">
<title>dir_961b758cd052750ea8bbc705926feacf</title>
<g id="a_node16"><a xlink:href="dir_961b758cd052750ea8bbc705926feacf.html" target="_top" xlink:title="ublox">
<polygon fill="#a2b4d6" stroke="#404040" points="863.25,-90.5 824.75,-90.5 824.75,-71.25 863.25,-71.25 863.25,-90.5"/>
<text text-anchor="middle" x="844" y="-77" font-family="Helvetica,sans-Serif" font-size="10.00">ublox</text>
</a>
</g>
</g>
<!-- dir_4a67593d8df18ecfd9c3f039a4c081e5 -->
<g id="node18" class="node">
<title>dir_4a67593d8df18ecfd9c3f039a4c081e5</title>
<g id="a_node18"><a xlink:href="dir_4a67593d8df18ecfd9c3f039a4c081e5.html" target="_top" xlink:title="watchdog">
<polygon fill="#a2b4d6" stroke="#404040" points="737,-90.5 679,-90.5 679,-71.25 737,-71.25 737,-90.5"/>
<text text-anchor="middle" x="708" y="-77" font-family="Helvetica,sans-Serif" font-size="10.00">watchdog</text>
</a>
</g>
</g>
<!-- dir_4a67593d8df18ecfd9c3f039a4c081e5&#45;&gt;dir_26279b31032f3838120ccd2327025368 -->
<g id="edge9" class="edge">
<title>dir_4a67593d8df18ecfd9c3f039a4c081e5&#45;&gt;dir_26279b31032f3838120ccd2327025368</title>
<g id="a_edge9"><a xlink:href="dir_000087_000033.html" target="_top">
<path fill="none" stroke="#63b8ff" d="M684.59,-70.84C662.48,-62.31 629.08,-49.42 604.03,-39.76"/>
<polygon fill="#63b8ff" stroke="#63b8ff" points="605.53,-36.58 594.94,-36.25 603.01,-43.11 605.53,-36.58"/>
</a>
</g>
<g id="a_edge9&#45;headlabel"><a xlink:href="dir_000087_000033.html" target="_top" xlink:title="1">
<text text-anchor="middle" x="608.49" y="-30.81" font-family="Helvetica,sans-Serif" font-size="10.00" fill="#63b8ff">1</text>
</a>
</g>
</g>
</g>
</svg>

<g id="navigator" transform="translate(0 0)" fill="#404254">
  <rect fill="#f2f5e9" fill-opacity="0.5" stroke="#606060" stroke-width=".5" x="0" y="0" width="60" height="60"/>
  <use id="zoomplus" xlink:href="#zoomPlus" x="17" y="9" onmousedown="handleZoom(evt,'in')"/>
  <use id="zoomminus" xlink:href="#zoomMin" x="42" y="9" onmousedown="handleZoom(evt,'out')"/>
  <use id="reset" xlink:href="#resetDef" x="30" y="36" onmousedown="handleReset()"/>
   <use id="arrowup" xlink:href="#arrowUp" x="0" y="0" onmousedown="handlePan(0,-1)"/>
  <use id="arrowright" xlink:href="#arrowRight" x="0" y="0" onmousedown="handlePan(1,0)"/>
  <use id="arrowdown" xlink:href="#arrowDown" x="0" y="0" onmousedown="handlePan(0,1)"/>
  <use id="arrowleft" xlink:href="#arrowLeft" x="0" y="0" onmousedown="handlePan(-1,0)"/>
</g>
<svg viewBox="0 0 15 15" width="100%" height="30px" preserveAspectRatio="xMaxYMin meet">
 <g id="arrow_out" transform="scale(0.3 0.3)">
  <a xlink:href="dir_bdd9a5d540de89e9fe90efdfc6973a4f_dep_org.svg" target="_base">
   <rect id="button" ry="5" rx="5" y="6" x="6" height="38" width="38"
        fill="#f2f5e9" fill-opacity="0.5" stroke="#606060" stroke-width="1.0"/>
   <path id="arrow"
     d="M 11.500037,31.436501 C 11.940474,20.09759 22.043105,11.32322 32.158766,21.979434 L 37.068811,17.246167 C 37.068811,17.246167 37.088388,32 37.088388,32 L 22.160133,31.978069 C 22.160133,31.978069 26.997745,27.140456 26.997745,27.140456 C 18.528582,18.264221 13.291696,25.230495 11.500037,31.436501 z"
     style="fill:#404040;"/>
  </a>
 </g>
</svg>

<style type='text/css'>
<![CDATA[
[data-mouse-over-selected='false'] { opacity: 0.7; }
[data-mouse-over-selected='true']  { opacity: 1.0; }
]]>
</style>
<script type="application/ecmascript"><![CDATA[
document.addEventListener('DOMContentLoaded', (event) => {
  highlightEdges();
  highlightAdjacentNodes();
});
]]></script>
</svg>
