<?xml version="1.0" encoding="UTF-8" standalone="no"?>
<!DOCTYPE svg PUBLIC "-//W3C//DTD SVG 1.1//EN"
 "http://www.w3.org/Graphics/SVG/1.1/DTD/svg11.dtd">
<!-- Generated by graphviz version 12.2.0 (20241103.1931)
 -->
<!-- Title: firmware/common/phal_G4/dma/dma_wiring.h Pages: 1 -->
<svg width="1692pt" height="438pt"
 viewBox="0.00 0.00 1691.62 437.50" xmlns="http://www.w3.org/2000/svg" xmlns:xlink="http://www.w3.org/1999/xlink">
<g id="graph0" class="graph" transform="scale(1 1) rotate(0) translate(4 433.5)">
<title>firmware/common/phal_G4/dma/dma_wiring.h</title>
<!-- Node1 -->
<g id="Node000001" class="node">
<title>Node1</title>
<g id="a_Node000001"><a xlink:title="G4 DMA Peripheral wiring configuration and definitions.">
<polygon fill="#999999" stroke="#666666" points="923.38,-429.5 807.62,-429.5 807.62,-399 923.38,-399 923.38,-429.5"/>
<text text-anchor="start" x="815.62" y="-416" font-family="Helvetica,sans-Serif" font-size="10.00">firmware/common/phal</text>
<text text-anchor="middle" x="865.5" y="-404.75" font-family="Helvetica,sans-Serif" font-size="10.00">_G4/dma/dma_wiring.h</text>
</a>
</g>
</g>
<!-- Node2 -->
<g id="Node000002" class="node">
<title>Node2</title>
<g id="a_Node000002"><a xlink:href="phal__G4_2dma_2dma_8h.html" target="_top" xlink:title="G4 DMA Peripheral public API implementation.">
<polygon fill="white" stroke="#666666" points="922.62,-363 808.38,-363 808.38,-332.5 922.62,-332.5 922.62,-363"/>
<text text-anchor="start" x="816.38" y="-349.5" font-family="Helvetica,sans-Serif" font-size="10.00">firmware/common/phal</text>
<text text-anchor="middle" x="865.5" y="-338.25" font-family="Helvetica,sans-Serif" font-size="10.00">_G4/dma/dma.h</text>
</a>
</g>
</g>
<!-- Node1&#45;&gt;Node2 -->
<g id="edge1_Node000001_Node000002" class="edge">
<title>Node1&#45;&gt;Node2</title>
<g id="a_edge1_Node000001_Node000002"><a xlink:title=" ">
<path fill="none" stroke="#63b8ff" d="M865.5,-387.31C865.5,-379.14 865.5,-370.41 865.5,-363.33"/>
<polygon fill="#63b8ff" stroke="#63b8ff" points="862,-387.1 865.5,-397.1 869,-387.1 862,-387.1"/>
</a>
</g>
</g>
<!-- Node3 -->
<g id="Node000003" class="node">
<title>Node3</title>
<g id="a_Node000003"><a xlink:href="phal__G4_2adc_2adc_8h.html" target="_top" xlink:title="G4 ADC public API. DMA&#45;only, DMA&#45;first conversions.">
<polygon fill="white" stroke="#666666" points="441.62,-296.5 327.38,-296.5 327.38,-266 441.62,-266 441.62,-296.5"/>
<text text-anchor="start" x="335.38" y="-283" font-family="Helvetica,sans-Serif" font-size="10.00">firmware/common/phal</text>
<text text-anchor="middle" x="384.5" y="-271.75" font-family="Helvetica,sans-Serif" font-size="10.00">_G4/adc/adc.h</text>
</a>
</g>
</g>
<!-- Node2&#45;&gt;Node3 -->
<g id="edge2_Node000002_Node000003" class="edge">
<title>Node2&#45;&gt;Node3</title>
<g id="a_edge2_Node000002_Node000003"><a xlink:title=" ">
<path fill="none" stroke="#63b8ff" d="M796.72,-337.53C701.46,-324.75 531.05,-301.9 442.11,-289.98"/>
<polygon fill="#63b8ff" stroke="#63b8ff" points="796.08,-340.97 806.46,-338.83 797.01,-334.03 796.08,-340.97"/>
</a>
</g>
</g>
<!-- Node9 -->
<g id="Node000009" class="node">
<title>Node9</title>
<g id="a_Node000009"><a xlink:href="dashboard_2main_8c.html" target="_top" xlink:title="&quot;Dashboard&quot; node source code">
<polygon fill="white" stroke="#666666" points="133,-163.5 0,-163.5 0,-133 133,-133 133,-163.5"/>
<text text-anchor="start" x="8" y="-150" font-family="Helvetica,sans-Serif" font-size="10.00">firmware/source/dashboard</text>
<text text-anchor="middle" x="66.5" y="-138.75" font-family="Helvetica,sans-Serif" font-size="10.00">/main.c</text>
</a>
</g>
</g>
<!-- Node2&#45;&gt;Node9 -->
<g id="edge41_Node000002_Node000009" class="edge">
<title>Node2&#45;&gt;Node9</title>
<g id="a_edge41_Node000002_Node000009"><a xlink:title=" ">
<path fill="none" stroke="#63b8ff" d="M796.71,-344.08C692.55,-339.22 488.92,-326.51 318.5,-296.5 204,-276.34 136.5,-322.07 65.5,-230 50.86,-211.01 56.22,-181.36 61.4,-163.77"/>
<polygon fill="#63b8ff" stroke="#63b8ff" points="796.33,-347.57 806.48,-344.53 796.65,-340.58 796.33,-347.57"/>
</a>
</g>
</g>
<!-- Node11 -->
<g id="Node000011" class="node">
<title>Node11</title>
<g id="a_Node000011"><a xlink:href="driveline_2main_8c.html" target="_top" xlink:title="&quot;Driveline&quot; node source code">
<polygon fill="white" stroke="#666666" points="616.5,-230 492.5,-230 492.5,-199.5 616.5,-199.5 616.5,-230"/>
<text text-anchor="start" x="500.5" y="-216.5" font-family="Helvetica,sans-Serif" font-size="10.00">firmware/source/driveline</text>
<text text-anchor="middle" x="554.5" y="-205.25" font-family="Helvetica,sans-Serif" font-size="10.00">/main.c</text>
</a>
</g>
</g>
<!-- Node2&#45;&gt;Node11 -->
<g id="edge42_Node000002_Node000011" class="edge">
<title>Node2&#45;&gt;Node11</title>
<g id="a_edge42_Node000002_Node000011"><a xlink:title=" ">
<path fill="none" stroke="#63b8ff" d="M809.7,-328.53C783.31,-319.52 751.53,-308.12 723.5,-296.5 673.03,-275.58 616.02,-247.34 582.79,-230.4"/>
<polygon fill="#63b8ff" stroke="#63b8ff" points="808.24,-331.73 818.84,-331.62 810.49,-325.1 808.24,-331.73"/>
</a>
</g>
</g>
<!-- Node12 -->
<g id="Node000012" class="node">
<title>Node12</title>
<g id="a_Node000012"><a xlink:href="phal__G4_2dma_2dma_8c.html" target="_top" xlink:title="G4 DMA Peripheral public API implementation.">
<polygon fill="white" stroke="#666666" points="748.62,-230 634.38,-230 634.38,-199.5 748.62,-199.5 748.62,-230"/>
<text text-anchor="start" x="642.38" y="-216.5" font-family="Helvetica,sans-Serif" font-size="10.00">firmware/common/phal</text>
<text text-anchor="middle" x="691.5" y="-205.25" font-family="Helvetica,sans-Serif" font-size="10.00">_G4/dma/dma.c</text>
</a>
</g>
</g>
<!-- Node2&#45;&gt;Node12 -->
<g id="edge14_Node000002_Node000012" class="edge">
<title>Node2&#45;&gt;Node12</title>
<g id="a_edge14_Node000002_Node000012"><a xlink:title=" ">
<path fill="none" stroke="#63b8ff" d="M812.2,-327.62C793.84,-319.61 773.81,-309.17 757.5,-296.5 733.05,-277.5 711.82,-247.86 700.41,-230.26"/>
<polygon fill="#63b8ff" stroke="#63b8ff" points="810.8,-330.83 821.38,-331.47 813.51,-324.38 810.8,-330.83"/>
</a>
</g>
</g>
<!-- Node13 -->
<g id="Node000013" class="node">
<title>Node13</title>
<g id="a_Node000013"><a xlink:href="dma__priv_8h.html" target="_top" xlink:title="G4 DMA Peripheral private/register level implementation.">
<polygon fill="white" stroke="#666666" points="880.62,-296.5 766.38,-296.5 766.38,-266 880.62,-266 880.62,-296.5"/>
<text text-anchor="start" x="774.38" y="-283" font-family="Helvetica,sans-Serif" font-size="10.00">firmware/common/phal</text>
<text text-anchor="middle" x="823.5" y="-271.75" font-family="Helvetica,sans-Serif" font-size="10.00">_G4/dma/dma_priv.h</text>
</a>
</g>
</g>
<!-- Node2&#45;&gt;Node13 -->
<g id="edge15_Node000002_Node000013" class="edge">
<title>Node2&#45;&gt;Node13</title>
<g id="a_edge15_Node000002_Node000013"><a xlink:title=" ">
<path fill="none" stroke="#63b8ff" d="M849.71,-322.51C844.09,-313.87 837.93,-304.41 832.99,-296.83"/>
<polygon fill="#63b8ff" stroke="#63b8ff" points="846.75,-324.38 855.14,-330.85 852.62,-320.56 846.75,-324.38"/>
</a>
</g>
</g>
<!-- Node15 -->
<g id="Node000015" class="node">
<title>Node15</title>
<g id="a_Node000015"><a xlink:href="phal__G4_2spi_2spi_8c.html" target="_top" xlink:title="G4 SPI.">
<polygon fill="white" stroke="#666666" points="947.62,-163.5 833.38,-163.5 833.38,-133 947.62,-133 947.62,-163.5"/>
<text text-anchor="start" x="841.38" y="-150" font-family="Helvetica,sans-Serif" font-size="10.00">firmware/common/phal</text>
<text text-anchor="middle" x="890.5" y="-138.75" font-family="Helvetica,sans-Serif" font-size="10.00">_G4/spi/spi.c</text>
</a>
</g>
</g>
<!-- Node2&#45;&gt;Node15 -->
<g id="edge18_Node000002_Node000015" class="edge">
<title>Node2&#45;&gt;Node15</title>
<g id="a_edge18_Node000002_Node000015"><a xlink:title=" ">
<path fill="none" stroke="#63b8ff" d="M879.78,-322.36C883.72,-314.39 887.47,-305.31 889.5,-296.5 900.45,-248.91 895.62,-190.37 892.46,-163.71"/>
<polygon fill="#63b8ff" stroke="#63b8ff" points="876.75,-320.61 875.14,-331.09 882.93,-323.9 876.75,-320.61"/>
</a>
</g>
</g>
<!-- Node16 -->
<g id="Node000016" class="node">
<title>Node16</title>
<g id="a_Node000016"><a xlink:href="phal__G4_2spi_2spi_8h.html" target="_top" xlink:title="G4 SPI public API.">
<polygon fill="white" stroke="#666666" points="1192.62,-296.5 1078.38,-296.5 1078.38,-266 1192.62,-266 1192.62,-296.5"/>
<text text-anchor="start" x="1086.38" y="-283" font-family="Helvetica,sans-Serif" font-size="10.00">firmware/common/phal</text>
<text text-anchor="middle" x="1135.5" y="-271.75" font-family="Helvetica,sans-Serif" font-size="10.00">_G4/spi/spi.h</text>
</a>
</g>
</g>
<!-- Node2&#45;&gt;Node16 -->
<g id="edge19_Node000002_Node000016" class="edge">
<title>Node2&#45;&gt;Node16</title>
<g id="a_edge19_Node000002_Node000016"><a xlink:title=" ">
<path fill="none" stroke="#63b8ff" d="M934.11,-330.36C978.6,-319.73 1035.9,-306.04 1078,-295.99"/>
<polygon fill="#63b8ff" stroke="#63b8ff" points="933.48,-326.91 924.56,-332.64 935.1,-333.72 933.48,-326.91"/>
</a>
</g>
</g>
<!-- Node18 -->
<g id="Node000018" class="node">
<title>Node18</title>
<g id="a_Node000018"><a xlink:href="spi__priv_8h.html" target="_top" xlink:title="Internal G4 SPI helpers and DMA configuration macros.">
<polygon fill="white" stroke="#666666" points="1050.62,-230 936.38,-230 936.38,-199.5 1050.62,-199.5 1050.62,-230"/>
<text text-anchor="start" x="944.38" y="-216.5" font-family="Helvetica,sans-Serif" font-size="10.00">firmware/common/phal</text>
<text text-anchor="middle" x="993.5" y="-205.25" font-family="Helvetica,sans-Serif" font-size="10.00">_G4/spi/spi_priv.h</text>
</a>
</g>
</g>
<!-- Node2&#45;&gt;Node18 -->
<g id="edge36_Node000002_Node000018" class="edge">
<title>Node2&#45;&gt;Node18</title>
<g id="a_edge36_Node000002_Node000018"><a xlink:title=" ">
<path fill="none" stroke="#63b8ff" d="M891.85,-324.75C901.72,-316.2 912.86,-306.15 922.5,-296.5 944.53,-274.44 968.03,-246.8 981.71,-230.25"/>
<polygon fill="#63b8ff" stroke="#63b8ff" points="889.7,-321.98 884.38,-331.15 894.25,-327.3 889.7,-321.98"/>
</a>
</g>
</g>
<!-- Node24 -->
<g id="Node000024" class="node">
<title>Node24</title>
<g id="a_Node000024"><a xlink:href="phal__G4_2usart_2usart_8c.html" target="_top" xlink:title=" ">
<polygon fill="white" stroke="#666666" points="1551.62,-230 1437.38,-230 1437.38,-199.5 1551.62,-199.5 1551.62,-230"/>
<text text-anchor="start" x="1445.38" y="-216.5" font-family="Helvetica,sans-Serif" font-size="10.00">firmware/common/phal</text>
<text text-anchor="middle" x="1494.5" y="-205.25" font-family="Helvetica,sans-Serif" font-size="10.00">_G4/usart/usart.c</text>
</a>
</g>
</g>
<!-- Node2&#45;&gt;Node24 -->
<g id="edge37_Node000002_Node000024" class="edge">
<title>Node2&#45;&gt;Node24</title>
<g id="a_edge37_Node000002_Node000024"><a xlink:title=" ">
<path fill="none" stroke="#63b8ff" d="M933.96,-338.96C1002.17,-330.63 1109.67,-315.95 1201.5,-296.5 1289.64,-277.83 1390.55,-248.14 1447.99,-230.44"/>
<polygon fill="#63b8ff" stroke="#63b8ff" points="933.96,-335.44 924.45,-340.11 934.8,-342.39 933.96,-335.44"/>
</a>
</g>
</g>
<!-- Node25 -->
<g id="Node000025" class="node">
<title>Node25</title>
<g id="a_Node000025"><a xlink:href="usart__priv_8h.html" target="_top" xlink:title=" ">
<polygon fill="white" stroke="#666666" points="1551.62,-296.5 1437.38,-296.5 1437.38,-266 1551.62,-266 1551.62,-296.5"/>
<text text-anchor="start" x="1445.38" y="-283" font-family="Helvetica,sans-Serif" font-size="10.00">firmware/common/phal</text>
<text text-anchor="middle" x="1494.5" y="-271.75" font-family="Helvetica,sans-Serif" font-size="10.00">_G4/usart/usart_priv.h</text>
</a>
</g>
</g>
<!-- Node2&#45;&gt;Node25 -->
<g id="edge38_Node000002_Node000025" class="edge">
<title>Node2&#45;&gt;Node25</title>
<g id="a_edge38_Node000002_Node000025"><a xlink:title=" ">
<path fill="none" stroke="#63b8ff" d="M934.27,-339.7C1059.11,-326.9 1320.82,-300.06 1436.92,-288.15"/>
<polygon fill="#63b8ff" stroke="#63b8ff" points="934.08,-336.2 924.49,-340.7 934.8,-343.16 934.08,-336.2"/>
</a>
</g>
</g>
<!-- Node4 -->
<g id="Node000004" class="node">
<title>Node4</title>
<g id="a_Node000004"><a xlink:href="phal__G4_2adc_2adc_8c.html" target="_top" xlink:title="G4 ADC public API implementation. All register&#45;level detail lives in adc_priv.c; this file only coord...">
<polygon fill="white" stroke="#666666" points="266.62,-163.5 152.38,-163.5 152.38,-133 266.62,-133 266.62,-163.5"/>
<text text-anchor="start" x="160.38" y="-150" font-family="Helvetica,sans-Serif" font-size="10.00">firmware/common/phal</text>
<text text-anchor="middle" x="209.5" y="-138.75" font-family="Helvetica,sans-Serif" font-size="10.00">_G4/adc/adc.c</text>
</a>
</g>
</g>
<!-- Node3&#45;&gt;Node4 -->
<g id="edge3_Node000003_Node000004" class="edge">
<title>Node3&#45;&gt;Node4</title>
<g id="a_edge3_Node000003_Node000004"><a xlink:title=" ">
<path fill="none" stroke="#63b8ff" d="M330.73,-261.21C312.19,-253.2 291.97,-242.75 275.5,-230 251.02,-211.05 229.79,-181.38 218.4,-163.78"/>
<polygon fill="#63b8ff" stroke="#63b8ff" points="329.13,-264.34 339.71,-264.94 331.82,-257.87 329.13,-264.34"/>
</a>
</g>
</g>
<!-- Node5 -->
<g id="Node000005" class="node">
<title>Node5</title>
<g id="a_Node000005"><a xlink:href="adc__priv_8h.html" target="_top" xlink:title="Private register&#45;level API for the STM32G4 ADC PHAL.">
<polygon fill="white" stroke="#666666" points="398.62,-230 284.38,-230 284.38,-199.5 398.62,-199.5 398.62,-230"/>
<text text-anchor="start" x="292.38" y="-216.5" font-family="Helvetica,sans-Serif" font-size="10.00">firmware/common/phal</text>
<text text-anchor="middle" x="341.5" y="-205.25" font-family="Helvetica,sans-Serif" font-size="10.00">_G4/adc/adc_priv.h</text>
</a>
</g>
</g>
<!-- Node3&#45;&gt;Node5 -->
<g id="edge4_Node000003_Node000005" class="edge">
<title>Node3&#45;&gt;Node5</title>
<g id="a_edge4_Node000003_Node000005"><a xlink:title=" ">
<path fill="none" stroke="#63b8ff" d="M368.53,-256.29C362.71,-247.57 356.33,-237.99 351.22,-230.33"/>
<polygon fill="#63b8ff" stroke="#63b8ff" points="365.44,-257.98 373.9,-264.35 371.27,-254.09 365.44,-257.98"/>
</a>
</g>
</g>
<!-- Node7 -->
<g id="Node000007" class="node">
<title>Node7</title>
<g id="a_Node000007"><a xlink:href="a__box_2main_8c.html" target="_top" xlink:title="&quot;Abox&quot; node source code">
<polygon fill="white" stroke="#666666" points="765.25,-30.5 651.75,-30.5 651.75,0 765.25,0 765.25,-30.5"/>
<text text-anchor="start" x="659.75" y="-17" font-family="Helvetica,sans-Serif" font-size="10.00">firmware/source/a_box</text>
<text text-anchor="middle" x="708.5" y="-5.75" font-family="Helvetica,sans-Serif" font-size="10.00">/main.c</text>
</a>
</g>
</g>
<!-- Node3&#45;&gt;Node7 -->
<g id="edge7_Node000003_Node000007" class="edge">
<title>Node3&#45;&gt;Node7</title>
<g id="a_edge7_Node000003_Node000007"><a xlink:title=" ">
<path fill="none" stroke="#63b8ff" d="M398.15,-255.89C408.41,-238.89 423.56,-216.33 440.5,-199.5 517.08,-123.43 629.05,-58.63 680.62,-30.8"/>
<polygon fill="#63b8ff" stroke="#63b8ff" points="395.23,-253.95 393.19,-264.35 401.26,-257.49 395.23,-253.95"/>
</a>
</g>
</g>
<!-- Node8 -->
<g id="Node000008" class="node">
<title>Node8</title>
<g id="a_Node000008"><a xlink:href="a__box_2main_8h.html" target="_top" xlink:title="&quot;Abox&quot; node source code">
<polygon fill="white" stroke="#666666" points="765.25,-97 651.75,-97 651.75,-66.5 765.25,-66.5 765.25,-97"/>
<text text-anchor="start" x="659.75" y="-83.5" font-family="Helvetica,sans-Serif" font-size="10.00">firmware/source/a_box</text>
<text text-anchor="middle" x="708.5" y="-72.25" font-family="Helvetica,sans-Serif" font-size="10.00">/main.h</text>
</a>
</g>
</g>
<!-- Node3&#45;&gt;Node8 -->
<g id="edge8_Node000003_Node000008" class="edge">
<title>Node3&#45;&gt;Node8</title>
<g id="a_edge8_Node000003_Node000008"><a xlink:title=" ">
<path fill="none" stroke="#63b8ff" d="M408.68,-258.15C428.08,-241.01 456.46,-217.27 483.5,-199.5 548.23,-156.96 630.3,-117.73 675.28,-97.37"/>
<polygon fill="#63b8ff" stroke="#63b8ff" points="406.43,-255.46 401.31,-264.74 411.1,-260.68 406.43,-255.46"/>
</a>
</g>
</g>
<!-- Node3&#45;&gt;Node9 -->
<g id="edge10_Node000003_Node000009" class="edge">
<title>Node3&#45;&gt;Node9</title>
<g id="a_edge10_Node000003_Node000009"><a xlink:title=" ">
<path fill="none" stroke="#63b8ff" d="M315.86,-277.34C238.12,-272.6 117.98,-260.45 85.5,-230 67.32,-212.96 65.04,-182.07 65.46,-163.84"/>
<polygon fill="#63b8ff" stroke="#63b8ff" points="315.32,-280.81 325.5,-277.9 315.72,-273.82 315.32,-280.81"/>
</a>
</g>
</g>
<!-- Node10 -->
<g id="Node000010" class="node">
<title>Node10</title>
<g id="a_Node000010"><a xlink:href="dashboard_2main_8h.html" target="_top" xlink:title=" ">
<polygon fill="white" stroke="#666666" points="228,-230 95,-230 95,-199.5 228,-199.5 228,-230"/>
<text text-anchor="start" x="103" y="-216.5" font-family="Helvetica,sans-Serif" font-size="10.00">firmware/source/dashboard</text>
<text text-anchor="middle" x="161.5" y="-205.25" font-family="Helvetica,sans-Serif" font-size="10.00">/main.h</text>
</a>
</g>
</g>
<!-- Node3&#45;&gt;Node10 -->
<g id="edge11_Node000003_Node000010" class="edge">
<title>Node3&#45;&gt;Node10</title>
<g id="a_edge11_Node000003_Node000010"><a xlink:title=" ">
<path fill="none" stroke="#63b8ff" d="M322.63,-262.35C287.84,-252.29 244.94,-239.89 212.16,-230.4"/>
<polygon fill="#63b8ff" stroke="#63b8ff" points="321.59,-265.7 332.16,-265.11 323.53,-258.97 321.59,-265.7"/>
</a>
</g>
</g>
<!-- Node3&#45;&gt;Node11 -->
<g id="edge13_Node000003_Node000011" class="edge">
<title>Node3&#45;&gt;Node11</title>
<g id="a_edge13_Node000003_Node000011"><a xlink:title=" ">
<path fill="none" stroke="#63b8ff" d="M433.53,-261.65C459.68,-251.73 491.39,-239.7 515.78,-230.44"/>
<polygon fill="#63b8ff" stroke="#63b8ff" points="432.6,-258.26 424.49,-265.08 435.08,-264.8 432.6,-258.26"/>
</a>
</g>
</g>
<!-- Node5&#45;&gt;Node4 -->
<g id="edge5_Node000005_Node000004" class="edge">
<title>Node5&#45;&gt;Node4</title>
<g id="a_edge5_Node000005_Node000004"><a xlink:title=" ">
<path fill="none" stroke="#63b8ff" d="M301.21,-194.06C281.27,-184.32 257.62,-172.76 239.33,-163.83"/>
<polygon fill="#63b8ff" stroke="#63b8ff" points="299.67,-197.2 310.19,-198.45 302.74,-190.91 299.67,-197.2"/>
</a>
</g>
</g>
<!-- Node6 -->
<g id="Node000006" class="node">
<title>Node6</title>
<g id="a_Node000006"><a xlink:href="adc__priv_8c.html" target="_top" xlink:title="Register&#45;level implementation of the STM32G4 ADC PHAL.">
<polygon fill="white" stroke="#666666" points="398.62,-163.5 284.38,-163.5 284.38,-133 398.62,-133 398.62,-163.5"/>
<text text-anchor="start" x="292.38" y="-150" font-family="Helvetica,sans-Serif" font-size="10.00">firmware/common/phal</text>
<text text-anchor="middle" x="341.5" y="-138.75" font-family="Helvetica,sans-Serif" font-size="10.00">_G4/adc/adc_priv.c</text>
</a>
</g>
</g>
<!-- Node5&#45;&gt;Node6 -->
<g id="edge6_Node000005_Node000006" class="edge">
<title>Node5&#45;&gt;Node6</title>
<g id="a_edge6_Node000005_Node000006"><a xlink:title=" ">
<path fill="none" stroke="#63b8ff" d="M341.5,-187.81C341.5,-179.64 341.5,-170.91 341.5,-163.83"/>
<polygon fill="#63b8ff" stroke="#63b8ff" points="338,-187.6 341.5,-197.6 345,-187.6 338,-187.6"/>
</a>
</g>
</g>
<!-- Node8&#45;&gt;Node7 -->
<g id="edge9_Node000008_Node000007" class="edge">
<title>Node8&#45;&gt;Node7</title>
<g id="a_edge9_Node000008_Node000007"><a xlink:title=" ">
<path fill="none" stroke="#63b8ff" d="M708.5,-54.81C708.5,-46.64 708.5,-37.91 708.5,-30.83"/>
<polygon fill="#63b8ff" stroke="#63b8ff" points="705,-54.6 708.5,-64.6 712,-54.6 705,-54.6"/>
</a>
</g>
</g>
<!-- Node10&#45;&gt;Node9 -->
<g id="edge12_Node000010_Node000009" class="edge">
<title>Node10&#45;&gt;Node9</title>
<g id="a_edge12_Node000010_Node000009"><a xlink:title=" ">
<path fill="none" stroke="#63b8ff" d="M130.7,-192.84C116.75,-183.37 100.59,-172.39 87.97,-163.83"/>
<polygon fill="#63b8ff" stroke="#63b8ff" points="128.45,-195.54 138.69,-198.26 132.38,-189.75 128.45,-195.54"/>
</a>
</g>
</g>
<!-- Node13&#45;&gt;Node12 -->
<g id="edge16_Node000013_Node000012" class="edge">
<title>Node13&#45;&gt;Node12</title>
<g id="a_edge16_Node000013_Node000012"><a xlink:title=" ">
<path fill="none" stroke="#63b8ff" d="M783.21,-260.56C763.27,-250.82 739.62,-239.26 721.33,-230.33"/>
<polygon fill="#63b8ff" stroke="#63b8ff" points="781.67,-263.7 792.19,-264.95 784.74,-257.41 781.67,-263.7"/>
</a>
</g>
</g>
<!-- Node14 -->
<g id="Node000014" class="node">
<title>Node14</title>
<g id="a_Node000014"><a xlink:href="dma__priv_8c.html" target="_top" xlink:title="G4 DMA Peripheral private/register level implementation.">
<polygon fill="white" stroke="#666666" points="880.62,-230 766.38,-230 766.38,-199.5 880.62,-199.5 880.62,-230"/>
<text text-anchor="start" x="774.38" y="-216.5" font-family="Helvetica,sans-Serif" font-size="10.00">firmware/common/phal</text>
<text text-anchor="middle" x="823.5" y="-205.25" font-family="Helvetica,sans-Serif" font-size="10.00">_G4/dma/dma_priv.c</text>
</a>
</g>
</g>
<!-- Node13&#45;&gt;Node14 -->
<g id="edge17_Node000013_Node000014" class="edge">
<title>Node13&#45;&gt;Node14</title>
<g id="a_edge17_Node000013_Node000014"><a xlink:title=" ">
<path fill="none" stroke="#63b8ff" d="M823.5,-254.31C823.5,-246.14 823.5,-237.41 823.5,-230.33"/>
<polygon fill="#63b8ff" stroke="#63b8ff" points="820,-254.1 823.5,-264.1 827,-254.1 820,-254.1"/>
</a>
</g>
</g>
<!-- Node16&#45;&gt;Node15 -->
<g id="edge20_Node000016_Node000015" class="edge">
<title>Node16&#45;&gt;Node15</title>
<g id="a_edge20_Node000016_Node000015"><a xlink:title=" ">
<path fill="none" stroke="#63b8ff" d="M1115.9,-256.84C1097.97,-235.93 1072.35,-207.42 1059.5,-199.5 1040.67,-187.9 989.26,-173.38 948.04,-162.94"/>
<polygon fill="#63b8ff" stroke="#63b8ff" points="1113.16,-259.02 1122.3,-264.38 1118.49,-254.49 1113.16,-259.02"/>
</a>
</g>
</g>
<!-- Node17 -->
<g id="Node000017" class="node">
<title>Node17</title>
<g id="a_Node000017"><a xlink:href="spi__priv_8c.html" target="_top" xlink:title="G4 SPI Peripheral private/register level implementation.">
<polygon fill="white" stroke="#666666" points="1079.62,-163.5 965.38,-163.5 965.38,-133 1079.62,-133 1079.62,-163.5"/>
<text text-anchor="start" x="973.38" y="-150" font-family="Helvetica,sans-Serif" font-size="10.00">firmware/common/phal</text>
<text text-anchor="middle" x="1022.5" y="-138.75" font-family="Helvetica,sans-Serif" font-size="10.00">_G4/spi/spi_priv.c</text>
</a>
</g>
</g>
<!-- Node16&#45;&gt;Node17 -->
<g id="edge21_Node000016_Node000017" class="edge">
<title>Node16&#45;&gt;Node17</title>
<g id="a_edge21_Node000016_Node000017"><a xlink:title=" ">
<path fill="none" stroke="#63b8ff" d="M1125.81,-255.34C1118.4,-238.38 1107,-216.07 1092.5,-199.5 1080.09,-185.31 1062.94,-172.92 1048.72,-163.99"/>
<polygon fill="#63b8ff" stroke="#63b8ff" points="1122.44,-256.33 1129.52,-264.21 1128.89,-253.64 1122.44,-256.33"/>
</a>
</g>
</g>
<!-- Node16&#45;&gt;Node18 -->
<g id="edge22_Node000016_Node000018" class="edge">
<title>Node16&#45;&gt;Node18</title>
<g id="a_edge22_Node000016_Node000018"><a xlink:title=" ">
<path fill="none" stroke="#63b8ff" d="M1093.04,-260.97C1071.41,-251.14 1045.54,-239.39 1025.59,-230.33"/>
<polygon fill="#63b8ff" stroke="#63b8ff" points="1091.35,-264.04 1101.9,-264.99 1094.24,-257.67 1091.35,-264.04"/>
</a>
</g>
</g>
<!-- Node19 -->
<g id="Node000019" class="node">
<title>Node19</title>
<g id="a_Node000019"><a xlink:href="adbms_8c.html" target="_top" xlink:title="Primary logic and interface for ADBMS battery management system driver.">
<polygon fill="white" stroke="#666666" points="1327.25,-97 1213.75,-97 1213.75,-66.5 1327.25,-66.5 1327.25,-97"/>
<text text-anchor="start" x="1221.75" y="-83.5" font-family="Helvetica,sans-Serif" font-size="10.00">firmware/source/a_box</text>
<text text-anchor="middle" x="1270.5" y="-72.25" font-family="Helvetica,sans-Serif" font-size="10.00">/adbms/adbms.c</text>
</a>
</g>
</g>
<!-- Node16&#45;&gt;Node19 -->
<g id="edge25_Node000016_Node000019" class="edge">
<title>Node16&#45;&gt;Node19</title>
<g id="a_edge25_Node000016_Node000019"><a xlink:title=" ">
<path fill="none" stroke="#63b8ff" d="M1203.67,-264.35C1254.35,-252.2 1316.55,-236.48 1327.5,-230 1362.54,-209.27 1375.43,-201.32 1390.5,-163.5 1395.52,-150.91 1398.01,-144.29 1390.5,-133 1376.3,-111.66 1351.1,-99.36 1327.45,-92.29"/>
<polygon fill="#63b8ff" stroke="#63b8ff" points="1203.11,-260.88 1194.2,-266.61 1204.73,-267.69 1203.11,-260.88"/>
</a>
</g>
</g>
<!-- Node20 -->
<g id="Node000020" class="node">
<title>Node20</title>
<g id="a_Node000020"><a xlink:href="adbms_8h.html" target="_top" xlink:title="Primary logic and interface for ADBMS battery management system driver.">
<polygon fill="white" stroke="#666666" points="1211.25,-163.5 1097.75,-163.5 1097.75,-133 1211.25,-133 1211.25,-163.5"/>
<text text-anchor="start" x="1105.75" y="-150" font-family="Helvetica,sans-Serif" font-size="10.00">firmware/source/a_box</text>
<text text-anchor="middle" x="1154.5" y="-138.75" font-family="Helvetica,sans-Serif" font-size="10.00">/adbms/adbms.h</text>
</a>
</g>
</g>
<!-- Node16&#45;&gt;Node20 -->
<g id="edge26_Node000016_Node000020" class="edge">
<title>Node16&#45;&gt;Node20</title>
<g id="a_edge26_Node000016_Node000020"><a xlink:title=" ">
<path fill="none" stroke="#63b8ff" d="M1139.25,-254.43C1143.17,-227.34 1149.21,-185.71 1152.38,-163.83"/>
<polygon fill="#63b8ff" stroke="#63b8ff" points="1135.79,-253.83 1137.82,-264.23 1142.72,-254.84 1135.79,-253.83"/>
</a>
</g>
</g>
<!-- Node22 -->
<g id="Node000022" class="node">
<title>Node22</title>
<g id="a_Node000022"><a xlink:href="adbms6380_8c.html" target="_top" xlink:title="Low level BMS driver specific to ADBMS6380 chip.">
<polygon fill="white" stroke="#666666" points="1381.25,-163.5 1267.75,-163.5 1267.75,-133 1381.25,-133 1381.25,-163.5"/>
<text text-anchor="start" x="1275.75" y="-150" font-family="Helvetica,sans-Serif" font-size="10.00">firmware/source/a_box</text>
<text text-anchor="middle" x="1324.5" y="-138.75" font-family="Helvetica,sans-Serif" font-size="10.00">/adbms/adbms6380.c</text>
</a>
</g>
</g>
<!-- Node16&#45;&gt;Node22 -->
<g id="edge31_Node000016_Node000022" class="edge">
<title>Node16&#45;&gt;Node22</title>
<g id="a_edge31_Node000016_Node000022"><a xlink:title=" ">
<path fill="none" stroke="#63b8ff" d="M1203.9,-276.02C1238.83,-270.31 1279.37,-257.65 1305.5,-230 1322.52,-212 1325.24,-181.73 1325.2,-163.81"/>
<polygon fill="#63b8ff" stroke="#63b8ff" points="1203.66,-272.51 1194.27,-277.42 1204.67,-279.44 1203.66,-272.51"/>
</a>
</g>
</g>
<!-- Node23 -->
<g id="Node000023" class="node">
<title>Node23</title>
<g id="a_Node000023"><a xlink:href="adbms6380_8h.html" target="_top" xlink:title="Low level BMS driver specific to ADBMS6380 chip.">
<polygon fill="white" stroke="#666666" points="1296.25,-230 1182.75,-230 1182.75,-199.5 1296.25,-199.5 1296.25,-230"/>
<text text-anchor="start" x="1190.75" y="-216.5" font-family="Helvetica,sans-Serif" font-size="10.00">firmware/source/a_box</text>
<text text-anchor="middle" x="1239.5" y="-205.25" font-family="Helvetica,sans-Serif" font-size="10.00">/adbms/adbms6380.h</text>
</a>
</g>
</g>
<!-- Node16&#45;&gt;Node23 -->
<g id="edge32_Node000016_Node000023" class="edge">
<title>Node16&#45;&gt;Node23</title>
<g id="a_edge32_Node000016_Node000023"><a xlink:title=" ">
<path fill="none" stroke="#63b8ff" d="M1168.77,-259.61C1184.15,-250.08 1202.05,-238.98 1215.99,-230.33"/>
<polygon fill="#63b8ff" stroke="#63b8ff" points="1167.04,-256.57 1160.39,-264.82 1170.73,-262.52 1167.04,-256.57"/>
</a>
</g>
</g>
<!-- Node18&#45;&gt;Node15 -->
<g id="edge23_Node000018_Node000015" class="edge">
<title>Node18&#45;&gt;Node15</title>
<g id="a_edge23_Node000018_Node000015"><a xlink:title=" ">
<path fill="none" stroke="#63b8ff" d="M960.55,-193.11C945.32,-183.58 927.59,-172.48 913.78,-163.83"/>
<polygon fill="#63b8ff" stroke="#63b8ff" points="958.51,-195.97 968.84,-198.31 962.23,-190.04 958.51,-195.97"/>
</a>
</g>
</g>
<!-- Node18&#45;&gt;Node17 -->
<g id="edge24_Node000018_Node000017" class="edge">
<title>Node18&#45;&gt;Node17</title>
<g id="a_edge24_Node000018_Node000017"><a xlink:title=" ">
<path fill="none" stroke="#63b8ff" d="M1004.78,-188.66C1008.56,-180.25 1012.65,-171.16 1015.95,-163.83"/>
<polygon fill="#63b8ff" stroke="#63b8ff" points="1001.61,-187.18 1000.7,-197.73 1007.99,-190.05 1001.61,-187.18"/>
</a>
</g>
</g>
<!-- Node20&#45;&gt;Node7 -->
<g id="edge29_Node000020_Node000007" class="edge">
<title>Node20&#45;&gt;Node7</title>
<g id="a_edge29_Node000020_Node000007"><a xlink:title=" ">
<path fill="none" stroke="#63b8ff" d="M1093.64,-129.37C1004.65,-103.24 840.69,-55.08 758.38,-30.9"/>
<polygon fill="#63b8ff" stroke="#63b8ff" points="1092.6,-132.72 1103.18,-132.18 1094.58,-126 1092.6,-132.72"/>
</a>
</g>
</g>
<!-- Node20&#45;&gt;Node8 -->
<g id="edge30_Node000020_Node000008" class="edge">
<title>Node20&#45;&gt;Node8</title>
<g id="a_edge30_Node000020_Node000008"><a xlink:title=" ">
<path fill="none" stroke="#63b8ff" d="M1086.14,-132.68C966.5,-112.24 838,-96.88 765.69,-88.85"/>
<polygon fill="#63b8ff" stroke="#63b8ff" points="1085.38,-136.1 1095.83,-134.35 1086.57,-129.2 1085.38,-136.1"/>
</a>
</g>
</g>
<!-- Node20&#45;&gt;Node19 -->
<g id="edge27_Node000020_Node000019" class="edge">
<title>Node20&#45;&gt;Node19</title>
<g id="a_edge27_Node000020_Node000019"><a xlink:title=" ">
<path fill="none" stroke="#63b8ff" d="M1190.64,-127.16C1208,-117.5 1228.43,-106.14 1244.28,-97.33"/>
<polygon fill="#63b8ff" stroke="#63b8ff" points="1189.18,-123.96 1182.14,-131.88 1192.59,-130.08 1189.18,-123.96"/>
</a>
</g>
</g>
<!-- Node21 -->
<g id="Node000021" class="node">
<title>Node21</title>
<g id="a_Node000021"><a xlink:href="charging__fsm_8c.html" target="_top" xlink:title="Charger control state machine implementation.">
<polygon fill="white" stroke="#666666" points="1195.75,-97 1049.25,-97 1049.25,-66.5 1195.75,-66.5 1195.75,-97"/>
<text text-anchor="start" x="1057.25" y="-83.5" font-family="Helvetica,sans-Serif" font-size="10.00">firmware/source/a_box</text>
<text text-anchor="middle" x="1122.5" y="-72.25" font-family="Helvetica,sans-Serif" font-size="10.00">/charging_fsm/charging_fsm.c</text>
</a>
</g>
</g>
<!-- Node20&#45;&gt;Node21 -->
<g id="edge28_Node000020_Node000021" class="edge">
<title>Node20&#45;&gt;Node21</title>
<g id="a_edge28_Node000020_Node000021"><a xlink:title=" ">
<path fill="none" stroke="#63b8ff" d="M1142.19,-122.44C1137.98,-113.96 1133.41,-104.74 1129.73,-97.33"/>
<polygon fill="#63b8ff" stroke="#63b8ff" points="1138.99,-123.86 1146.57,-131.26 1145.26,-120.74 1138.99,-123.86"/>
</a>
</g>
</g>
<!-- Node23&#45;&gt;Node19 -->
<g id="edge33_Node000023_Node000019" class="edge">
<title>Node23&#45;&gt;Node19</title>
<g id="a_edge33_Node000023_Node000019"><a xlink:title=" ">
<path fill="none" stroke="#63b8ff" d="M1245.51,-188.1C1249.24,-172.23 1254.13,-151.43 1258.5,-133 1261.35,-120.96 1264.62,-107.3 1267.02,-97.26"/>
<polygon fill="#63b8ff" stroke="#63b8ff" points="1242.14,-187.15 1243.26,-197.69 1248.96,-188.75 1242.14,-187.15"/>
</a>
</g>
</g>
<!-- Node23&#45;&gt;Node20 -->
<g id="edge34_Node000023_Node000020" class="edge">
<title>Node23&#45;&gt;Node20</title>
<g id="a_edge34_Node000023_Node000020"><a xlink:title=" ">
<path fill="none" stroke="#63b8ff" d="M1211.22,-192.29C1198.9,-182.94 1184.78,-172.23 1173.71,-163.83"/>
<polygon fill="#63b8ff" stroke="#63b8ff" points="1208.92,-194.94 1219.01,-198.2 1213.16,-189.37 1208.92,-194.94"/>
</a>
</g>
</g>
<!-- Node23&#45;&gt;Node22 -->
<g id="edge35_Node000023_Node000022" class="edge">
<title>Node23&#45;&gt;Node22</title>
<g id="a_edge35_Node000023_Node000022"><a xlink:title=" ">
<path fill="none" stroke="#63b8ff" d="M1267.78,-192.29C1280.1,-182.94 1294.22,-172.23 1305.29,-163.83"/>
<polygon fill="#63b8ff" stroke="#63b8ff" points="1265.84,-189.37 1259.99,-198.2 1270.08,-194.94 1265.84,-189.37"/>
</a>
</g>
</g>
<!-- Node25&#45;&gt;Node24 -->
<g id="edge39_Node000025_Node000024" class="edge">
<title>Node25&#45;&gt;Node24</title>
<g id="a_edge39_Node000025_Node000024"><a xlink:title=" ">
<path fill="none" stroke="#63b8ff" d="M1494.5,-254.31C1494.5,-246.14 1494.5,-237.41 1494.5,-230.33"/>
<polygon fill="#63b8ff" stroke="#63b8ff" points="1491,-254.1 1494.5,-264.1 1498,-254.1 1491,-254.1"/>
</a>
</g>
</g>
<!-- Node26 -->
<g id="Node000026" class="node">
<title>Node26</title>
<g id="a_Node000026"><a xlink:href="usart__priv_8c.html" target="_top" xlink:title=" ">
<polygon fill="white" stroke="#666666" points="1683.62,-230 1569.38,-230 1569.38,-199.5 1683.62,-199.5 1683.62,-230"/>
<text text-anchor="start" x="1577.38" y="-216.5" font-family="Helvetica,sans-Serif" font-size="10.00">firmware/common/phal</text>
<text text-anchor="middle" x="1626.5" y="-205.25" font-family="Helvetica,sans-Serif" font-size="10.00">_G4/usart/usart_priv.c</text>
</a>
</g>
</g>
<!-- Node25&#45;&gt;Node26 -->
<g id="edge40_Node000025_Node000026" class="edge">
<title>Node25&#45;&gt;Node26</title>
<g id="a_edge40_Node000025_Node000026"><a xlink:title=" ">
<path fill="none" stroke="#63b8ff" d="M1534.79,-260.56C1554.73,-250.82 1578.38,-239.26 1596.67,-230.33"/>
<polygon fill="#63b8ff" stroke="#63b8ff" points="1533.26,-257.41 1525.81,-264.95 1536.33,-263.7 1533.26,-257.41"/>
</a>
</g>
</g>
</g>
</svg>
