<?xml version="1.0" encoding="UTF-8" standalone="no"?>
<!DOCTYPE svg PUBLIC "-//W3C//DTD SVG 1.1//EN"
 "http://www.w3.org/Graphics/SVG/1.1/DTD/svg11.dtd">
<!-- Generated by graphviz version 12.2.0 (20241103.1931)
 -->
<!-- Title: fdcan_rxIRQHandler Pages: 1 -->
<svg width="505pt" height="162pt"
 viewBox="0.00 0.00 504.50 161.88" xmlns="http://www.w3.org/2000/svg" xmlns:xlink="http://www.w3.org/1999/xlink">
<g id="graph0" class="graph" transform="scale(1 1) rotate(0) translate(4 157.88)">
<title>fdcan_rxIRQHandler</title>
<!-- Node1 -->
<g id="Node000001" class="node">
<title>Node1</title>
<g id="a_Node000001"><a xlink:title=" ">
<polygon fill="#999999" stroke="#666666" points="103.75,-77.25 0,-77.25 0,-58 103.75,-58 103.75,-77.25"/>
<text text-anchor="middle" x="51.88" y="-63.75" font-family="Helvetica,sans-Serif" font-size="10.00">fdcan_rxIRQHandler</text>
</a>
</g>
</g>
<!-- Node2 -->
<g id="Node000002" class="node">
<title>Node2</title>
<g id="a_Node000002"><a xlink:href="fdcan__priv_8c.html#a71eb27961b47f7df2865cd21f529b15b" target="_top" xlink:title="Clear the RX FIFO0 new message interrupt flag.">
<polygon fill="white" stroke="#666666" points="308.75,-153.88 144.25,-153.88 144.25,-123.38 308.75,-123.38 308.75,-153.88"/>
<text text-anchor="start" x="152.25" y="-140.38" font-family="Helvetica,sans-Serif" font-size="10.00">PHAL_FDCAN_priv_clearReceive</text>
<text text-anchor="middle" x="226.5" y="-129.12" font-family="Helvetica,sans-Serif" font-size="10.00">Fifo0NewMessageInterruptFlag</text>
</a>
</g>
</g>
<!-- Node1&#45;&gt;Node2 -->
<g id="edge1_Node000001_Node000002" class="edge">
<title>Node1&#45;&gt;Node2</title>
<g id="a_edge1_Node000001_Node000002"><a xlink:title=" ">
<path fill="none" stroke="#63b8ff" d="M69.37,-77.66C86.49,-87.77 114.29,-103.3 139.75,-113.62 144.7,-115.63 149.87,-117.55 155.11,-119.37"/>
<polygon fill="#63b8ff" stroke="#63b8ff" points="153.89,-122.65 164.48,-122.48 156.09,-116.01 153.89,-122.65"/>
</a>
</g>
</g>
<!-- Node3 -->
<g id="Node000003" class="node">
<title>Node3</title>
<g id="a_Node000003"><a xlink:href="fdcan__priv_8c.html#ae17788ed13713f42f37fa0e2f82d5ad5" target="_top" xlink:title="Check whether the RX FIFO0 new message interrupt flag is set.">
<polygon fill="white" stroke="#666666" points="307.62,-104.88 145.38,-104.88 145.38,-74.38 307.62,-74.38 307.62,-104.88"/>
<text text-anchor="start" x="153.38" y="-91.38" font-family="Helvetica,sans-Serif" font-size="10.00">PHAL_FDCAN_priv_readReceive</text>
<text text-anchor="middle" x="226.5" y="-80.12" font-family="Helvetica,sans-Serif" font-size="10.00">Fifo0NewMessageInterruptFlag</text>
</a>
</g>
</g>
<!-- Node1&#45;&gt;Node3 -->
<g id="edge2_Node000001_Node000003" class="edge">
<title>Node1&#45;&gt;Node3</title>
<g id="a_edge2_Node000001_Node000003"><a xlink:title=" ">
<path fill="none" stroke="#63b8ff" d="M104.2,-74.17C113.52,-75.35 123.49,-76.62 133.56,-77.91"/>
<polygon fill="#63b8ff" stroke="#63b8ff" points="133.08,-81.37 143.44,-79.17 133.96,-74.43 133.08,-81.37"/>
</a>
</g>
</g>
<!-- Node4 -->
<g id="Node000004" class="node">
<title>Node4</title>
<g id="a_Node000004"><a xlink:href="fdcan__priv_8c.html#a7d7a1cca26ac694c42ace9f38507706e" target="_top" xlink:title="Pop and decode the oldest element from RX FIFO0.">
<polygon fill="white" stroke="#666666" points="313.25,-56.25 139.75,-56.25 139.75,-37 313.25,-37 313.25,-56.25"/>
<text text-anchor="middle" x="226.5" y="-42.75" font-family="Helvetica,sans-Serif" font-size="10.00">PHAL_FDCAN_priv_readRxElement</text>
</a>
</g>
</g>
<!-- Node1&#45;&gt;Node4 -->
<g id="edge3_Node000001_Node000004" class="edge">
<title>Node1&#45;&gt;Node4</title>
<g id="a_edge3_Node000001_Node000004"><a xlink:title=" ">
<path fill="none" stroke="#63b8ff" d="M104.2,-61.38C112.75,-60.34 121.85,-59.23 131.08,-58.11"/>
<polygon fill="#63b8ff" stroke="#63b8ff" points="131.36,-61.6 140.86,-56.92 130.51,-54.65 131.36,-61.6"/>
</a>
</g>
</g>
<!-- Node6 -->
<g id="Node000006" class="node">
<title>Node6</title>
<g id="a_Node000006"><a xlink:href="fdcan_8c.html#a8b126471775c8ec5765594c0c9bbbdff" target="_top" xlink:title="Weak callback fired once per received frame.">
<polygon fill="white" stroke="#666666" points="292.62,-19.25 160.38,-19.25 160.38,0 292.62,0 292.62,-19.25"/>
<text text-anchor="middle" x="226.5" y="-5.75" font-family="Helvetica,sans-Serif" font-size="10.00">PHAL_FDCAN_rxCallback</text>
</a>
</g>
</g>
<!-- Node1&#45;&gt;Node6 -->
<g id="edge5_Node000001_Node000006" class="edge">
<title>Node1&#45;&gt;Node6</title>
<g id="a_edge5_Node000001_Node000006"><a xlink:title=" ">
<path fill="none" stroke="#63b8ff" d="M71.36,-57.63C88.62,-48.66 115.31,-35.7 139.75,-27.62 145.53,-25.72 151.59,-23.96 157.72,-22.37"/>
<polygon fill="#63b8ff" stroke="#63b8ff" points="158.4,-25.8 167.28,-20.02 156.73,-19 158.4,-25.8"/>
</a>
</g>
</g>
<!-- Node5 -->
<g id="Node000005" class="node">
<title>Node5</title>
<g id="a_Node000005"><a xlink:href="fdcan__priv_8c.html#a14ac1c62f9f7ec08496cda925598d136" target="_top" xlink:title="Base address of this peripheral&#39;s slice of shared message RAM.">
<polygon fill="white" stroke="#666666" points="496.5,-56.25 349.25,-56.25 349.25,-37 496.5,-37 496.5,-56.25"/>
<text text-anchor="middle" x="422.88" y="-42.75" font-family="Helvetica,sans-Serif" font-size="10.00">PHAL_FDCAN_priv_ramBase</text>
</a>
</g>
</g>
<!-- Node4&#45;&gt;Node5 -->
<g id="edge4_Node000004_Node000005" class="edge">
<title>Node4&#45;&gt;Node5</title>
<g id="a_edge4_Node000004_Node000005"><a xlink:title=" ">
<path fill="none" stroke="#63b8ff" d="M313.6,-46.62C321.52,-46.62 329.53,-46.62 337.43,-46.62"/>
<polygon fill="#63b8ff" stroke="#63b8ff" points="337.38,-50.13 347.38,-46.63 337.38,-43.13 337.38,-50.13"/>
</a>
</g>
</g>
</g>
</svg>
