<?xml version="1.0" encoding="UTF-8" standalone="no"?>
<!DOCTYPE svg PUBLIC "-//W3C//DTD SVG 1.1//EN"
 "http://www.w3.org/Graphics/SVG/1.1/DTD/svg11.dtd">
<!-- Generated by graphviz version 12.2.0 (20241103.1931)
 -->
<!-- Title: firmware/source/dashboard/driver_interface/lcd.c Pages: 1 -->
<!--zoomable 271 -->

<svg id="main" version="1.1" xmlns="http://www.w3.org/2000/svg" xmlns:xlink="http://www.w3.org/1999/xlink" xml:space="preserve" onload="init(evt)">

<style type="text/css"><![CDATA[
.node, .edge {opacity: 0.7;}
.node.selected, .edge.selected {opacity: 1;}
.edge:hover path { stroke: red; }
.edge:hover polygon { stroke: red; fill: red; }
]]></style>

<defs>
  <circle id="rim" cx="0" cy="0" r="7"/>
  <circle id="rim2" cx="0" cy="0" r="3.5"/>
  <g id="zoomPlus">
    <use xlink:href="#rim" fill="#404040"><set attributeName="fill" to="#808080" begin="zoomplus.mouseover" end="zoomplus.mouseout"/></use>
    <path d="M-4,0h8M0,-4v8" fill="none" stroke="white" stroke-width="1.5" pointer-events="none"/>
  </g>
  <g id="zoomMin">
    <use xlink:href="#rim" fill="#404040"><set attributeName="fill" to="#808080" begin="zoomminus.mouseover" end="zoomminus.mouseout"/></use>
    <path d="M-4,0h8" fill="none" stroke="white" stroke-width="1.5" pointer-events="none"/>
  </g>
  <g id="arrowUp" transform="translate(30 24)">
    <use xlink:href="#rim"/>
    <path pointer-events="none" fill="none" stroke="white" stroke-width="1.5" d="M0,-3.0v7 M-2.5,-0.5L0,-3.0L2.5,-0.5"/>
  </g>
  <g id="arrowRight" transform="rotate(90) translate(36 -43)">
    <use xlink:href="#rim"/>
    <path pointer-events="none" fill="none" stroke="white" stroke-width="1.5" d="M0,-3.0v7 M-2.5,-0.5L0,-3.0L2.5,-0.5"/>
  </g>
  <g id="arrowDown" transform="rotate(180) translate(-30 -48)">
    <use xlink:href="#rim"/>
    <path pointer-events="none" fill="none" stroke="white" stroke-width="1.5" d="M0,-3.0v7 M-2.5,-0.5L0,-3.0L2.5,-0.5"/>
  </g>
  <g id="arrowLeft" transform="rotate(270) translate(-36 17)">
    <use xlink:href="#rim"/>
    <path pointer-events="none" fill="none" stroke="white" stroke-width="1.5" d="M0,-3.0v7 M-2.5,-0.5L0,-3.0L2.5,-0.5"/>
  </g>
  <g id="resetDef">
    <use xlink:href="#rim2" fill="#404040"><set attributeName="fill" to="#808080" begin="reset.mouseover" end="reset.mouseout"/></use>
  </g>
</defs>
<script type="application/ecmascript">
var viewWidth = 816;
var viewHeight = 271;
var sectionId = 'dynsection-0';
</script>
<script type="application/ecmascript" xlink:href="svg.min.js"/>
<svg id="graph" class="graph">
<g id="viewport">
<title>firmware/source/dashboard/driver_interface/lcd.c</title>
<!-- Node1 -->
<g id="Node000001" class="node">
<title>Node1</title>
<g id="a_Node000001"><a xlink:title="LCD display management.">
<polygon fill="#999999" stroke="#666666" points="494,-262.75 361,-262.75 361,-232.25 494,-232.25 494,-262.75"/>
<text text-anchor="start" x="369" y="-249.25" font-family="Helvetica,sans-Serif" font-size="10.00">firmware/source/dashboard</text>
<text text-anchor="middle" x="427.5" y="-238" font-family="Helvetica,sans-Serif" font-size="10.00">/driver_interface/lcd.c</text>
</a>
</g>
</g>
<!-- Node2 -->
<g id="Node000002" class="node">
<title>Node2</title>
<g id="a_Node000002"><a xlink:href="lcd_8h.html" target="_top" xlink:title="LCD display management.">
<polygon fill="white" stroke="#666666" points="183.62,-196.25 147.38,-196.25 147.38,-177 183.62,-177 183.62,-196.25"/>
<text text-anchor="middle" x="165.5" y="-182.75" font-family="Helvetica,sans-Serif" font-size="10.00">lcd.h</text>
</a>
</g>
</g>
<!-- Node1&#45;&gt;Node2 -->
<g id="edge1_Node000001_Node000002" class="edge">
<title>Node1&#45;&gt;Node2</title>
<g id="a_edge1_Node000001_Node000002"><a xlink:title=" ">
<path fill="none" stroke="#63b8ff" d="M360.63,-232.78C314.63,-223.12 252.2,-209.59 197.5,-196.25 196.68,-196.05 195.85,-195.85 195.02,-195.64"/>
<polygon fill="#63b8ff" stroke="#63b8ff" points="196.1,-192.3 185.54,-193.17 194.34,-199.08 196.1,-192.3"/>
</a>
</g>
</g>
<!-- Node3 -->
<g id="Node000003" class="node">
<title>Node3</title>
<g id="a_Node000003"><a xlink:title=" ">
<polygon fill="#e0e0e0" stroke="#999999" points="290.25,-19.25 242.75,-19.25 242.75,0 290.25,0 290.25,-19.25"/>
<text text-anchor="middle" x="266.5" y="-5.75" font-family="Helvetica,sans-Serif" font-size="10.00">stdint.h</text>
</a>
</g>
</g>
<!-- Node1&#45;&gt;Node3 -->
<g id="edge8_Node000001_Node000003" class="edge">
<title>Node1&#45;&gt;Node3</title>
<g id="a_edge8_Node000001_Node000003"><a xlink:title=" ">
<path fill="none" stroke="#63b8ff" d="M494.21,-245.27C611.98,-241.76 840.97,-228.35 803.5,-177 742.23,-93.04 411.2,-33.62 301.69,-16.03"/>
<polygon fill="#63b8ff" stroke="#63b8ff" points="302.55,-12.62 292.12,-14.51 301.45,-19.53 302.55,-12.62"/>
</a>
</g>
</g>
<!-- Node4 -->
<g id="Node000004" class="node">
<title>Node4</title>
<g id="a_Node000004"><a xlink:href="phal__G4_2usart_2usart_8h.html" target="_top" xlink:title=" ">
<polygon fill="white" stroke="#666666" points="139.12,-141 21.88,-141 21.88,-110.5 139.12,-110.5 139.12,-141"/>
<text text-anchor="start" x="29.88" y="-127.5" font-family="Helvetica,sans-Serif" font-size="10.00">common/phal_G4/usart</text>
<text text-anchor="middle" x="80.5" y="-116.25" font-family="Helvetica,sans-Serif" font-size="10.00">/usart.h</text>
</a>
</g>
</g>
<!-- Node1&#45;&gt;Node4 -->
<g id="edge14_Node000001_Node000004" class="edge">
<title>Node1&#45;&gt;Node4</title>
<g id="a_edge14_Node000001_Node000004"><a xlink:title=" ">
<path fill="none" stroke="#63b8ff" d="M360.68,-240.25C287.42,-232.47 175.38,-217.55 138.5,-196.25 119.86,-185.48 104.56,-166.34 94.36,-150.86"/>
<polygon fill="#63b8ff" stroke="#63b8ff" points="97.49,-149.26 89.22,-142.63 91.55,-152.97 97.49,-149.26"/>
</a>
</g>
</g>
<!-- Node7 -->
<g id="Node000007" class="node">
<title>Node7</title>
<g id="a_Node000007"><a xlink:title=" ">
<polygon fill="#e0e0e0" stroke="#999999" points="414.75,-74.5 364.25,-74.5 364.25,-55.25 414.75,-55.25 414.75,-74.5"/>
<text text-anchor="middle" x="389.5" y="-61" font-family="Helvetica,sans-Serif" font-size="10.00">stddef.h</text>
</a>
</g>
</g>
<!-- Node1&#45;&gt;Node7 -->
<g id="edge7_Node000001_Node000007" class="edge">
<title>Node1&#45;&gt;Node7</title>
<g id="a_edge7_Node000001_Node000007"><a xlink:title=" ">
<path fill="none" stroke="#63b8ff" d="M423.5,-232.05C420.79,-222.04 417.23,-208.38 414.5,-196.25 405.76,-157.4 397.43,-111.59 392.94,-85.92"/>
<polygon fill="#63b8ff" stroke="#63b8ff" points="396.42,-85.52 391.26,-76.26 389.52,-86.71 396.42,-85.52"/>
</a>
</g>
</g>
<!-- Node8 -->
<g id="Node000008" class="node">
<title>Node8</title>
<g id="a_Node000008"><a xlink:href="nextion_8h.html" target="_top" xlink:title="Nextion display driver interface.">
<polygon fill="white" stroke="#666666" points="367.75,-196.25 239.25,-196.25 239.25,-177 367.75,-177 367.75,-196.25"/>
<text text-anchor="middle" x="303.5" y="-182.75" font-family="Helvetica,sans-Serif" font-size="10.00">common/nextion/nextion.h</text>
</a>
</g>
</g>
<!-- Node1&#45;&gt;Node8 -->
<g id="edge9_Node000001_Node000008" class="edge">
<title>Node1&#45;&gt;Node8</title>
<g id="a_edge9_Node000001_Node000008"><a xlink:title=" ">
<path fill="none" stroke="#63b8ff" d="M396.53,-231.8C377.01,-222.53 351.96,-210.63 332.77,-201.52"/>
<polygon fill="#63b8ff" stroke="#63b8ff" points="334.42,-198.43 323.88,-197.3 331.42,-204.75 334.42,-198.43"/>
</a>
</g>
</g>
<!-- Node10 -->
<g id="Node000010" class="node">
<title>Node10</title>
<g id="a_Node000010"><a xlink:href="race_8h.html" target="_top" xlink:title="Race page implementation.">
<polygon fill="white" stroke="#666666" points="495.25,-196.25 423.75,-196.25 423.75,-177 495.25,-177 495.25,-196.25"/>
<text text-anchor="middle" x="459.5" y="-182.75" font-family="Helvetica,sans-Serif" font-size="10.00">pages/race.h</text>
</a>
</g>
</g>
<!-- Node1&#45;&gt;Node10 -->
<g id="edge15_Node000001_Node000010" class="edge">
<title>Node1&#45;&gt;Node10</title>
<g id="a_edge15_Node000001_Node000010"><a xlink:title=" ">
<path fill="none" stroke="#63b8ff" d="M435.41,-231.95C439.53,-224.36 444.63,-214.99 449.07,-206.82"/>
<polygon fill="#63b8ff" stroke="#63b8ff" points="452.14,-208.49 453.84,-198.03 445.99,-205.15 452.14,-208.49"/>
</a>
</g>
</g>
<!-- Node11 -->
<g id="Node000011" class="node">
<title>Node11</title>
<g id="a_Node000011"><a xlink:href="calibration_8h.html" target="_top" xlink:title="Calibration page implementation.">
<polygon fill="white" stroke="#666666" points="610,-196.25 513,-196.25 513,-177 610,-177 610,-196.25"/>
<text text-anchor="middle" x="561.5" y="-182.75" font-family="Helvetica,sans-Serif" font-size="10.00">pages/calibration.h</text>
</a>
</g>
</g>
<!-- Node1&#45;&gt;Node11 -->
<g id="edge16_Node000001_Node000011" class="edge">
<title>Node1&#45;&gt;Node11</title>
<g id="a_edge16_Node000001_Node000011"><a xlink:title=" ">
<path fill="none" stroke="#63b8ff" d="M460.97,-231.8C482.26,-222.44 509.63,-210.41 530.44,-201.27"/>
<polygon fill="#63b8ff" stroke="#63b8ff" points="531.82,-204.49 539.56,-197.26 529,-198.08 531.82,-204.49"/>
</a>
</g>
</g>
<!-- Node12 -->
<g id="Node000012" class="node">
<title>Node12</title>
<g id="a_Node000012"><a xlink:href="dashboard_2driver__interface_2pages_2faults_8h.html" target="_top" xlink:title="Faults page implementation.">
<polygon fill="white" stroke="#666666" points="704.88,-196.25 628.12,-196.25 628.12,-177 704.88,-177 704.88,-196.25"/>
<text text-anchor="middle" x="666.5" y="-182.75" font-family="Helvetica,sans-Serif" font-size="10.00">pages/faults.h</text>
</a>
</g>
</g>
<!-- Node1&#45;&gt;Node12 -->
<g id="edge17_Node000001_Node000012" class="edge">
<title>Node1&#45;&gt;Node12</title>
<g id="a_edge17_Node000001_Node000012"><a xlink:title=" ">
<path fill="none" stroke="#63b8ff" d="M487.19,-231.8C527.84,-221.78 580.92,-208.71 618.76,-199.38"/>
<polygon fill="#63b8ff" stroke="#63b8ff" points="619.15,-202.89 628.03,-197.1 617.48,-196.1 619.15,-202.89"/>
</a>
</g>
</g>
<!-- Node13 -->
<g id="Node000013" class="node">
<title>Node13</title>
<g id="a_Node000013"><a xlink:href="source_2dashboard_2driver__interface_2pages_2amk_8h.html" target="_top" xlink:title="AMK page implementation.">
<polygon fill="white" stroke="#666666" points="794.25,-196.25 722.75,-196.25 722.75,-177 794.25,-177 794.25,-196.25"/>
<text text-anchor="middle" x="758.5" y="-182.75" font-family="Helvetica,sans-Serif" font-size="10.00">pages/amk.h</text>
</a>
</g>
</g>
<!-- Node1&#45;&gt;Node13 -->
<g id="edge18_Node000001_Node000013" class="edge">
<title>Node1&#45;&gt;Node13</title>
<g id="a_edge18_Node000001_Node000013"><a xlink:title=" ">
<path fill="none" stroke="#63b8ff" d="M494.3,-235.06C549.8,-225.49 631.15,-211.31 711.79,-196.54"/>
<polygon fill="#63b8ff" stroke="#63b8ff" points="711.96,-200.07 721.16,-194.82 710.69,-193.18 711.96,-200.07"/>
</a>
</g>
</g>
<!-- Node14 -->
<g id="Node000014" class="node">
<title>Node14</title>
<g id="a_Node000014"><a xlink:href="dashboard_2driver__interface_2pages_2vcu_8h.html" target="_top" xlink:title=" ">
<polygon fill="white" stroke="#666666" points="263.75,-135.38 195.25,-135.38 195.25,-116.12 263.75,-116.12 263.75,-135.38"/>
<text text-anchor="middle" x="229.5" y="-121.88" font-family="Helvetica,sans-Serif" font-size="10.00">pages/vcu.h</text>
</a>
</g>
</g>
<!-- Node1&#45;&gt;Node14 -->
<g id="edge19_Node000001_Node000014" class="edge">
<title>Node1&#45;&gt;Node14</title>
<g id="a_edge19_Node000001_Node000014"><a xlink:title=" ">
<path fill="none" stroke="#63b8ff" d="M360.53,-238.17C309.99,-230.35 246.67,-216.76 230.5,-196.25 219.53,-182.34 220.81,-161.54 223.9,-146.32"/>
<polygon fill="#63b8ff" stroke="#63b8ff" points="227.2,-147.56 226.2,-137.01 220.4,-145.88 227.2,-147.56"/>
</a>
</g>
</g>
<!-- Node2&#45;&gt;Node3 -->
<g id="edge2_Node000002_Node000003" class="edge">
<title>Node2&#45;&gt;Node3</title>
<g id="a_edge2_Node000002_Node000003"><a xlink:title=" ">
<path fill="none" stroke="#63b8ff" d="M166.77,-176.87C169.13,-162.41 175,-132.91 186.5,-110.5 203.06,-78.22 231.04,-46.49 249.13,-27.74"/>
<polygon fill="#63b8ff" stroke="#63b8ff" points="251.54,-30.28 256.07,-20.71 246.55,-25.37 251.54,-30.28"/>
</a>
</g>
</g>
<!-- Node2&#45;&gt;Node4 -->
<g id="edge3_Node000002_Node000004" class="edge">
<title>Node2&#45;&gt;Node4</title>
<g id="a_edge3_Node000002_Node000004"><a xlink:title=" ">
<path fill="none" stroke="#63b8ff" d="M152.59,-176.68C141.47,-168.98 124.97,-157.55 110.57,-147.58"/>
<polygon fill="#63b8ff" stroke="#63b8ff" points="112.94,-144.96 102.72,-142.14 108.95,-150.72 112.94,-144.96"/>
</a>
</g>
</g>
<!-- Node5 -->
<g id="Node000005" class="node">
<title>Node5</title>
<g id="a_Node000005"><a xlink:href="phal__G4_8h.html" target="_top" xlink:title=" ">
<polygon fill="white" stroke="#666666" points="139,-74.5 0,-74.5 0,-55.25 139,-55.25 139,-74.5"/>
<text text-anchor="middle" x="69.5" y="-61" font-family="Helvetica,sans-Serif" font-size="10.00">common/phal_G4/phal_G4.h</text>
</a>
</g>
</g>
<!-- Node4&#45;&gt;Node5 -->
<g id="edge4_Node000004_Node000005" class="edge">
<title>Node4&#45;&gt;Node5</title>
<g id="a_edge4_Node000004_Node000005"><a xlink:title=" ">
<path fill="none" stroke="#63b8ff" d="M77.78,-110.2C76.43,-102.96 74.77,-94.09 73.3,-86.19"/>
<polygon fill="#63b8ff" stroke="#63b8ff" points="76.75,-85.63 71.47,-76.44 69.87,-86.91 76.75,-85.63"/>
</a>
</g>
</g>
<!-- Node5&#45;&gt;Node3 -->
<g id="edge6_Node000005_Node000003" class="edge">
<title>Node5&#45;&gt;Node3</title>
<g id="a_edge6_Node000005_Node000003"><a xlink:title=" ">
<path fill="none" stroke="#63b8ff" d="M102.92,-54.84C138.58,-45.2 194.84,-30 231.2,-20.17"/>
<polygon fill="#63b8ff" stroke="#63b8ff" points="232.06,-23.56 240.8,-17.57 230.23,-16.8 232.06,-23.56"/>
</a>
</g>
</g>
<!-- Node6 -->
<g id="Node000006" class="node">
<title>Node6</title>
<g id="a_Node000006"><a xlink:title=" ">
<polygon fill="#e0e0e0" stroke="#999999" points="97,-19.25 42,-19.25 42,0 97,0 97,-19.25"/>
<text text-anchor="middle" x="69.5" y="-5.75" font-family="Helvetica,sans-Serif" font-size="10.00">stdbool.h</text>
</a>
</g>
</g>
<!-- Node5&#45;&gt;Node6 -->
<g id="edge5_Node000005_Node000006" class="edge">
<title>Node5&#45;&gt;Node6</title>
<g id="a_edge5_Node000005_Node000006"><a xlink:title=" ">
<path fill="none" stroke="#63b8ff" d="M69.5,-55.08C69.5,-48.57 69.5,-39.42 69.5,-31.12"/>
<polygon fill="#63b8ff" stroke="#63b8ff" points="73,-31.12 69.5,-21.12 66,-31.12 73,-31.12"/>
</a>
</g>
</g>
<!-- Node8&#45;&gt;Node3 -->
<g id="edge10_Node000008_Node000003" class="edge">
<title>Node8&#45;&gt;Node3</title>
<g id="a_edge10_Node000008_Node000003"><a xlink:title=" ">
<path fill="none" stroke="#63b8ff" d="M301.61,-176.71C295.93,-149.8 278.83,-68.94 270.78,-30.87"/>
<polygon fill="#63b8ff" stroke="#63b8ff" points="274.23,-30.28 268.74,-21.22 267.38,-31.72 274.23,-30.28"/>
</a>
</g>
</g>
<!-- Node9 -->
<g id="Node000009" class="node">
<title>Node9</title>
<g id="a_Node000009"><a xlink:href="strbuf_8h.html" target="_top" xlink:title="Fixed&#45;size string builder. Useful for building large CMD strings before transmission.">
<polygon fill="white" stroke="#666666" points="367.62,-135.38 319.38,-135.38 319.38,-116.12 367.62,-116.12 367.62,-135.38"/>
<text text-anchor="middle" x="343.5" y="-121.88" font-family="Helvetica,sans-Serif" font-size="10.00">strbuf.h</text>
</a>
</g>
</g>
<!-- Node8&#45;&gt;Node9 -->
<g id="edge11_Node000008_Node000009" class="edge">
<title>Node8&#45;&gt;Node9</title>
<g id="a_edge11_Node000008_Node000009"><a xlink:title=" ">
<path fill="none" stroke="#63b8ff" d="M309.58,-176.68C315.21,-168.38 323.78,-155.77 330.9,-145.3"/>
<polygon fill="#63b8ff" stroke="#63b8ff" points="333.79,-147.27 336.52,-137.03 328,-143.33 333.79,-147.27"/>
</a>
</g>
</g>
<!-- Node9&#45;&gt;Node3 -->
<g id="edge12_Node000009_Node000003" class="edge">
<title>Node9&#45;&gt;Node3</title>
<g id="a_edge12_Node000009_Node000003"><a xlink:title=" ">
<path fill="none" stroke="#63b8ff" d="M339.4,-115.83C332.99,-102.24 319.82,-75.77 305.5,-55.25 298.9,-45.79 290.6,-36.06 283.35,-28.1"/>
<polygon fill="#63b8ff" stroke="#63b8ff" points="285.92,-25.72 276.53,-20.81 280.81,-30.51 285.92,-25.72"/>
</a>
</g>
</g>
<!-- Node9&#45;&gt;Node7 -->
<g id="edge13_Node000009_Node000007" class="edge">
<title>Node9&#45;&gt;Node7</title>
<g id="a_edge13_Node000009_Node000007"><a xlink:title=" ">
<path fill="none" stroke="#63b8ff" d="M350.49,-115.81C357.11,-107.34 367.24,-94.37 375.52,-83.77"/>
<polygon fill="#63b8ff" stroke="#63b8ff" points="378.12,-86.13 381.52,-76.09 372.6,-81.82 378.12,-86.13"/>
</a>
</g>
</g>
<!-- Node14&#45;&gt;Node3 -->
<g id="edge20_Node000014_Node000003" class="edge">
<title>Node14&#45;&gt;Node3</title>
<g id="a_edge20_Node000014_Node000003"><a xlink:title=" ">
<path fill="none" stroke="#63b8ff" d="M232.4,-115.79C238.35,-97.46 252.02,-55.28 260.13,-30.26"/>
<polygon fill="#63b8ff" stroke="#63b8ff" points="263.39,-31.57 263.14,-20.98 256.73,-29.41 263.39,-31.57"/>
</a>
</g>
</g>
</g>
</svg>

<g id="navigator" transform="translate(0 0)" fill="#404254">
  <rect fill="#f2f5e9" fill-opacity="0.5" stroke="#606060" stroke-width=".5" x="0" y="0" width="60" height="60"/>
  <use id="zoomplus" xlink:href="#zoomPlus" x="17" y="9" onmousedown="handleZoom(evt,'in')"/>
  <use id="zoomminus" xlink:href="#zoomMin" x="42" y="9" onmousedown="handleZoom(evt,'out')"/>
  <use id="reset" xlink:href="#resetDef" x="30" y="36" onmousedown="handleReset()"/>
   <use id="arrowup" xlink:href="#arrowUp" x="0" y="0" onmousedown="handlePan(0,-1)"/>
  <use id="arrowright" xlink:href="#arrowRight" x="0" y="0" onmousedown="handlePan(1,0)"/>
  <use id="arrowdown" xlink:href="#arrowDown" x="0" y="0" onmousedown="handlePan(0,1)"/>
  <use id="arrowleft" xlink:href="#arrowLeft" x="0" y="0" onmousedown="handlePan(-1,0)"/>
</g>
<svg viewBox="0 0 15 15" width="100%" height="30px" preserveAspectRatio="xMaxYMin meet">
 <g id="arrow_out" transform="scale(0.3 0.3)">
  <a xlink:href="lcd_8c__incl_org.svg" target="_base">
   <rect id="button" ry="5" rx="5" y="6" x="6" height="38" width="38"
        fill="#f2f5e9" fill-opacity="0.5" stroke="#606060" stroke-width="1.0"/>
   <path id="arrow"
     d="M 11.500037,31.436501 C 11.940474,20.09759 22.043105,11.32322 32.158766,21.979434 L 37.068811,17.246167 C 37.068811,17.246167 37.088388,32 37.088388,32 L 22.160133,31.978069 C 22.160133,31.978069 26.997745,27.140456 26.997745,27.140456 C 18.528582,18.264221 13.291696,25.230495 11.500037,31.436501 z"
     style="fill:#404040;"/>
  </a>
 </g>
</svg>

<style type='text/css'>
<![CDATA[
[data-mouse-over-selected='false'] { opacity: 0.7; }
[data-mouse-over-selected='true']  { opacity: 1.0; }
]]>
</style>
<script type="application/ecmascript"><![CDATA[
document.addEventListener('DOMContentLoaded', (event) => {
  highlightEdges();
  highlightAdjacentNodes();
});
]]></script>
</svg>
