<?xml version="1.0" encoding="UTF-8" standalone="no"?>
<!DOCTYPE svg PUBLIC "-//W3C//DTD SVG 1.1//EN"
 "http://www.w3.org/Graphics/SVG/1.1/DTD/svg11.dtd">
<!-- Generated by graphviz version 12.2.0 (20241103.1931)
 -->
<!-- Title: MS_moveDown Pages: 1 -->
<!--zoomable 175 -->

<svg id="main" version="1.1" xmlns="http://www.w3.org/2000/svg" xmlns:xlink="http://www.w3.org/1999/xlink" xml:space="preserve" onload="init(evt)">

<style type="text/css"><![CDATA[
.node, .edge {opacity: 0.7;}
.node.selected, .edge.selected {opacity: 1;}
.edge:hover path { stroke: red; }
.edge:hover polygon { stroke: red; fill: red; }
]]></style>

<defs>
  <circle id="rim" cx="0" cy="0" r="7"/>
  <circle id="rim2" cx="0" cy="0" r="3.5"/>
  <g id="zoomPlus">
    <use xlink:href="#rim" fill="#404040"><set attributeName="fill" to="#808080" begin="zoomplus.mouseover" end="zoomplus.mouseout"/></use>
    <path d="M-4,0h8M0,-4v8" fill="none" stroke="white" stroke-width="1.5" pointer-events="none"/>
  </g>
  <g id="zoomMin">
    <use xlink:href="#rim" fill="#404040"><set attributeName="fill" to="#808080" begin="zoomminus.mouseover" end="zoomminus.mouseout"/></use>
    <path d="M-4,0h8" fill="none" stroke="white" stroke-width="1.5" pointer-events="none"/>
  </g>
  <g id="arrowUp" transform="translate(30 24)">
    <use xlink:href="#rim"/>
    <path pointer-events="none" fill="none" stroke="white" stroke-width="1.5" d="M0,-3.0v7 M-2.5,-0.5L0,-3.0L2.5,-0.5"/>
  </g>
  <g id="arrowRight" transform="rotate(90) translate(36 -43)">
    <use xlink:href="#rim"/>
    <path pointer-events="none" fill="none" stroke="white" stroke-width="1.5" d="M0,-3.0v7 M-2.5,-0.5L0,-3.0L2.5,-0.5"/>
  </g>
  <g id="arrowDown" transform="rotate(180) translate(-30 -48)">
    <use xlink:href="#rim"/>
    <path pointer-events="none" fill="none" stroke="white" stroke-width="1.5" d="M0,-3.0v7 M-2.5,-0.5L0,-3.0L2.5,-0.5"/>
  </g>
  <g id="arrowLeft" transform="rotate(270) translate(-36 17)">
    <use xlink:href="#rim"/>
    <path pointer-events="none" fill="none" stroke="white" stroke-width="1.5" d="M0,-3.0v7 M-2.5,-0.5L0,-3.0L2.5,-0.5"/>
  </g>
  <g id="resetDef">
    <use xlink:href="#rim2" fill="#404040"><set attributeName="fill" to="#808080" begin="reset.mouseover" end="reset.mouseout"/></use>
  </g>
</defs>
<script type="application/ecmascript">
var viewWidth = 663;
var viewHeight = 175;
var sectionId = 'dynsection-5';
</script>
<script type="application/ecmascript" xlink:href="svg.min.js"/>
<svg id="graph" class="graph">
<g id="viewport">
<title>MS_moveDown</title>
<!-- Node1 -->
<g id="Node000001" class="node">
<title>Node1</title>
<g id="a_Node000001"><a xlink:title="Moves menu selection down or increments selected element value.">
<polygon fill="#999999" stroke="#666666" points="85,-57.25 0,-57.25 0,-38 85,-38 85,-57.25"/>
<text text-anchor="middle" x="42.5" y="-43.75" font-family="Helvetica,sans-Serif" font-size="10.00">MS_moveDown</text>
</a>
</g>
</g>
<!-- Node2 -->
<g id="Node000002" class="node">
<title>Node2</title>
<g id="a_Node000002"><a xlink:href="menu__system_8c.html#a28391906e0d6d059553293e1e2e6e7f4" target="_top" xlink:title="Decrements the value of a menu element and updates its display.">
<polygon fill="white" stroke="#666666" points="227.75,-95.25 121,-95.25 121,-76 227.75,-76 227.75,-95.25"/>
<text text-anchor="middle" x="174.38" y="-81.75" font-family="Helvetica,sans-Serif" font-size="10.00">MS_decrementValue</text>
</a>
</g>
</g>
<!-- Node1&#45;&gt;Node2 -->
<g id="edge1_Node000001_Node000002" class="edge">
<title>Node1&#45;&gt;Node2</title>
<g id="a_edge1_Node000001_Node000002"><a xlink:title=" ">
<path fill="none" stroke="#63b8ff" d="M77.96,-57.71C93.35,-62.21 111.69,-67.58 128.16,-72.39"/>
<polygon fill="#63b8ff" stroke="#63b8ff" points="127.17,-75.75 137.75,-75.2 129.13,-69.03 127.17,-75.75"/>
</a>
</g>
</g>
<!-- Node9 -->
<g id="Node000009" class="node">
<title>Node9</title>
<g id="a_Node000009"><a xlink:href="menu__system_8c.html#a7645a0be2314be1c0a9117b4b34b4ed3" target="_top" xlink:title="Applies hover styling effect to a menu element.">
<polygon fill="white" stroke="#666666" points="374.25,-56.25 276.5,-56.25 276.5,-37 374.25,-37 374.25,-56.25"/>
<text text-anchor="middle" x="325.38" y="-42.75" font-family="Helvetica,sans-Serif" font-size="10.00">MS_setStyleHover</text>
</a>
</g>
</g>
<!-- Node1&#45;&gt;Node9 -->
<g id="edge12_Node000001_Node000009" class="edge">
<title>Node1&#45;&gt;Node9</title>
<g id="a_edge12_Node000001_Node000009"><a xlink:title=" ">
<path fill="none" stroke="#63b8ff" d="M85.25,-47.48C132.8,-47.31 210.88,-47.03 264.81,-46.84"/>
<polygon fill="#63b8ff" stroke="#63b8ff" points="264.77,-50.34 274.76,-46.8 264.75,-43.34 264.77,-50.34"/>
</a>
</g>
</g>
<!-- Node12 -->
<g id="Node000012" class="node">
<title>Node12</title>
<g id="a_Node000012"><a xlink:href="menu__system_8c.html#a52e23759a2403de35a5610f96cae0cd0" target="_top" xlink:title="Applies normal (default) styling to a menu element.">
<polygon fill="white" stroke="#666666" points="376.88,-19.25 273.88,-19.25 273.88,0 376.88,0 376.88,-19.25"/>
<text text-anchor="middle" x="325.38" y="-5.75" font-family="Helvetica,sans-Serif" font-size="10.00">MS_setStyleNormal</text>
</a>
</g>
</g>
<!-- Node1&#45;&gt;Node12 -->
<g id="edge19_Node000001_Node000012" class="edge">
<title>Node1&#45;&gt;Node12</title>
<g id="a_edge19_Node000001_Node000012"><a xlink:title=" ">
<path fill="none" stroke="#63b8ff" d="M85.25,-41.98C132.19,-35.63 208.87,-25.25 262.71,-17.97"/>
<polygon fill="#63b8ff" stroke="#63b8ff" points="262.89,-21.47 272.34,-16.67 261.96,-14.54 262.89,-21.47"/>
</a>
</g>
</g>
<!-- Node3 -->
<g id="Node000003" class="node">
<title>Node3</title>
<g id="a_Node000003"><a xlink:href="menu__system_8c.html#a0e536353f8e34a992b1070bcf883320b" target="_top" xlink:title=" ">
<polygon fill="white" stroke="#666666" points="387,-132.25 263.75,-132.25 263.75,-113 387,-113 387,-132.25"/>
<text text-anchor="middle" x="325.38" y="-118.75" font-family="Helvetica,sans-Serif" font-size="10.00">MS_renderValueElement</text>
</a>
</g>
</g>
<!-- Node2&#45;&gt;Node3 -->
<g id="edge2_Node000002_Node000003" class="edge">
<title>Node2&#45;&gt;Node3</title>
<g id="a_edge2_Node000002_Node000003"><a xlink:title=" ">
<path fill="none" stroke="#63b8ff" d="M216.09,-95.74C233.58,-100.08 254.23,-105.21 272.78,-109.81"/>
<polygon fill="#63b8ff" stroke="#63b8ff" points="271.69,-113.15 282.24,-112.16 273.38,-106.36 271.69,-113.15"/>
</a>
</g>
</g>
<!-- Node8 -->
<g id="Node000008" class="node">
<title>Node8</title>
<g id="a_Node000008"><a xlink:href="nextion_8c.html#ac7e3e9fc4674d17281069e97b8a5384d" target="_top" xlink:title="Sets a value to a specified object on the Nextion display.">
<polygon fill="white" stroke="#666666" points="521.88,-93.25 442.12,-93.25 442.12,-74 521.88,-74 521.88,-93.25"/>
<text text-anchor="middle" x="482" y="-79.75" font-family="Helvetica,sans-Serif" font-size="10.00">NXT_setValue</text>
</a>
</g>
</g>
<!-- Node2&#45;&gt;Node8 -->
<g id="edge9_Node000002_Node000008" class="edge">
<title>Node2&#45;&gt;Node8</title>
<g id="a_edge9_Node000002_Node000008"><a xlink:title=" ">
<path fill="none" stroke="#63b8ff" d="M227.91,-85.28C284.64,-84.91 374.36,-84.32 430.34,-83.96"/>
<polygon fill="#63b8ff" stroke="#63b8ff" points="430.26,-87.46 440.24,-83.89 430.22,-80.46 430.26,-87.46"/>
</a>
</g>
</g>
<!-- Node4 -->
<g id="Node000004" class="node">
<title>Node4</title>
<g id="a_Node000004"><a xlink:href="nextion_8c.html#ab2a89fd8e292338a6e570a41a698ad3a" target="_top" xlink:title="Sets the text of a Nextion display object.">
<polygon fill="white" stroke="#666666" points="518.88,-130.25 445.12,-130.25 445.12,-111 518.88,-111 518.88,-130.25"/>
<text text-anchor="middle" x="482" y="-116.75" font-family="Helvetica,sans-Serif" font-size="10.00">NXT_setText</text>
</a>
</g>
</g>
<!-- Node3&#45;&gt;Node4 -->
<g id="edge3_Node000003_Node000004" class="edge">
<title>Node3&#45;&gt;Node4</title>
<g id="a_edge3_Node000003_Node000004"><a xlink:title=" ">
<path fill="none" stroke="#63b8ff" d="M387.49,-121.83C402.81,-121.64 419.02,-121.43 433.56,-121.24"/>
<polygon fill="#63b8ff" stroke="#63b8ff" points="433.35,-124.74 443.3,-121.11 433.26,-117.74 433.35,-124.74"/>
</a>
</g>
</g>
<!-- Node7 -->
<g id="Node000007" class="node">
<title>Node7</title>
<g id="a_Node000007"><a xlink:href="nextion_8c.html#a8af8629d8160abf996231ff267e43564" target="_top" xlink:title="Sets the text of a Nextion display object using printf&#45;style formatting.">
<polygon fill="white" stroke="#666666" points="541,-167.25 423,-167.25 423,-148 541,-148 541,-167.25"/>
<text text-anchor="middle" x="482" y="-153.75" font-family="Helvetica,sans-Serif" font-size="10.00">NXT_setTextFormatted</text>
</a>
</g>
</g>
<!-- Node3&#45;&gt;Node7 -->
<g id="edge6_Node000003_Node000007" class="edge">
<title>Node3&#45;&gt;Node7</title>
<g id="a_edge6_Node000003_Node000007"><a xlink:title=" ">
<path fill="none" stroke="#63b8ff" d="M371.1,-132.75C388.01,-136.58 407.46,-140.98 425.26,-145.01"/>
<polygon fill="#63b8ff" stroke="#63b8ff" points="424.37,-148.4 434.9,-147.19 425.92,-141.57 424.37,-148.4"/>
</a>
</g>
</g>
<!-- Node5 -->
<g id="Node000005" class="node">
<title>Node5</title>
<g id="a_Node000005"><a xlink:href="strbuf_8c.html#a15380dc153a462b38a9b54f274c9c3b5" target="_top" xlink:title="Appends raw data to the buffer. If the data exceeds the buffer size, no data is appended.">
<polygon fill="white" stroke="#666666" points="654.5,-111.25 577,-111.25 577,-92 654.5,-92 654.5,-111.25"/>
<text text-anchor="middle" x="615.75" y="-97.75" font-family="Helvetica,sans-Serif" font-size="10.00">strbuf_append</text>
</a>
</g>
</g>
<!-- Node4&#45;&gt;Node5 -->
<g id="edge4_Node000004_Node000005" class="edge">
<title>Node4&#45;&gt;Node5</title>
<g id="a_edge4_Node000004_Node000005"><a xlink:title=" ">
<path fill="none" stroke="#63b8ff" d="M519.35,-115.38C533.55,-113.33 550.06,-110.95 565.32,-108.75"/>
<polygon fill="#63b8ff" stroke="#63b8ff" points="565.78,-112.22 575.18,-107.33 564.78,-105.29 565.78,-112.22"/>
</a>
</g>
</g>
<!-- Node6 -->
<g id="Node000006" class="node">
<title>Node6</title>
<g id="a_Node000006"><a xlink:href="strbuf_8c.html#a52ce36e86451c208f1846411e1f67dcf" target="_top" xlink:title="Appends formatted data to the buffer using printf&#45;style formatting. !">
<polygon fill="white" stroke="#666666" points="649.62,-74.25 581.88,-74.25 581.88,-55 649.62,-55 649.62,-74.25"/>
<text text-anchor="middle" x="615.75" y="-60.75" font-family="Helvetica,sans-Serif" font-size="10.00">strbuf_printf</text>
</a>
</g>
</g>
<!-- Node4&#45;&gt;Node6 -->
<g id="edge5_Node000004_Node000006" class="edge">
<title>Node4&#45;&gt;Node6</title>
<g id="a_edge5_Node000004_Node000006"><a xlink:title=" ">
<path fill="none" stroke="#63b8ff" d="M519.31,-110.62C526.59,-108.26 534.12,-105.57 541,-102.62 557.83,-95.43 560.73,-91.01 577,-82.62 578.94,-81.63 580.94,-80.62 582.96,-79.61"/>
<polygon fill="#63b8ff" stroke="#63b8ff" points="584.26,-82.87 591.72,-75.34 581.19,-76.58 584.26,-82.87"/>
</a>
</g>
</g>
<!-- Node7&#45;&gt;Node5 -->
<g id="edge7_Node000007_Node000005" class="edge">
<title>Node7&#45;&gt;Node5</title>
<g id="a_edge7_Node000007_Node000005"><a xlink:title=" ">
<path fill="none" stroke="#63b8ff" d="M518.93,-147.55C526.31,-145.18 533.97,-142.5 541,-139.62 556.83,-133.15 573.84,-124.51 587.53,-117.1"/>
<polygon fill="#63b8ff" stroke="#63b8ff" points="588.88,-120.35 595.95,-112.46 585.5,-114.22 588.88,-120.35"/>
</a>
</g>
</g>
<!-- Node7&#45;&gt;Node6 -->
<g id="edge8_Node000007_Node000006" class="edge">
<title>Node7&#45;&gt;Node6</title>
<g id="a_edge8_Node000007_Node000006"><a xlink:title=" ">
<path fill="none" stroke="#63b8ff" d="M527.4,-147.52C532.25,-145.37 536.9,-142.77 541,-139.62 564.78,-121.39 554.6,-102.52 577,-82.62 577.76,-81.95 578.55,-81.3 579.36,-80.66"/>
<polygon fill="#63b8ff" stroke="#63b8ff" points="580.98,-83.78 587.49,-75.43 577.19,-77.9 580.98,-83.78"/>
</a>
</g>
</g>
<!-- Node8&#45;&gt;Node5 -->
<g id="edge10_Node000008_Node000005" class="edge">
<title>Node8&#45;&gt;Node5</title>
<g id="a_edge10_Node000008_Node000005"><a xlink:title=" ">
<path fill="none" stroke="#63b8ff" d="M522.17,-88.98C535.82,-90.84 551.31,-92.96 565.65,-94.92"/>
<polygon fill="#63b8ff" stroke="#63b8ff" points="564.98,-98.36 575.36,-96.24 565.93,-91.42 564.98,-98.36"/>
</a>
</g>
</g>
<!-- Node8&#45;&gt;Node6 -->
<g id="edge11_Node000008_Node000006" class="edge">
<title>Node8&#45;&gt;Node6</title>
<g id="a_edge11_Node000008_Node000006"><a xlink:title=" ">
<path fill="none" stroke="#63b8ff" d="M522.17,-77.98C537.43,-75.78 554.99,-73.24 570.69,-70.98"/>
<polygon fill="#63b8ff" stroke="#63b8ff" points="570.83,-74.49 580.23,-69.6 569.84,-67.57 570.83,-74.49"/>
</a>
</g>
</g>
<!-- Node10 -->
<g id="Node000010" class="node">
<title>Node10</title>
<g id="a_Node000010"><a xlink:href="nextion_8c.html#a19c3df8972af2eaea366cb65fad34d43" target="_top" xlink:title="Sets the background color of a specified object on the Nextion display.">
<polygon fill="white" stroke="#666666" points="535.38,-19.25 428.62,-19.25 428.62,0 535.38,0 535.38,-19.25"/>
<text text-anchor="middle" x="482" y="-5.75" font-family="Helvetica,sans-Serif" font-size="10.00">NXT_setBackground</text>
</a>
</g>
</g>
<!-- Node9&#45;&gt;Node10 -->
<g id="edge13_Node000009_Node000010" class="edge">
<title>Node9&#45;&gt;Node10</title>
<g id="a_edge13_Node000009_Node000010"><a xlink:title=" ">
<path fill="none" stroke="#63b8ff" d="M368.63,-36.51C386.87,-32.15 408.41,-27 427.72,-22.37"/>
<polygon fill="#63b8ff" stroke="#63b8ff" points="428.42,-25.81 437.33,-20.08 426.79,-19 428.42,-25.81"/>
</a>
</g>
</g>
<!-- Node11 -->
<g id="Node000011" class="node">
<title>Node11</title>
<g id="a_Node000011"><a xlink:href="nextion_8c.html#ae995d182561a5fa3087569539bb551d2" target="_top" xlink:title="Sets the border width of a specified object on the Nextion display.">
<polygon fill="white" stroke="#666666" points="536.12,-56.25 427.88,-56.25 427.88,-37 536.12,-37 536.12,-56.25"/>
<text text-anchor="middle" x="482" y="-42.75" font-family="Helvetica,sans-Serif" font-size="10.00">NXT_setBorderWidth</text>
</a>
</g>
</g>
<!-- Node9&#45;&gt;Node11 -->
<g id="edge16_Node000009_Node000011" class="edge">
<title>Node9&#45;&gt;Node11</title>
<g id="a_edge16_Node000009_Node000011"><a xlink:title=" ">
<path fill="none" stroke="#63b8ff" d="M374.45,-46.62C387.74,-46.62 402.39,-46.62 416.45,-46.62"/>
<polygon fill="#63b8ff" stroke="#63b8ff" points="416.05,-50.13 426.05,-46.63 416.05,-43.13 416.05,-50.13"/>
</a>
</g>
</g>
<!-- Node10&#45;&gt;Node5 -->
<g id="edge14_Node000010_Node000005" class="edge">
<title>Node10&#45;&gt;Node5</title>
<g id="a_edge14_Node000010_Node000005"><a xlink:title=" ">
<path fill="none" stroke="#63b8ff" d="M527.08,-19.63C532.03,-21.8 536.8,-24.43 541,-27.62 564.55,-45.54 554.8,-64.07 577,-83.62 577.76,-84.3 578.55,-84.95 579.37,-85.58"/>
<polygon fill="#63b8ff" stroke="#63b8ff" points="577.2,-88.35 587.51,-90.8 580.98,-82.46 577.2,-88.35"/>
</a>
</g>
</g>
<!-- Node10&#45;&gt;Node6 -->
<g id="edge15_Node000010_Node000006" class="edge">
<title>Node10&#45;&gt;Node6</title>
<g id="a_edge15_Node000010_Node000006"><a xlink:title=" ">
<path fill="none" stroke="#63b8ff" d="M518.6,-19.66C526.08,-22.05 533.86,-24.75 541,-27.62 556.52,-33.88 573.22,-42.12 586.81,-49.25"/>
<polygon fill="#63b8ff" stroke="#63b8ff" points="585.14,-52.32 595.61,-53.94 588.44,-46.15 585.14,-52.32"/>
</a>
</g>
</g>
<!-- Node11&#45;&gt;Node5 -->
<g id="edge17_Node000011_Node000005" class="edge">
<title>Node11&#45;&gt;Node5</title>
<g id="a_edge17_Node000011_Node000005"><a xlink:title=" ">
<path fill="none" stroke="#63b8ff" d="M519.26,-56.75C526.55,-59.09 534.09,-61.76 541,-64.62 557.71,-71.56 560.83,-75.51 577,-83.62 579.08,-84.67 581.23,-85.73 583.4,-86.8"/>
<polygon fill="#63b8ff" stroke="#63b8ff" points="581.62,-89.83 592.15,-91.03 584.67,-83.52 581.62,-89.83"/>
</a>
</g>
</g>
<!-- Node11&#45;&gt;Node6 -->
<g id="edge18_Node000011_Node000006" class="edge">
<title>Node11&#45;&gt;Node6</title>
<g id="a_edge18_Node000011_Node000006"><a xlink:title=" ">
<path fill="none" stroke="#63b8ff" d="M536.59,-53.95C547.78,-55.48 559.47,-57.07 570.29,-58.55"/>
<polygon fill="#63b8ff" stroke="#63b8ff" points="569.75,-62.01 580.13,-59.9 570.7,-55.07 569.75,-62.01"/>
</a>
</g>
</g>
<!-- Node12&#45;&gt;Node10 -->
<g id="edge20_Node000012_Node000010" class="edge">
<title>Node12&#45;&gt;Node10</title>
<g id="a_edge20_Node000012_Node000010"><a xlink:title=" ">
<path fill="none" stroke="#63b8ff" d="M377.01,-9.62C389.68,-9.62 403.44,-9.62 416.67,-9.62"/>
<polygon fill="#63b8ff" stroke="#63b8ff" points="416.62,-13.13 426.62,-9.63 416.62,-6.13 416.62,-13.13"/>
</a>
</g>
</g>
<!-- Node12&#45;&gt;Node11 -->
<g id="edge21_Node000012_Node000011" class="edge">
<title>Node12&#45;&gt;Node11</title>
<g id="a_edge21_Node000012_Node000011"><a xlink:title=" ">
<path fill="none" stroke="#63b8ff" d="M368.63,-19.74C386.87,-24.1 408.41,-29.25 427.72,-33.88"/>
<polygon fill="#63b8ff" stroke="#63b8ff" points="426.79,-37.25 437.33,-36.17 428.42,-30.44 426.79,-37.25"/>
</a>
</g>
</g>
</g>
</svg>

<g id="navigator" transform="translate(0 0)" fill="#404254">
  <rect fill="#f2f5e9" fill-opacity="0.5" stroke="#606060" stroke-width=".5" x="0" y="0" width="60" height="60"/>
  <use id="zoomplus" xlink:href="#zoomPlus" x="17" y="9" onmousedown="handleZoom(evt,'in')"/>
  <use id="zoomminus" xlink:href="#zoomMin" x="42" y="9" onmousedown="handleZoom(evt,'out')"/>
  <use id="reset" xlink:href="#resetDef" x="30" y="36" onmousedown="handleReset()"/>
   <use id="arrowup" xlink:href="#arrowUp" x="0" y="0" onmousedown="handlePan(0,-1)"/>
  <use id="arrowright" xlink:href="#arrowRight" x="0" y="0" onmousedown="handlePan(1,0)"/>
  <use id="arrowdown" xlink:href="#arrowDown" x="0" y="0" onmousedown="handlePan(0,1)"/>
  <use id="arrowleft" xlink:href="#arrowLeft" x="0" y="0" onmousedown="handlePan(-1,0)"/>
</g>
<svg viewBox="0 0 15 15" width="100%" height="30px" preserveAspectRatio="xMaxYMin meet">
 <g id="arrow_out" transform="scale(0.3 0.3)">
  <a xlink:href="menu__system_8c_a7e670c0b8fc296a5cb8e5e5f340e508c_cgraph_org.svg" target="_base">
   <rect id="button" ry="5" rx="5" y="6" x="6" height="38" width="38"
        fill="#f2f5e9" fill-opacity="0.5" stroke="#606060" stroke-width="1.0"/>
   <path id="arrow"
     d="M 11.500037,31.436501 C 11.940474,20.09759 22.043105,11.32322 32.158766,21.979434 L 37.068811,17.246167 C 37.068811,17.246167 37.088388,32 37.088388,32 L 22.160133,31.978069 C 22.160133,31.978069 26.997745,27.140456 26.997745,27.140456 C 18.528582,18.264221 13.291696,25.230495 11.500037,31.436501 z"
     style="fill:#404040;"/>
  </a>
 </g>
</svg>

<style type='text/css'>
<![CDATA[
[data-mouse-over-selected='false'] { opacity: 0.7; }
[data-mouse-over-selected='true']  { opacity: 1.0; }
]]>
</style>
<script type="application/ecmascript"><![CDATA[
document.addEventListener('DOMContentLoaded', (event) => {
  highlightEdges();
  highlightAdjacentNodes();
});
]]></script>
</svg>
