<?xml version="1.0" encoding="UTF-8" standalone="no"?>
<!DOCTYPE svg PUBLIC "-//W3C//DTD SVG 1.1//EN"
 "http://www.w3.org/Graphics/SVG/1.1/DTD/svg11.dtd">
<!-- Generated by graphviz version 12.2.0 (20241103.1931)
 -->
<!-- Title: NXT_setBorderWidth Pages: 1 -->
<!--zoomable 286 -->

<svg id="main" version="1.1" xmlns="http://www.w3.org/2000/svg" xmlns:xlink="http://www.w3.org/1999/xlink" xml:space="preserve" onload="init(evt)">

<style type="text/css"><![CDATA[
.node, .edge {opacity: 0.7;}
.node.selected, .edge.selected {opacity: 1;}
.edge:hover path { stroke: red; }
.edge:hover polygon { stroke: red; fill: red; }
]]></style>

<defs>
  <circle id="rim" cx="0" cy="0" r="7"/>
  <circle id="rim2" cx="0" cy="0" r="3.5"/>
  <g id="zoomPlus">
    <use xlink:href="#rim" fill="#404040"><set attributeName="fill" to="#808080" begin="zoomplus.mouseover" end="zoomplus.mouseout"/></use>
    <path d="M-4,0h8M0,-4v8" fill="none" stroke="white" stroke-width="1.5" pointer-events="none"/>
  </g>
  <g id="zoomMin">
    <use xlink:href="#rim" fill="#404040"><set attributeName="fill" to="#808080" begin="zoomminus.mouseover" end="zoomminus.mouseout"/></use>
    <path d="M-4,0h8" fill="none" stroke="white" stroke-width="1.5" pointer-events="none"/>
  </g>
  <g id="arrowUp" transform="translate(30 24)">
    <use xlink:href="#rim"/>
    <path pointer-events="none" fill="none" stroke="white" stroke-width="1.5" d="M0,-3.0v7 M-2.5,-0.5L0,-3.0L2.5,-0.5"/>
  </g>
  <g id="arrowRight" transform="rotate(90) translate(36 -43)">
    <use xlink:href="#rim"/>
    <path pointer-events="none" fill="none" stroke="white" stroke-width="1.5" d="M0,-3.0v7 M-2.5,-0.5L0,-3.0L2.5,-0.5"/>
  </g>
  <g id="arrowDown" transform="rotate(180) translate(-30 -48)">
    <use xlink:href="#rim"/>
    <path pointer-events="none" fill="none" stroke="white" stroke-width="1.5" d="M0,-3.0v7 M-2.5,-0.5L0,-3.0L2.5,-0.5"/>
  </g>
  <g id="arrowLeft" transform="rotate(270) translate(-36 17)">
    <use xlink:href="#rim"/>
    <path pointer-events="none" fill="none" stroke="white" stroke-width="1.5" d="M0,-3.0v7 M-2.5,-0.5L0,-3.0L2.5,-0.5"/>
  </g>
  <g id="resetDef">
    <use xlink:href="#rim2" fill="#404040"><set attributeName="fill" to="#808080" begin="reset.mouseover" end="reset.mouseout"/></use>
  </g>
</defs>
<script type="application/ecmascript">
var viewWidth = 521;
var viewHeight = 286;
var sectionId = 'dynsection-9';
</script>
<script type="application/ecmascript" xlink:href="svg.min.js"/>
<svg id="graph" class="graph">
<g id="viewport">
<title>NXT_setBorderWidth</title>
<!-- Node1 -->
<g id="Node000001" class="node">
<title>Node1</title>
<g id="a_Node000001"><a xlink:title="Sets the border width of a specified object on the Nextion display.">
<polygon fill="#999999" stroke="#666666" points="512.5,-157.25 404.25,-157.25 404.25,-138 512.5,-138 512.5,-157.25"/>
<text text-anchor="middle" x="458.38" y="-143.75" font-family="Helvetica,sans-Serif" font-size="10.00">NXT_setBorderWidth</text>
</a>
</g>
</g>
<!-- Node2 -->
<g id="Node000002" class="node">
<title>Node2</title>
<g id="a_Node000002"><a xlink:href="menu__system_8c.html#a7645a0be2314be1c0a9117b4b34b4ed3" target="_top" xlink:title="Applies hover styling effect to a menu element.">
<polygon fill="white" stroke="#666666" points="362.25,-157.25 264.5,-157.25 264.5,-138 362.25,-138 362.25,-157.25"/>
<text text-anchor="middle" x="313.38" y="-143.75" font-family="Helvetica,sans-Serif" font-size="10.00">MS_setStyleHover</text>
</a>
</g>
</g>
<!-- Node1&#45;&gt;Node2 -->
<g id="edge1_Node000001_Node000002" class="edge">
<title>Node1&#45;&gt;Node2</title>
<g id="a_edge1_Node000001_Node000002"><a xlink:title=" ">
<path fill="none" stroke="#63b8ff" d="M392.75,-147.62C382.57,-147.62 372.2,-147.62 362.48,-147.62"/>
<polygon fill="#63b8ff" stroke="#63b8ff" points="392.61,-151.13 402.61,-147.63 392.61,-144.13 392.61,-151.13"/>
</a>
</g>
</g>
<!-- Node12 -->
<g id="Node000012" class="node">
<title>Node12</title>
<g id="a_Node000012"><a xlink:href="menu__system_8c.html#a52e23759a2403de35a5610f96cae0cd0" target="_top" xlink:title="Applies normal (default) styling to a menu element.">
<polygon fill="white" stroke="#666666" points="364.88,-194.25 261.88,-194.25 261.88,-175 364.88,-175 364.88,-194.25"/>
<text text-anchor="middle" x="313.38" y="-180.75" font-family="Helvetica,sans-Serif" font-size="10.00">MS_setStyleNormal</text>
</a>
</g>
</g>
<!-- Node1&#45;&gt;Node12 -->
<g id="edge11_Node000001_Node000012" class="edge">
<title>Node1&#45;&gt;Node12</title>
<g id="a_edge11_Node000001_Node000012"><a xlink:title=" ">
<path fill="none" stroke="#63b8ff" d="M407.3,-160.58C389.63,-165.15 370.03,-170.23 353.4,-174.53"/>
<polygon fill="#63b8ff" stroke="#63b8ff" points="408.03,-164.01 416.83,-158.11 406.28,-157.23 408.03,-164.01"/>
</a>
</g>
</g>
<!-- Node13 -->
<g id="Node000013" class="node">
<title>Node13</title>
<g id="a_Node000013"><a xlink:href="menu__system_8c.html#a6173507fa7b7cf81afec896f80300c9a" target="_top" xlink:title="Applies selected state styling to a menu element.">
<polygon fill="white" stroke="#666666" points="368.25,-120.25 258.5,-120.25 258.5,-101 368.25,-101 368.25,-120.25"/>
<text text-anchor="middle" x="313.38" y="-106.75" font-family="Helvetica,sans-Serif" font-size="10.00">MS_setStyleSelected</text>
</a>
</g>
</g>
<!-- Node1&#45;&gt;Node13 -->
<g id="edge15_Node000001_Node000013" class="edge">
<title>Node1&#45;&gt;Node13</title>
<g id="a_edge15_Node000001_Node000013"><a xlink:title=" ">
<path fill="none" stroke="#63b8ff" d="M407.3,-134.67C389.63,-130.1 370.03,-125.02 353.4,-120.72"/>
<polygon fill="#63b8ff" stroke="#63b8ff" points="406.28,-138.02 416.83,-137.14 408.03,-131.24 406.28,-138.02"/>
</a>
</g>
</g>
<!-- Node3 -->
<g id="Node000003" class="node">
<title>Node3</title>
<g id="a_Node000003"><a xlink:href="menu__system_8c.html#a7e670c0b8fc296a5cb8e5e5f340e508c" target="_top" xlink:title="Moves menu selection down or increments selected element value.">
<polygon fill="white" stroke="#666666" points="220.62,-231.25 135.62,-231.25 135.62,-212 220.62,-212 220.62,-231.25"/>
<text text-anchor="middle" x="178.12" y="-217.75" font-family="Helvetica,sans-Serif" font-size="10.00">MS_moveDown</text>
</a>
</g>
</g>
<!-- Node2&#45;&gt;Node3 -->
<g id="edge2_Node000002_Node000003" class="edge">
<title>Node2&#45;&gt;Node3</title>
<g id="a_edge2_Node000002_Node000003"><a xlink:title=" ">
<path fill="none" stroke="#63b8ff" d="M265.78,-162C263.28,-163.14 260.84,-164.35 258.5,-165.62 240.47,-175.48 239.25,-182.73 222.5,-194.62 214.11,-200.58 204.42,-206.68 196.33,-211.58"/>
<polygon fill="#63b8ff" stroke="#63b8ff" points="266.94,-165.31 274.86,-158.28 264.28,-158.83 266.94,-165.31"/>
</a>
</g>
</g>
<!-- Node6 -->
<g id="Node000006" class="node">
<title>Node6</title>
<g id="a_Node000006"><a xlink:href="menu__system_8c.html#abb6e83f43c566270750060807da99fa4" target="_top" xlink:title="Moves menu selection up or increments selected element value.">
<polygon fill="white" stroke="#666666" points="214.62,-185.25 141.62,-185.25 141.62,-166 214.62,-166 214.62,-185.25"/>
<text text-anchor="middle" x="178.12" y="-171.75" font-family="Helvetica,sans-Serif" font-size="10.00">MS_moveUp</text>
</a>
</g>
</g>
<!-- Node2&#45;&gt;Node6 -->
<g id="edge5_Node000002_Node000006" class="edge">
<title>Node2&#45;&gt;Node6</title>
<g id="a_edge5_Node000002_Node000006"><a xlink:title=" ">
<path fill="none" stroke="#63b8ff" d="M253.03,-160.1C240.07,-162.82 226.74,-165.62 215.03,-168.08"/>
<polygon fill="#63b8ff" stroke="#63b8ff" points="253.72,-163.53 262.79,-158.04 252.28,-156.68 253.72,-163.53"/>
</a>
</g>
</g>
<!-- Node9 -->
<g id="Node000009" class="node">
<title>Node9</title>
<g id="a_Node000009"><a xlink:href="menu__system_8c.html#a962aad262b004bf39deed9578941a89e" target="_top" xlink:title="Handles menu element selection and actions.">
<polygon fill="white" stroke="#666666" points="209.38,-130.25 146.88,-130.25 146.88,-111 209.38,-111 209.38,-130.25"/>
<text text-anchor="middle" x="178.12" y="-116.75" font-family="Helvetica,sans-Serif" font-size="10.00">MS_select</text>
</a>
</g>
</g>
<!-- Node2&#45;&gt;Node9 -->
<g id="edge8_Node000002_Node000009" class="edge">
<title>Node2&#45;&gt;Node9</title>
<g id="a_edge8_Node000002_Node000009"><a xlink:title=" ">
<path fill="none" stroke="#63b8ff" d="M252.99,-135.59C238.04,-132.56 222.61,-129.44 209.74,-126.83"/>
<polygon fill="#63b8ff" stroke="#63b8ff" points="252.29,-139.02 262.79,-137.58 253.68,-132.16 252.29,-139.02"/>
</a>
</g>
</g>
<!-- Node4 -->
<g id="Node000004" class="node">
<title>Node4</title>
<g id="a_Node000004"><a xlink:href="dashboard_2driver__interface_2pages_2faults_8c.html#afef112bb21f3e5c552adc3289ab4917c" target="_top" xlink:title=" ">
<polygon fill="white" stroke="#666666" points="97.75,-278.25 0,-278.25 0,-259 97.75,-259 97.75,-278.25"/>
<text text-anchor="middle" x="48.88" y="-264.75" font-family="Helvetica,sans-Serif" font-size="10.00">faults_move_down</text>
</a>
</g>
</g>
<!-- Node3&#45;&gt;Node4 -->
<g id="edge3_Node000003_Node000004" class="edge">
<title>Node3&#45;&gt;Node4</title>
<g id="a_edge3_Node000003_Node000004"><a xlink:title=" ">
<path fill="none" stroke="#63b8ff" d="M139.22,-235.63C119.26,-243 95.23,-251.87 77.13,-258.56"/>
<polygon fill="#63b8ff" stroke="#63b8ff" points="140.24,-238.98 148.41,-232.23 137.81,-232.41 140.24,-238.98"/>
</a>
</g>
</g>
<!-- Node5 -->
<g id="Node000005" class="node">
<title>Node5</title>
<g id="a_Node000005"><a xlink:href="vcu_8c.html#aa1e50b257477672961d3d089dd2531ed" target="_top" xlink:title=" ">
<polygon fill="white" stroke="#666666" points="93.62,-241.25 4.12,-241.25 4.12,-222 93.62,-222 93.62,-241.25"/>
<text text-anchor="middle" x="48.88" y="-227.75" font-family="Helvetica,sans-Serif" font-size="10.00">vcu_move_down</text>
</a>
</g>
</g>
<!-- Node3&#45;&gt;Node5 -->
<g id="edge4_Node000003_Node000005" class="edge">
<title>Node3&#45;&gt;Node5</title>
<g id="a_edge4_Node000003_Node000005"><a xlink:title=" ">
<path fill="none" stroke="#63b8ff" d="M124.25,-225.78C114.12,-226.58 103.63,-227.4 93.82,-228.17"/>
<polygon fill="#63b8ff" stroke="#63b8ff" points="124.25,-229.29 133.95,-225.02 123.71,-222.31 124.25,-229.29"/>
</a>
</g>
</g>
<!-- Node7 -->
<g id="Node000007" class="node">
<title>Node7</title>
<g id="a_Node000007"><a xlink:href="dashboard_2driver__interface_2pages_2faults_8c.html#ad62440d72002386384b8b569f3f1a280" target="_top" xlink:title=" ">
<polygon fill="white" stroke="#666666" points="91.38,-204.25 6.38,-204.25 6.38,-185 91.38,-185 91.38,-204.25"/>
<text text-anchor="middle" x="48.88" y="-190.75" font-family="Helvetica,sans-Serif" font-size="10.00">faults_move_up</text>
</a>
</g>
</g>
<!-- Node6&#45;&gt;Node7 -->
<g id="edge6_Node000006_Node000007" class="edge">
<title>Node6&#45;&gt;Node7</title>
<g id="a_edge6_Node000006_Node000007"><a xlink:title=" ">
<path fill="none" stroke="#63b8ff" d="M130.1,-182.65C117.51,-184.53 103.98,-186.55 91.69,-188.38"/>
<polygon fill="#63b8ff" stroke="#63b8ff" points="130.47,-186.13 139.84,-181.19 129.44,-179.21 130.47,-186.13"/>
</a>
</g>
</g>
<!-- Node8 -->
<g id="Node000008" class="node">
<title>Node8</title>
<g id="a_Node000008"><a xlink:href="vcu_8c.html#a7584d411418c72e61404ff410c27acc3" target="_top" xlink:title=" ">
<polygon fill="white" stroke="#666666" points="87.25,-167.25 10.5,-167.25 10.5,-148 87.25,-148 87.25,-167.25"/>
<text text-anchor="middle" x="48.88" y="-153.75" font-family="Helvetica,sans-Serif" font-size="10.00">vcu_move_up</text>
</a>
</g>
</g>
<!-- Node6&#45;&gt;Node8 -->
<g id="edge7_Node000006_Node000008" class="edge">
<title>Node6&#45;&gt;Node8</title>
<g id="a_edge7_Node000006_Node000008"><a xlink:title=" ">
<path fill="none" stroke="#63b8ff" d="M129.94,-168.95C115.98,-166.98 100.89,-164.84 87.61,-162.96"/>
<polygon fill="#63b8ff" stroke="#63b8ff" points="129.45,-172.42 139.84,-170.35 130.43,-165.48 129.45,-172.42"/>
</a>
</g>
</g>
<!-- Node10 -->
<g id="Node000010" class="node">
<title>Node10</title>
<g id="a_Node000010"><a xlink:href="dashboard_2driver__interface_2pages_2faults_8c.html#ae8a804b83e0e0eedd6b5a1436fb202ae" target="_top" xlink:title=" ">
<polygon fill="white" stroke="#666666" points="84.62,-130.25 13.12,-130.25 13.12,-111 84.62,-111 84.62,-130.25"/>
<text text-anchor="middle" x="48.88" y="-116.75" font-family="Helvetica,sans-Serif" font-size="10.00">faults_select</text>
</a>
</g>
</g>
<!-- Node9&#45;&gt;Node10 -->
<g id="edge9_Node000009_Node000010" class="edge">
<title>Node9&#45;&gt;Node10</title>
<g id="a_edge9_Node000009_Node000010"><a xlink:title=" ">
<path fill="none" stroke="#63b8ff" d="M135.26,-120.62C119.01,-120.62 100.61,-120.62 85.06,-120.62"/>
<polygon fill="#63b8ff" stroke="#63b8ff" points="135.13,-124.13 145.13,-120.63 135.13,-117.13 135.13,-124.13"/>
</a>
</g>
</g>
<!-- Node11 -->
<g id="Node000011" class="node">
<title>Node11</title>
<g id="a_Node000011"><a xlink:href="vcu_8c.html#afda974e4350e1dd0e7d778c1eb2178a9" target="_top" xlink:title=" ">
<polygon fill="white" stroke="#666666" points="80.5,-93.25 17.25,-93.25 17.25,-74 80.5,-74 80.5,-93.25"/>
<text text-anchor="middle" x="48.88" y="-79.75" font-family="Helvetica,sans-Serif" font-size="10.00">vcu_select</text>
</a>
</g>
</g>
<!-- Node9&#45;&gt;Node11 -->
<g id="edge10_Node000009_Node000011" class="edge">
<title>Node9&#45;&gt;Node11</title>
<g id="a_edge10_Node000009_Node000011"><a xlink:title=" ">
<path fill="none" stroke="#63b8ff" d="M135.69,-108.58C117.89,-103.4 97.46,-97.46 80.99,-92.67"/>
<polygon fill="#63b8ff" stroke="#63b8ff" points="134.61,-111.91 145.19,-111.34 136.57,-105.19 134.61,-111.91"/>
</a>
</g>
</g>
<!-- Node12&#45;&gt;Node3 -->
<g id="edge12_Node000012_Node000003" class="edge">
<title>Node12&#45;&gt;Node3</title>
<g id="a_edge12_Node000012_Node000003"><a xlink:title=" ">
<path fill="none" stroke="#63b8ff" d="M265.01,-197.78C248.73,-202.3 230.76,-207.29 215.49,-211.53"/>
<polygon fill="#63b8ff" stroke="#63b8ff" points="265.81,-201.19 274.51,-195.14 263.93,-194.44 265.81,-201.19"/>
</a>
</g>
</g>
<!-- Node12&#45;&gt;Node6 -->
<g id="edge13_Node000012_Node000006" class="edge">
<title>Node12&#45;&gt;Node6</title>
<g id="a_edge13_Node000012_Node000006"><a xlink:title=" ">
<path fill="none" stroke="#63b8ff" d="M250.5,-180.45C238.28,-179.62 225.84,-178.78 214.84,-178.04"/>
<polygon fill="#63b8ff" stroke="#63b8ff" points="249.9,-183.91 260.11,-181.09 250.37,-176.93 249.9,-183.91"/>
</a>
</g>
</g>
<!-- Node12&#45;&gt;Node9 -->
<g id="edge14_Node000012_Node000009" class="edge">
<title>Node12&#45;&gt;Node9</title>
<g id="a_edge14_Node000012_Node000009"><a xlink:title=" ">
<path fill="none" stroke="#63b8ff" d="M268.11,-170.65C264.82,-169.36 261.59,-168.02 258.5,-166.62 235.13,-156.08 209.76,-140.6 194.15,-130.57"/>
<polygon fill="#63b8ff" stroke="#63b8ff" points="266.62,-173.83 277.21,-174 269.04,-167.26 266.62,-173.83"/>
</a>
</g>
</g>
<!-- Node13&#45;&gt;Node9 -->
<g id="edge19_Node000013_Node000009" class="edge">
<title>Node13&#45;&gt;Node9</title>
<g id="a_edge19_Node000013_Node000009"><a xlink:title=" ">
<path fill="none" stroke="#63b8ff" d="M246.8,-115.55C233.78,-116.52 220.71,-117.5 209.57,-118.34"/>
<polygon fill="#63b8ff" stroke="#63b8ff" points="246.96,-119.04 256.67,-114.81 246.43,-112.06 246.96,-119.04"/>
</a>
</g>
</g>
<!-- Node14 -->
<g id="Node000014" class="node">
<title>Node14</title>
<g id="a_Node000014"><a xlink:href="menu__system_8c.html#aaaa431be258445ad9f1278c488a3f502" target="_top" xlink:title="Refreshes the menu page by resetting selection state and updating all elements.">
<polygon fill="white" stroke="#666666" points="222.5,-56.25 133.75,-56.25 133.75,-37 222.5,-37 222.5,-56.25"/>
<text text-anchor="middle" x="178.12" y="-42.75" font-family="Helvetica,sans-Serif" font-size="10.00">MS_refreshPage</text>
</a>
</g>
</g>
<!-- Node13&#45;&gt;Node14 -->
<g id="edge16_Node000013_Node000014" class="edge">
<title>Node13&#45;&gt;Node14</title>
<g id="a_edge16_Node000013_Node000014"><a xlink:title=" ">
<path fill="none" stroke="#63b8ff" d="M281.45,-95.77C256.35,-83.71 221.65,-67.05 199.8,-56.55"/>
<polygon fill="#63b8ff" stroke="#63b8ff" points="279.66,-98.8 290.19,-99.97 282.69,-92.49 279.66,-98.8"/>
</a>
</g>
</g>
<!-- Node15 -->
<g id="Node000015" class="node">
<title>Node15</title>
<g id="a_Node000015"><a xlink:href="dashboard_2driver__interface_2pages_2faults_8c.html#acaa4a1748f184b5a2c6bca42f8dfbf7a" target="_top" xlink:title=" ">
<polygon fill="white" stroke="#666666" points="86.12,-56.25 11.62,-56.25 11.62,-37 86.12,-37 86.12,-56.25"/>
<text text-anchor="middle" x="48.88" y="-42.75" font-family="Helvetica,sans-Serif" font-size="10.00">faults_update</text>
</a>
</g>
</g>
<!-- Node14&#45;&gt;Node15 -->
<g id="edge17_Node000014_Node000015" class="edge">
<title>Node14&#45;&gt;Node15</title>
<g id="a_edge17_Node000014_Node000015"><a xlink:title=" ">
<path fill="none" stroke="#63b8ff" d="M122.02,-46.62C110.03,-46.62 97.63,-46.62 86.56,-46.62"/>
<polygon fill="#63b8ff" stroke="#63b8ff" points="121.82,-50.13 131.82,-46.63 121.82,-43.13 121.82,-50.13"/>
</a>
</g>
</g>
<!-- Node16 -->
<g id="Node000016" class="node">
<title>Node16</title>
<g id="a_Node000016"><a xlink:href="vcu_8c.html#ad25ad6fc91aa0798a1862730aaef4452" target="_top" xlink:title=" ">
<polygon fill="white" stroke="#666666" points="82,-19.25 15.75,-19.25 15.75,0 82,0 82,-19.25"/>
<text text-anchor="middle" x="48.88" y="-5.75" font-family="Helvetica,sans-Serif" font-size="10.00">vcu_update</text>
</a>
</g>
</g>
<!-- Node14&#45;&gt;Node16 -->
<g id="edge18_Node000014_Node000016" class="edge">
<title>Node14&#45;&gt;Node16</title>
<g id="a_edge18_Node000014_Node000016"><a xlink:title=" ">
<path fill="none" stroke="#63b8ff" d="M131.45,-33.35C115.23,-28.63 97.32,-23.42 82.42,-19.09"/>
<polygon fill="#63b8ff" stroke="#63b8ff" points="130.32,-36.66 140.9,-36.09 132.27,-29.94 130.32,-36.66"/>
</a>
</g>
</g>
</g>
</svg>

<g id="navigator" transform="translate(0 0)" fill="#404254">
  <rect fill="#f2f5e9" fill-opacity="0.5" stroke="#606060" stroke-width=".5" x="0" y="0" width="60" height="60"/>
  <use id="zoomplus" xlink:href="#zoomPlus" x="17" y="9" onmousedown="handleZoom(evt,'in')"/>
  <use id="zoomminus" xlink:href="#zoomMin" x="42" y="9" onmousedown="handleZoom(evt,'out')"/>
  <use id="reset" xlink:href="#resetDef" x="30" y="36" onmousedown="handleReset()"/>
   <use id="arrowup" xlink:href="#arrowUp" x="0" y="0" onmousedown="handlePan(0,-1)"/>
  <use id="arrowright" xlink:href="#arrowRight" x="0" y="0" onmousedown="handlePan(1,0)"/>
  <use id="arrowdown" xlink:href="#arrowDown" x="0" y="0" onmousedown="handlePan(0,1)"/>
  <use id="arrowleft" xlink:href="#arrowLeft" x="0" y="0" onmousedown="handlePan(-1,0)"/>
</g>
<svg viewBox="0 0 15 15" width="100%" height="30px" preserveAspectRatio="xMaxYMin meet">
 <g id="arrow_out" transform="scale(0.3 0.3)">
  <a xlink:href="nextion_8h_ae995d182561a5fa3087569539bb551d2_icgraph_org.svg" target="_base">
   <rect id="button" ry="5" rx="5" y="6" x="6" height="38" width="38"
        fill="#f2f5e9" fill-opacity="0.5" stroke="#606060" stroke-width="1.0"/>
   <path id="arrow"
     d="M 11.500037,31.436501 C 11.940474,20.09759 22.043105,11.32322 32.158766,21.979434 L 37.068811,17.246167 C 37.068811,17.246167 37.088388,32 37.088388,32 L 22.160133,31.978069 C 22.160133,31.978069 26.997745,27.140456 26.997745,27.140456 C 18.528582,18.264221 13.291696,25.230495 11.500037,31.436501 z"
     style="fill:#404040;"/>
  </a>
 </g>
</svg>

<style type='text/css'>
<![CDATA[
[data-mouse-over-selected='false'] { opacity: 0.7; }
[data-mouse-over-selected='true']  { opacity: 1.0; }
]]>
</style>
<script type="application/ecmascript"><![CDATA[
document.addEventListener('DOMContentLoaded', (event) => {
  highlightEdges();
  highlightAdjacentNodes();
});
]]></script>
</svg>
