<?xml version="1.0" encoding="UTF-8" standalone="no"?>
<!DOCTYPE svg PUBLIC "-//W3C//DTD SVG 1.1//EN"
 "http://www.w3.org/Graphics/SVG/1.1/DTD/svg11.dtd">
<!-- Generated by graphviz version 12.2.0 (20241103.1931)
 -->
<!-- Title: PHAL_DMA_getChannelIdx Pages: 1 -->
<svg width="336pt" height="138pt"
 viewBox="0.00 0.00 336.25 138.25" xmlns="http://www.w3.org/2000/svg" xmlns:xlink="http://www.w3.org/1999/xlink">

<svg id="main" version="1.1" xmlns="http://www.w3.org/2000/svg" xmlns:xlink="http://www.w3.org/1999/xlink" xml:space="preserve">

<style type="text/css"><![CDATA[
.node, .edge {opacity: 0.7;}
.node.selected, .edge.selected {opacity: 1;}
.edge:hover path { stroke: red; }
.edge:hover polygon { stroke: red; fill: red; }
]]></style>
<script type="application/ecmascript" xlink:href="svg.min.js"/>
<svg id="graph" class="graph">
<g id="graph0" class="graph" transform="scale(1 1) rotate(0) translate(4 134.25)">
<title>PHAL_DMA_getChannelIdx</title>
<!-- Node1 -->
<g id="Node000001" class="node">
<title>Node1</title>
<g id="a_Node000001"><a xlink:title="Get the channel number (1&#45;8) for a given handle.">
<polygon fill="#999999" stroke="#666666" points="328.25,-74.25 191.5,-74.25 191.5,-55 328.25,-55 328.25,-74.25"/>
<text text-anchor="middle" x="259.88" y="-60.75" font-family="Helvetica,sans-Serif" font-size="10.00">PHAL_DMA_getChannelIdx</text>
</a>
</g>
</g>
<!-- Node2 -->
<g id="Node000002" class="node">
<title>Node2</title>
<g id="a_Node000002"><a xlink:href="common_2phal__G4_2usart_2usart_8c.html#a2995d18679a10821577043876ac50825" target="_top" xlink:title="Disables continuous DMA reception.">
<polygon fill="white" stroke="#666666" points="155.5,-130.25 0,-130.25 0,-111 155.5,-111 155.5,-130.25"/>
<text text-anchor="middle" x="77.75" y="-116.75" font-family="Helvetica,sans-Serif" font-size="10.00">PHAL_disableContinousRxDMA</text>
</a>
</g>
</g>
<!-- Node1&#45;&gt;Node2 -->
<g id="edge1_Node000001_Node000002" class="edge">
<title>Node1&#45;&gt;Node2</title>
<g id="a_edge1_Node000001_Node000002"><a xlink:title=" ">
<path fill="none" stroke="#63b8ff" d="M223.42,-78.88C203.63,-86.52 178.42,-95.75 155.5,-102.62 145.93,-105.49 135.58,-108.19 125.67,-110.58"/>
<polygon fill="#63b8ff" stroke="#63b8ff" points="224.65,-82.15 232.69,-75.25 222.1,-75.63 224.65,-82.15"/>
</a>
</g>
</g>
<!-- Node3 -->
<g id="Node000003" class="node">
<title>Node3</title>
<g id="a_Node000003"><a xlink:href="phal__G4_2spi_2spi_8c.html#a9af893d97bde29796f60bc6df9b05fd0" target="_top" xlink:title="Start a DMA&#45;backed SPI transfer.">
<polygon fill="white" stroke="#666666" points="129.25,-93.25 26.25,-93.25 26.25,-74 129.25,-74 129.25,-93.25"/>
<text text-anchor="middle" x="77.75" y="-79.75" font-family="Helvetica,sans-Serif" font-size="10.00">PHAL_SPI_transfer</text>
</a>
</g>
</g>
<!-- Node1&#45;&gt;Node3 -->
<g id="edge2_Node000001_Node000003" class="edge">
<title>Node1&#45;&gt;Node3</title>
<g id="a_edge2_Node000001_Node000003"><a xlink:title=" ">
<path fill="none" stroke="#63b8ff" d="M179.94,-72.95C162.89,-74.75 145.31,-76.6 129.68,-78.25"/>
<polygon fill="#63b8ff" stroke="#63b8ff" points="179.95,-76.47 189.53,-71.94 179.22,-69.51 179.95,-76.47"/>
</a>
</g>
</g>
<!-- Node4 -->
<g id="Node000004" class="node">
<title>Node4</title>
<g id="a_Node000004"><a xlink:href="common_2phal__G4_2usart_2usart_8c.html#a58f9158940d388fe2e706fddb01a759d" target="_top" xlink:title="Starts a DMA&#45;based reception.">
<polygon fill="white" stroke="#666666" points="128.5,-56.25 27,-56.25 27,-37 128.5,-37 128.5,-56.25"/>
<text text-anchor="middle" x="77.75" y="-42.75" font-family="Helvetica,sans-Serif" font-size="10.00">PHAL_usartRxDma</text>
</a>
</g>
</g>
<!-- Node1&#45;&gt;Node4 -->
<g id="edge3_Node000001_Node000004" class="edge">
<title>Node1&#45;&gt;Node4</title>
<g id="a_edge3_Node000001_Node000004"><a xlink:title=" ">
<path fill="none" stroke="#63b8ff" d="M179.77,-56.72C162.47,-54.99 144.63,-53.21 128.84,-51.63"/>
<polygon fill="#63b8ff" stroke="#63b8ff" points="179.23,-60.18 189.53,-57.7 179.93,-53.22 179.23,-60.18"/>
</a>
</g>
</g>
<!-- Node5 -->
<g id="Node000005" class="node">
<title>Node5</title>
<g id="a_Node000005"><a xlink:href="common_2phal__G4_2usart_2usart_8c.html#a61183ec430b48e9dc2eef1a49f292a65" target="_top" xlink:title="Starts a DMA&#45;based transmission.">
<polygon fill="white" stroke="#666666" points="128.12,-19.25 27.38,-19.25 27.38,0 128.12,0 128.12,-19.25"/>
<text text-anchor="middle" x="77.75" y="-5.75" font-family="Helvetica,sans-Serif" font-size="10.00">PHAL_usartTxDma</text>
</a>
</g>
</g>
<!-- Node1&#45;&gt;Node5 -->
<g id="edge4_Node000001_Node000005" class="edge">
<title>Node1&#45;&gt;Node5</title>
<g id="a_edge4_Node000001_Node000005"><a xlink:title=" ">
<path fill="none" stroke="#63b8ff" d="M222.59,-50.5C202.91,-43.13 178.07,-34.29 155.5,-27.62 145.92,-24.8 135.56,-22.12 125.65,-19.73"/>
<polygon fill="#63b8ff" stroke="#63b8ff" points="221.22,-53.72 231.81,-53.99 223.7,-47.18 221.22,-53.72"/>
</a>
</g>
</g>
</g>
</svg>
</svg>

<style type='text/css'>
<![CDATA[
[data-mouse-over-selected='false'] { opacity: 0.7; }
[data-mouse-over-selected='true']  { opacity: 1.0; }
]]>
</style>
<script type="application/ecmascript"><![CDATA[
document.addEventListener('DOMContentLoaded', (event) => {
  highlightEdges();
  highlightAdjacentNodes();
});
]]></script>
</svg>
