<?xml version="1.0" encoding="UTF-8" standalone="no"?>
<!DOCTYPE svg PUBLIC "-//W3C//DTD SVG 1.1//EN"
 "http://www.w3.org/Graphics/SVG/1.1/DTD/svg11.dtd">
<!-- Generated by graphviz version 12.2.0 (20241103.1931)
 -->
<!-- Title: firmware/source/pdu/switches/switches.c Pages: 1 -->
<!--zoomable 337 -->

<svg id="main" version="1.1" xmlns="http://www.w3.org/2000/svg" xmlns:xlink="http://www.w3.org/1999/xlink" xml:space="preserve" onload="init(evt)">

<style type="text/css"><![CDATA[
.node, .edge {opacity: 0.7;}
.node.selected, .edge.selected {opacity: 1;}
.edge:hover path { stroke: red; }
.edge:hover polygon { stroke: red; fill: red; }
]]></style>

<defs>
  <circle id="rim" cx="0" cy="0" r="7"/>
  <circle id="rim2" cx="0" cy="0" r="3.5"/>
  <g id="zoomPlus">
    <use xlink:href="#rim" fill="#404040"><set attributeName="fill" to="#808080" begin="zoomplus.mouseover" end="zoomplus.mouseout"/></use>
    <path d="M-4,0h8M0,-4v8" fill="none" stroke="white" stroke-width="1.5" pointer-events="none"/>
  </g>
  <g id="zoomMin">
    <use xlink:href="#rim" fill="#404040"><set attributeName="fill" to="#808080" begin="zoomminus.mouseover" end="zoomminus.mouseout"/></use>
    <path d="M-4,0h8" fill="none" stroke="white" stroke-width="1.5" pointer-events="none"/>
  </g>
  <g id="arrowUp" transform="translate(30 24)">
    <use xlink:href="#rim"/>
    <path pointer-events="none" fill="none" stroke="white" stroke-width="1.5" d="M0,-3.0v7 M-2.5,-0.5L0,-3.0L2.5,-0.5"/>
  </g>
  <g id="arrowRight" transform="rotate(90) translate(36 -43)">
    <use xlink:href="#rim"/>
    <path pointer-events="none" fill="none" stroke="white" stroke-width="1.5" d="M0,-3.0v7 M-2.5,-0.5L0,-3.0L2.5,-0.5"/>
  </g>
  <g id="arrowDown" transform="rotate(180) translate(-30 -48)">
    <use xlink:href="#rim"/>
    <path pointer-events="none" fill="none" stroke="white" stroke-width="1.5" d="M0,-3.0v7 M-2.5,-0.5L0,-3.0L2.5,-0.5"/>
  </g>
  <g id="arrowLeft" transform="rotate(270) translate(-36 17)">
    <use xlink:href="#rim"/>
    <path pointer-events="none" fill="none" stroke="white" stroke-width="1.5" d="M0,-3.0v7 M-2.5,-0.5L0,-3.0L2.5,-0.5"/>
  </g>
  <g id="resetDef">
    <use xlink:href="#rim2" fill="#404040"><set attributeName="fill" to="#808080" begin="reset.mouseover" end="reset.mouseout"/></use>
  </g>
</defs>
<script type="application/ecmascript">
var viewWidth = 658;
var viewHeight = 337;
var sectionId = 'dynsection-0';
</script>
<script type="application/ecmascript" xlink:href="svg.min.js"/>
<svg id="graph" class="graph">
<g id="viewport">
<title>firmware/source/pdu/switches/switches.c</title>
<!-- Node1 -->
<g id="Node000001" class="node">
<title>Node1</title>
<g id="a_Node000001"><a xlink:title=" ">
<polygon fill="#999999" stroke="#666666" points="247.54,-329.25 140.04,-329.25 140.04,-298.75 247.54,-298.75 247.54,-329.25"/>
<text text-anchor="start" x="148.04" y="-315.75" font-family="Helvetica,sans-Serif" font-size="10.00">firmware/source/pdu</text>
<text text-anchor="middle" x="193.79" y="-304.5" font-family="Helvetica,sans-Serif" font-size="10.00">/switches/switches.c</text>
</a>
</g>
</g>
<!-- Node2 -->
<g id="Node000002" class="node">
<title>Node2</title>
<g id="a_Node000002"><a xlink:href="switches_8h.html" target="_top" xlink:title=" ">
<polygon fill="white" stroke="#666666" points="75.04,-74.5 12.54,-74.5 12.54,-55.25 75.04,-55.25 75.04,-74.5"/>
<text text-anchor="middle" x="43.79" y="-61" font-family="Helvetica,sans-Serif" font-size="10.00">switches.h</text>
</a>
</g>
</g>
<!-- Node1&#45;&gt;Node2 -->
<g id="edge1_Node000001_Node000002" class="edge">
<title>Node1&#45;&gt;Node2</title>
<g id="a_edge1_Node000001_Node000002"><a xlink:title=" ">
<path fill="none" stroke="#63b8ff" d="M185.95,-298.48C167.64,-264.83 120.26,-179.14 75.79,-110.5 70.03,-101.61 63.24,-92.03 57.4,-84.04"/>
<polygon fill="#63b8ff" stroke="#63b8ff" points="60.33,-82.1 51.57,-76.15 54.7,-86.27 60.33,-82.1"/>
</a>
</g>
</g>
<!-- Node5 -->
<g id="Node000005" class="node">
<title>Node5</title>
<g id="a_Node000005"><a xlink:title=" ">
<polygon fill="#e0e0e0" stroke="#999999" points="300.54,-262.75 253.04,-262.75 253.04,-243.5 300.54,-243.5 300.54,-262.75"/>
<text text-anchor="middle" x="276.79" y="-249.25" font-family="Helvetica,sans-Serif" font-size="10.00">string.h</text>
</a>
</g>
</g>
<!-- Node1&#45;&gt;Node5 -->
<g id="edge4_Node000001_Node000005" class="edge">
<title>Node1&#45;&gt;Node5</title>
<g id="a_edge4_Node000001_Node000005"><a xlink:title=" ">
<path fill="none" stroke="#63b8ff" d="M214.31,-298.45C226.58,-289.74 242.17,-278.68 254.71,-269.78"/>
<polygon fill="#63b8ff" stroke="#63b8ff" points="256.63,-272.72 262.76,-264.08 252.58,-267.01 256.63,-272.72"/>
</a>
</g>
</g>
<!-- Node6 -->
<g id="Node000006" class="node">
<title>Node6</title>
<g id="a_Node000006"><a xlink:href="led_8h.html" target="_top" xlink:title=" ">
<polygon fill="white" stroke="#666666" points="234.91,-262.75 198.66,-262.75 198.66,-243.5 234.91,-243.5 234.91,-262.75"/>
<text text-anchor="middle" x="216.79" y="-249.25" font-family="Helvetica,sans-Serif" font-size="10.00">led.h</text>
</a>
</g>
</g>
<!-- Node1&#45;&gt;Node6 -->
<g id="edge5_Node000001_Node000006" class="edge">
<title>Node1&#45;&gt;Node6</title>
<g id="a_edge5_Node000001_Node000006"><a xlink:title=" ">
<path fill="none" stroke="#63b8ff" d="M199.47,-298.45C202.37,-291.03 205.93,-281.91 209.07,-273.88"/>
<polygon fill="#63b8ff" stroke="#63b8ff" points="212.31,-275.2 212.69,-264.61 205.79,-272.65 212.31,-275.2"/>
</a>
</g>
</g>
<!-- Node7 -->
<g id="Node000007" class="node">
<title>Node7</title>
<g id="a_Node000007"><a xlink:href="phal__F4_2gpio_2gpio_8h.html" target="_top" xlink:title="GPIO Driver for STM32F4 Devices.">
<polygon fill="white" stroke="#666666" points="272.79,-141 160.79,-141 160.79,-110.5 272.79,-110.5 272.79,-141"/>
<text text-anchor="start" x="168.79" y="-127.5" font-family="Helvetica,sans-Serif" font-size="10.00">common/phal_F4/gpio</text>
<text text-anchor="middle" x="216.79" y="-116.25" font-family="Helvetica,sans-Serif" font-size="10.00">/gpio.h</text>
</a>
</g>
</g>
<!-- Node1&#45;&gt;Node7 -->
<g id="edge25_Node000001_Node000007" class="edge">
<title>Node1&#45;&gt;Node7</title>
<g id="a_edge25_Node000001_Node000007"><a xlink:title=" ">
<path fill="none" stroke="#63b8ff" d="M192.33,-298.51C191.39,-288.48 190.27,-274.82 189.79,-262.75 189.45,-254.2 188.82,-252 189.79,-243.5 193.42,-211.64 202.47,-175.82 209.09,-152.36"/>
<polygon fill="#63b8ff" stroke="#63b8ff" points="212.45,-153.34 211.87,-142.76 205.73,-151.39 212.45,-153.34"/>
</a>
</g>
</g>
<!-- Node13 -->
<g id="Node000013" class="node">
<title>Node13</title>
<g id="a_Node000013"><a xlink:title=" ">
<polygon fill="#e0e0e0" stroke="#999999" points="363.04,-262.75 318.54,-262.75 318.54,-243.5 363.04,-243.5 363.04,-262.75"/>
<text text-anchor="middle" x="340.79" y="-249.25" font-family="Helvetica,sans-Serif" font-size="10.00">main.h</text>
</a>
</g>
</g>
<!-- Node1&#45;&gt;Node13 -->
<g id="edge20_Node000001_Node000013" class="edge">
<title>Node1&#45;&gt;Node13</title>
<g id="a_edge20_Node000001_Node000013"><a xlink:title=" ">
<path fill="none" stroke="#63b8ff" d="M230.5,-298.3C254.18,-288.81 284.72,-276.58 307.66,-267.39"/>
<polygon fill="#63b8ff" stroke="#63b8ff" points="308.86,-270.68 316.84,-263.72 306.26,-264.19 308.86,-270.68"/>
</a>
</g>
</g>
<!-- Node14 -->
<g id="Node000014" class="node">
<title>Node14</title>
<g id="a_Node000014"><a xlink:href="state_8h.html" target="_top" xlink:title=" ">
<polygon fill="white" stroke="#666666" points="66.41,-135.38 21.16,-135.38 21.16,-116.12 66.41,-116.12 66.41,-135.38"/>
<text text-anchor="middle" x="43.79" y="-121.88" font-family="Helvetica,sans-Serif" font-size="10.00">state.h</text>
</a>
</g>
</g>
<!-- Node1&#45;&gt;Node14 -->
<g id="edge21_Node000001_Node000014" class="edge">
<title>Node1&#45;&gt;Node14</title>
<g id="a_edge21_Node000001_Node000014"><a xlink:title=" ">
<path fill="none" stroke="#63b8ff" d="M139.58,-299.79C118.56,-292.15 95.96,-280.43 80.79,-262.75 52.19,-229.41 45.51,-175.96 44.06,-146.99"/>
<polygon fill="#63b8ff" stroke="#63b8ff" points="47.57,-146.96 43.76,-137.08 40.57,-147.18 47.57,-146.96"/>
</a>
</g>
</g>
<!-- Node3 -->
<g id="Node000003" class="node">
<title>Node3</title>
<g id="a_Node000003"><a xlink:title=" ">
<polygon fill="#e0e0e0" stroke="#999999" points="119.29,-19.25 64.29,-19.25 64.29,0 119.29,0 119.29,-19.25"/>
<text text-anchor="middle" x="91.79" y="-5.75" font-family="Helvetica,sans-Serif" font-size="10.00">stdbool.h</text>
</a>
</g>
</g>
<!-- Node2&#45;&gt;Node3 -->
<g id="edge2_Node000002_Node000003" class="edge">
<title>Node2&#45;&gt;Node3</title>
<g id="a_edge2_Node000002_Node000003"><a xlink:title=" ">
<path fill="none" stroke="#63b8ff" d="M51.71,-55.08C58.34,-47.73 68,-37.01 76.18,-27.94"/>
<polygon fill="#63b8ff" stroke="#63b8ff" points="78.58,-30.5 82.68,-20.73 73.38,-25.82 78.58,-30.5"/>
</a>
</g>
</g>
<!-- Node4 -->
<g id="Node000004" class="node">
<title>Node4</title>
<g id="a_Node000004"><a xlink:title=" ">
<polygon fill="#e0e0e0" stroke="#999999" points="254.54,-19.25 207.04,-19.25 207.04,0 254.54,0 254.54,-19.25"/>
<text text-anchor="middle" x="230.79" y="-5.75" font-family="Helvetica,sans-Serif" font-size="10.00">stdint.h</text>
</a>
</g>
</g>
<!-- Node2&#45;&gt;Node4 -->
<g id="edge3_Node000002_Node000004" class="edge">
<title>Node2&#45;&gt;Node4</title>
<g id="a_edge3_Node000002_Node000004"><a xlink:title=" ">
<path fill="none" stroke="#63b8ff" d="M75.51,-54.84C108.84,-45.35 161.12,-30.46 195.67,-20.62"/>
<polygon fill="#63b8ff" stroke="#63b8ff" points="196.54,-24.02 205.2,-17.91 194.63,-17.28 196.54,-24.02"/>
</a>
</g>
</g>
<!-- Node6&#45;&gt;Node3 -->
<g id="edge6_Node000006_Node000003" class="edge">
<title>Node6&#45;&gt;Node3</title>
<g id="a_edge6_Node000006_Node000003"><a xlink:title=" ">
<path fill="none" stroke="#63b8ff" d="M211.09,-243.08C199.38,-224.35 172.03,-179.85 151.79,-141 131.71,-102.47 111.15,-55.93 100.07,-30.18"/>
<polygon fill="#63b8ff" stroke="#63b8ff" points="103.31,-28.84 96.16,-21.01 96.87,-31.59 103.31,-28.84"/>
</a>
</g>
</g>
<!-- Node6&#45;&gt;Node4 -->
<g id="edge7_Node000006_Node000004" class="edge">
<title>Node6&#45;&gt;Node4</title>
<g id="a_edge7_Node000006_Node000004"><a xlink:title=" ">
<path fill="none" stroke="#63b8ff" d="M235.31,-245.97C238.14,-245.1 241.03,-244.25 243.79,-243.5 314.56,-224.33 333.67,-225.33 404.79,-207.5 511.73,-180.68 577.09,-228.79 643.79,-141 651.99,-130.21 652.17,-121.15 643.79,-110.5 596.74,-50.72 357.45,-22.44 266.2,-13.7"/>
<polygon fill="#63b8ff" stroke="#63b8ff" points="266.63,-10.23 256.34,-12.78 265.98,-17.2 266.63,-10.23"/>
</a>
</g>
</g>
<!-- Node6&#45;&gt;Node7 -->
<g id="edge8_Node000006_Node000007" class="edge">
<title>Node6&#45;&gt;Node7</title>
<g id="a_edge8_Node000006_Node000007"><a xlink:title=" ">
<path fill="none" stroke="#63b8ff" d="M216.79,-243.11C216.79,-224.42 216.79,-180.88 216.79,-152.68"/>
<polygon fill="#63b8ff" stroke="#63b8ff" points="220.29,-152.81 216.79,-142.81 213.29,-152.81 220.29,-152.81"/>
</a>
</g>
</g>
<!-- Node9 -->
<g id="Node000009" class="node">
<title>Node9</title>
<g id="a_Node000009"><a xlink:href="phal__F4_2spi_2spi_8h.html" target="_top" xlink:title=" ">
<polygon fill="white" stroke="#666666" points="396.16,-207.5 289.41,-207.5 289.41,-177 396.16,-177 396.16,-207.5"/>
<text text-anchor="start" x="297.41" y="-194" font-family="Helvetica,sans-Serif" font-size="10.00">common/phal_F4/spi</text>
<text text-anchor="middle" x="342.79" y="-182.75" font-family="Helvetica,sans-Serif" font-size="10.00">/spi.h</text>
</a>
</g>
</g>
<!-- Node6&#45;&gt;Node9 -->
<g id="edge12_Node000006_Node000009" class="edge">
<title>Node6&#45;&gt;Node9</title>
<g id="a_edge12_Node000006_Node000009"><a xlink:title=" ">
<path fill="none" stroke="#63b8ff" d="M235.38,-243.44C252.64,-235.37 278.94,-223.09 301.19,-212.69"/>
<polygon fill="#63b8ff" stroke="#63b8ff" points="302.46,-215.96 310.04,-208.55 299.5,-209.62 302.46,-215.96"/>
</a>
</g>
</g>
<!-- Node8 -->
<g id="Node000008" class="node">
<title>Node8</title>
<g id="a_Node000008"><a xlink:href="phal__F4_8h.html" target="_top" xlink:title=" ">
<polygon fill="white" stroke="#666666" points="336.79,-74.5 200.79,-74.5 200.79,-55.25 336.79,-55.25 336.79,-74.5"/>
<text text-anchor="middle" x="268.79" y="-61" font-family="Helvetica,sans-Serif" font-size="10.00">common/phal_F4/phal_F4.h</text>
</a>
</g>
</g>
<!-- Node7&#45;&gt;Node8 -->
<g id="edge9_Node000007_Node000008" class="edge">
<title>Node7&#45;&gt;Node8</title>
<g id="a_edge9_Node000007_Node000008"><a xlink:title=" ">
<path fill="none" stroke="#63b8ff" d="M229.64,-110.2C236.8,-102.09 245.76,-91.95 253.3,-83.41"/>
<polygon fill="#63b8ff" stroke="#63b8ff" points="255.77,-85.9 259.77,-76.09 250.53,-81.26 255.77,-85.9"/>
</a>
</g>
</g>
<!-- Node8&#45;&gt;Node3 -->
<g id="edge10_Node000008_Node000003" class="edge">
<title>Node8&#45;&gt;Node3</title>
<g id="a_edge10_Node000008_Node000003"><a xlink:title=" ">
<path fill="none" stroke="#63b8ff" d="M238.76,-54.84C208.94,-45.87 163.09,-32.08 130.54,-22.28"/>
<polygon fill="#63b8ff" stroke="#63b8ff" points="131.66,-18.96 121.07,-19.44 129.64,-25.67 131.66,-18.96"/>
</a>
</g>
</g>
<!-- Node8&#45;&gt;Node4 -->
<g id="edge11_Node000008_Node000004" class="edge">
<title>Node8&#45;&gt;Node4</title>
<g id="a_edge11_Node000008_Node000004"><a xlink:title=" ">
<path fill="none" stroke="#63b8ff" d="M262.51,-55.08C257.43,-47.96 250.09,-37.68 243.76,-28.8"/>
<polygon fill="#63b8ff" stroke="#63b8ff" points="246.74,-26.95 238.08,-20.84 241.04,-31.01 246.74,-26.95"/>
</a>
</g>
</g>
<!-- Node9&#45;&gt;Node7 -->
<g id="edge16_Node000009_Node000007" class="edge">
<title>Node9&#45;&gt;Node7</title>
<g id="a_edge16_Node000009_Node000007"><a xlink:title=" ">
<path fill="none" stroke="#63b8ff" d="M314.2,-176.61C296.8,-167.71 274.35,-156.22 255.39,-146.51"/>
<polygon fill="#63b8ff" stroke="#63b8ff" points="257.11,-143.46 246.61,-142.02 253.92,-149.69 257.11,-143.46"/>
</a>
</g>
</g>
<!-- Node9&#45;&gt;Node8 -->
<g id="edge17_Node000009_Node000008" class="edge">
<title>Node9&#45;&gt;Node8</title>
<g id="a_edge17_Node000009_Node000008"><a xlink:title=" ">
<path fill="none" stroke="#63b8ff" d="M334.3,-176.87C320.87,-154.12 294.74,-109.84 279.86,-84.63"/>
<polygon fill="#63b8ff" stroke="#63b8ff" points="282.93,-82.96 274.84,-76.12 276.91,-86.51 282.93,-82.96"/>
</a>
</g>
</g>
<!-- Node10 -->
<g id="Node000010" class="node">
<title>Node10</title>
<g id="a_Node000010"><a xlink:title=" ">
<polygon fill="#e0e0e0" stroke="#999999" points="635.04,-135.38 584.54,-135.38 584.54,-116.12 635.04,-116.12 635.04,-135.38"/>
<text text-anchor="middle" x="609.79" y="-121.88" font-family="Helvetica,sans-Serif" font-size="10.00">stddef.h</text>
</a>
</g>
</g>
<!-- Node9&#45;&gt;Node10 -->
<g id="edge13_Node000009_Node000010" class="edge">
<title>Node9&#45;&gt;Node10</title>
<g id="a_edge13_Node000009_Node000010"><a xlink:title=" ">
<path fill="none" stroke="#63b8ff" d="M396.26,-182.62C443.96,-174.23 515.39,-159.99 575.79,-141 576.95,-140.64 578.12,-140.25 579.31,-139.84"/>
<polygon fill="#63b8ff" stroke="#63b8ff" points="580.36,-143.18 588.47,-136.35 577.88,-136.64 580.36,-143.18"/>
</a>
</g>
</g>
<!-- Node11 -->
<g id="Node000011" class="node">
<title>Node11</title>
<g id="a_Node000011"><a xlink:href="phal__F4_2dma_2dma_8h.html" target="_top" xlink:title=" ">
<polygon fill="white" stroke="#666666" points="441.16,-141 328.41,-141 328.41,-110.5 441.16,-110.5 441.16,-141"/>
<text text-anchor="start" x="336.41" y="-127.5" font-family="Helvetica,sans-Serif" font-size="10.00">common/phal_F4/dma</text>
<text text-anchor="middle" x="384.79" y="-116.25" font-family="Helvetica,sans-Serif" font-size="10.00">/dma.h</text>
</a>
</g>
</g>
<!-- Node9&#45;&gt;Node11 -->
<g id="edge14_Node000009_Node000011" class="edge">
<title>Node9&#45;&gt;Node11</title>
<g id="a_edge14_Node000009_Node000011"><a xlink:title=" ">
<path fill="none" stroke="#63b8ff" d="M352.32,-176.61C357.26,-169.03 363.42,-159.56 369.05,-150.93"/>
<polygon fill="#63b8ff" stroke="#63b8ff" points="371.95,-152.89 374.47,-142.6 366.08,-149.07 371.95,-152.89"/>
</a>
</g>
</g>
<!-- Node12 -->
<g id="Node000012" class="node">
<title>Node12</title>
<g id="a_Node000012"><a xlink:href="phal__F4_2rcc_2rcc_8h.html" target="_top" xlink:title="RCC Configuration Driver for STM32F4 Devices.">
<polygon fill="white" stroke="#666666" points="566.54,-141 459.04,-141 459.04,-110.5 566.54,-110.5 566.54,-141"/>
<text text-anchor="start" x="467.04" y="-127.5" font-family="Helvetica,sans-Serif" font-size="10.00">common/phal_F4/rcc</text>
<text text-anchor="middle" x="512.79" y="-116.25" font-family="Helvetica,sans-Serif" font-size="10.00">/rcc.h</text>
</a>
</g>
</g>
<!-- Node9&#45;&gt;Node12 -->
<g id="edge18_Node000009_Node000012" class="edge">
<title>Node9&#45;&gt;Node12</title>
<g id="a_edge18_Node000009_Node000012"><a xlink:title=" ">
<path fill="none" stroke="#63b8ff" d="M381.36,-176.61C405.73,-167.37 437.44,-155.34 463.61,-145.41"/>
<polygon fill="#63b8ff" stroke="#63b8ff" points="464.55,-148.8 472.66,-141.98 462.07,-142.25 464.55,-148.8"/>
</a>
</g>
</g>
<!-- Node11&#45;&gt;Node8 -->
<g id="edge15_Node000011_Node000008" class="edge">
<title>Node11&#45;&gt;Node8</title>
<g id="a_edge15_Node000011_Node000008"><a xlink:title=" ">
<path fill="none" stroke="#63b8ff" d="M355.82,-110.05C337.73,-100.86 314.56,-89.11 296.68,-80.03"/>
<polygon fill="#63b8ff" stroke="#63b8ff" points="298.43,-76.99 287.93,-75.59 295.26,-83.24 298.43,-76.99"/>
</a>
</g>
</g>
<!-- Node12&#45;&gt;Node8 -->
<g id="edge19_Node000012_Node000008" class="edge">
<title>Node12&#45;&gt;Node8</title>
<g id="a_edge19_Node000012_Node000008"><a xlink:title=" ">
<path fill="none" stroke="#63b8ff" d="M458.64,-111.68C416.42,-101.5 358.3,-87.47 317.52,-77.63"/>
<polygon fill="#63b8ff" stroke="#63b8ff" points="318.52,-74.27 307.98,-75.33 316.88,-81.08 318.52,-74.27"/>
</a>
</g>
</g>
<!-- Node14&#45;&gt;Node2 -->
<g id="edge24_Node000014_Node000002" class="edge">
<title>Node14&#45;&gt;Node2</title>
<g id="a_edge24_Node000014_Node000002"><a xlink:title=" ">
<path fill="none" stroke="#63b8ff" d="M43.79,-115.81C43.79,-108.03 43.79,-96.45 43.79,-86.41"/>
<polygon fill="#63b8ff" stroke="#63b8ff" points="47.29,-86.41 43.79,-76.41 40.29,-86.41 47.29,-86.41"/>
</a>
</g>
</g>
<!-- Node14&#45;&gt;Node3 -->
<g id="edge22_Node000014_Node000003" class="edge">
<title>Node14&#45;&gt;Node3</title>
<g id="a_edge22_Node000014_Node000003"><a xlink:title=" ">
<path fill="none" stroke="#63b8ff" d="M31.84,-115.66C15.78,-102.29 -9.33,-76.6 3.79,-55.25 14.6,-37.64 34.77,-26.72 53.07,-20.09"/>
<polygon fill="#63b8ff" stroke="#63b8ff" points="53.97,-23.48 62.39,-17.05 51.8,-16.82 53.97,-23.48"/>
</a>
</g>
</g>
<!-- Node14&#45;&gt;Node4 -->
<g id="edge23_Node000014_Node000004" class="edge">
<title>Node14&#45;&gt;Node4</title>
<g id="a_edge23_Node000014_Node000004"><a xlink:title=" ">
<path fill="none" stroke="#63b8ff" d="M58.46,-115.79C90.47,-96.26 166.86,-49.64 206.29,-25.57"/>
<polygon fill="#63b8ff" stroke="#63b8ff" points="207.92,-28.68 214.63,-20.48 204.27,-22.71 207.92,-28.68"/>
</a>
</g>
</g>
</g>
</svg>

<g id="navigator" transform="translate(0 0)" fill="#404254">
  <rect fill="#f2f5e9" fill-opacity="0.5" stroke="#606060" stroke-width=".5" x="0" y="0" width="60" height="60"/>
  <use id="zoomplus" xlink:href="#zoomPlus" x="17" y="9" onmousedown="handleZoom(evt,'in')"/>
  <use id="zoomminus" xlink:href="#zoomMin" x="42" y="9" onmousedown="handleZoom(evt,'out')"/>
  <use id="reset" xlink:href="#resetDef" x="30" y="36" onmousedown="handleReset()"/>
   <use id="arrowup" xlink:href="#arrowUp" x="0" y="0" onmousedown="handlePan(0,-1)"/>
  <use id="arrowright" xlink:href="#arrowRight" x="0" y="0" onmousedown="handlePan(1,0)"/>
  <use id="arrowdown" xlink:href="#arrowDown" x="0" y="0" onmousedown="handlePan(0,1)"/>
  <use id="arrowleft" xlink:href="#arrowLeft" x="0" y="0" onmousedown="handlePan(-1,0)"/>
</g>
<svg viewBox="0 0 15 15" width="100%" height="30px" preserveAspectRatio="xMaxYMin meet">
 <g id="arrow_out" transform="scale(0.3 0.3)">
  <a xlink:href="switches_8c__incl_org.svg" target="_base">
   <rect id="button" ry="5" rx="5" y="6" x="6" height="38" width="38"
        fill="#f2f5e9" fill-opacity="0.5" stroke="#606060" stroke-width="1.0"/>
   <path id="arrow"
     d="M 11.500037,31.436501 C 11.940474,20.09759 22.043105,11.32322 32.158766,21.979434 L 37.068811,17.246167 C 37.068811,17.246167 37.088388,32 37.088388,32 L 22.160133,31.978069 C 22.160133,31.978069 26.997745,27.140456 26.997745,27.140456 C 18.528582,18.264221 13.291696,25.230495 11.500037,31.436501 z"
     style="fill:#404040;"/>
  </a>
 </g>
</svg>

<style type='text/css'>
<![CDATA[
[data-mouse-over-selected='false'] { opacity: 0.7; }
[data-mouse-over-selected='true']  { opacity: 1.0; }
]]>
</style>
<script type="application/ecmascript"><![CDATA[
document.addEventListener('DOMContentLoaded', (event) => {
  highlightEdges();
  highlightAdjacentNodes();
});
]]></script>
</svg>
