<?xml version="1.0" encoding="UTF-8" standalone="no"?>
<!DOCTYPE svg PUBLIC "-//W3C//DTD SVG 1.1//EN"
 "http://www.w3.org/Graphics/SVG/1.1/DTD/svg11.dtd">
<!-- Generated by graphviz version 12.2.0 (20241103.1931)
 -->
<!-- Title: usb_descriptor_word Pages: 1 -->
<!--zoomable 156 -->

<svg id="main" version="1.1" xmlns="http://www.w3.org/2000/svg" xmlns:xlink="http://www.w3.org/1999/xlink" xml:space="preserve" onload="init(evt)">

<style type="text/css"><![CDATA[
.node, .edge {opacity: 0.7;}
.node.selected, .edge.selected {opacity: 1;}
.edge:hover path { stroke: red; }
.edge:hover polygon { stroke: red; fill: red; }
]]></style>

<defs>
  <circle id="rim" cx="0" cy="0" r="7"/>
  <circle id="rim2" cx="0" cy="0" r="3.5"/>
  <g id="zoomPlus">
    <use xlink:href="#rim" fill="#404040"><set attributeName="fill" to="#808080" begin="zoomplus.mouseover" end="zoomplus.mouseout"/></use>
    <path d="M-4,0h8M0,-4v8" fill="none" stroke="white" stroke-width="1.5" pointer-events="none"/>
  </g>
  <g id="zoomMin">
    <use xlink:href="#rim" fill="#404040"><set attributeName="fill" to="#808080" begin="zoomminus.mouseover" end="zoomminus.mouseout"/></use>
    <path d="M-4,0h8" fill="none" stroke="white" stroke-width="1.5" pointer-events="none"/>
  </g>
  <g id="arrowUp" transform="translate(30 24)">
    <use xlink:href="#rim"/>
    <path pointer-events="none" fill="none" stroke="white" stroke-width="1.5" d="M0,-3.0v7 M-2.5,-0.5L0,-3.0L2.5,-0.5"/>
  </g>
  <g id="arrowRight" transform="rotate(90) translate(36 -43)">
    <use xlink:href="#rim"/>
    <path pointer-events="none" fill="none" stroke="white" stroke-width="1.5" d="M0,-3.0v7 M-2.5,-0.5L0,-3.0L2.5,-0.5"/>
  </g>
  <g id="arrowDown" transform="rotate(180) translate(-30 -48)">
    <use xlink:href="#rim"/>
    <path pointer-events="none" fill="none" stroke="white" stroke-width="1.5" d="M0,-3.0v7 M-2.5,-0.5L0,-3.0L2.5,-0.5"/>
  </g>
  <g id="arrowLeft" transform="rotate(270) translate(-36 17)">
    <use xlink:href="#rim"/>
    <path pointer-events="none" fill="none" stroke="white" stroke-width="1.5" d="M0,-3.0v7 M-2.5,-0.5L0,-3.0L2.5,-0.5"/>
  </g>
  <g id="resetDef">
    <use xlink:href="#rim2" fill="#404040"><set attributeName="fill" to="#808080" begin="reset.mouseover" end="reset.mouseout"/></use>
  </g>
</defs>
<script type="application/ecmascript">
var viewWidth = 747;
var viewHeight = 156;
var sectionId = 'dynsection-15';
</script>
<script type="application/ecmascript" xlink:href="svg.min.js"/>
<svg id="graph" class="graph">
<g id="viewport">
<title>usb_descriptor_word</title>
<!-- Node1 -->
<g id="Node000001" class="node">
<title>Node1</title>
<g id="a_Node000001"><a xlink:title=" ">
<polygon fill="#999999" stroke="#666666" points="739.25,-56.25 633.25,-56.25 633.25,-37 739.25,-37 739.25,-56.25"/>
<text text-anchor="middle" x="686.25" y="-42.75" font-family="Helvetica,sans-Serif" font-size="10.00">usb_descriptor_word</text>
</a>
</g>
</g>
<!-- Node2 -->
<g id="Node000002" class="node">
<title>Node2</title>
<g id="a_Node000002"><a xlink:href="usb__priv_8c.html#a1b35d5bd2473c452b714e669014e6b82" target="_top" xlink:title=" ">
<polygon fill="white" stroke="#666666" points="597.25,-93.25 479.25,-93.25 479.25,-74 597.25,-74 597.25,-93.25"/>
<text text-anchor="middle" x="538.25" y="-79.75" font-family="Helvetica,sans-Serif" font-size="10.00">usb_configure_endpoint</text>
</a>
</g>
</g>
<!-- Node1&#45;&gt;Node2 -->
<g id="edge1_Node000001_Node000002" class="edge">
<title>Node1&#45;&gt;Node2</title>
<g id="a_edge1_Node000001_Node000002"><a xlink:title=" ">
<path fill="none" stroke="#63b8ff" d="M634.38,-59.52C616.27,-64.11 596.15,-69.2 579.1,-73.53"/>
<polygon fill="#63b8ff" stroke="#63b8ff" points="635.05,-62.96 643.89,-57.11 633.33,-56.17 635.05,-62.96"/>
</a>
</g>
</g>
<!-- Node9 -->
<g id="Node000009" class="node">
<title>Node9</title>
<g id="a_Node000009"><a xlink:href="usb__priv_8c.html#ac8fc2c5988800daa9a8e4fd40ef19dce" target="_top" xlink:title="Copy one completed OUT packet from packet memory and rearm reception.">
<polygon fill="white" stroke="#666666" points="583,-56.25 493.5,-56.25 493.5,-37 583,-37 583,-56.25"/>
<text text-anchor="middle" x="538.25" y="-42.75" font-family="Helvetica,sans-Serif" font-size="10.00">USB_PRIV_read</text>
</a>
</g>
</g>
<!-- Node1&#45;&gt;Node9 -->
<g id="edge8_Node000001_Node000009" class="edge">
<title>Node1&#45;&gt;Node9</title>
<g id="a_edge8_Node000001_Node000009"><a xlink:title=" ">
<path fill="none" stroke="#63b8ff" d="M621.75,-46.62C608.85,-46.62 595.53,-46.62 583.47,-46.62"/>
<polygon fill="#63b8ff" stroke="#63b8ff" points="621.44,-50.13 631.44,-46.63 621.44,-43.13 621.44,-50.13"/>
</a>
</g>
</g>
<!-- Node11 -->
<g id="Node000011" class="node">
<title>Node11</title>
<g id="a_Node000011"><a xlink:href="usb__priv_8c.html#ae29a55bc0c87c71b9820e6b8ef9c7780" target="_top" xlink:title="Copy one IN packet to packet memory and make it available to the host.">
<polygon fill="white" stroke="#666666" points="584.12,-19.25 492.38,-19.25 492.38,0 584.12,0 584.12,-19.25"/>
<text text-anchor="middle" x="538.25" y="-5.75" font-family="Helvetica,sans-Serif" font-size="10.00">USB_PRIV_write</text>
</a>
</g>
</g>
<!-- Node1&#45;&gt;Node11 -->
<g id="edge10_Node000001_Node000011" class="edge">
<title>Node1&#45;&gt;Node11</title>
<g id="a_edge10_Node000001_Node000011"><a xlink:title=" ">
<path fill="none" stroke="#63b8ff" d="M634.38,-33.73C616.27,-29.14 596.15,-24.05 579.1,-19.72"/>
<polygon fill="#63b8ff" stroke="#63b8ff" points="633.33,-37.08 643.89,-36.14 635.05,-30.29 633.33,-37.08"/>
</a>
</g>
</g>
<!-- Node3 -->
<g id="Node000003" class="node">
<title>Node3</title>
<g id="a_Node000003"><a xlink:href="usb__priv_8c.html#a7a65179705ed513c172183fd44417b8a" target="_top" xlink:title=" ">
<polygon fill="white" stroke="#666666" points="443.25,-93.25 320,-93.25 320,-74 443.25,-74 443.25,-93.25"/>
<text text-anchor="middle" x="381.62" y="-79.75" font-family="Helvetica,sans-Serif" font-size="10.00">usb_configure_endpoints</text>
</a>
</g>
</g>
<!-- Node2&#45;&gt;Node3 -->
<g id="edge2_Node000002_Node000003" class="edge">
<title>Node2&#45;&gt;Node3</title>
<g id="a_edge2_Node000002_Node000003"><a xlink:title=" ">
<path fill="none" stroke="#63b8ff" d="M467.36,-83.62C459.48,-83.62 451.5,-83.62 443.74,-83.62"/>
<polygon fill="#63b8ff" stroke="#63b8ff" points="467.28,-87.13 477.28,-83.63 467.28,-80.13 467.28,-87.13"/>
</a>
</g>
</g>
<!-- Node4 -->
<g id="Node000004" class="node">
<title>Node4</title>
<g id="a_Node000004"><a xlink:href="usb__priv_8c.html#a3b7fdac0fb67607273cf7aabc6f8494f" target="_top" xlink:title="Decode one pending USB interrupt and notify the application.">
<polygon fill="white" stroke="#666666" points="284,-111.25 148.75,-111.25 148.75,-92 284,-92 284,-111.25"/>
<text text-anchor="middle" x="216.38" y="-97.75" font-family="Helvetica,sans-Serif" font-size="10.00">USB_PRIV_handleInterrupt</text>
</a>
</g>
</g>
<!-- Node3&#45;&gt;Node4 -->
<g id="edge3_Node000003_Node000004" class="edge">
<title>Node3&#45;&gt;Node4</title>
<g id="a_edge3_Node000003_Node000004"><a xlink:title=" ">
<path fill="none" stroke="#63b8ff" d="M308.53,-91.57C300.46,-92.46 292.25,-93.37 284.25,-94.25"/>
<polygon fill="#63b8ff" stroke="#63b8ff" points="308.78,-95.07 318.33,-90.49 308.01,-88.11 308.78,-95.07"/>
</a>
</g>
</g>
<!-- Node7 -->
<g id="Node000007" class="node">
<title>Node7</title>
<g id="a_Node000007"><a xlink:href="usb__priv_8c.html#a88feef2613c47bacaa4b3a2a768c8ae4" target="_top" xlink:title="Enable and reset the USB hardware, configure pins and packet memory.">
<polygon fill="white" stroke="#666666" points="258.12,-74.25 174.62,-74.25 174.62,-55 258.12,-55 258.12,-74.25"/>
<text text-anchor="middle" x="216.38" y="-60.75" font-family="Helvetica,sans-Serif" font-size="10.00">USB_PRIV_init</text>
</a>
</g>
</g>
<!-- Node3&#45;&gt;Node7 -->
<g id="edge6_Node000003_Node000007" class="edge">
<title>Node3&#45;&gt;Node7</title>
<g id="a_edge6_Node000003_Node000007"><a xlink:title=" ">
<path fill="none" stroke="#63b8ff" d="M308.64,-75.25C291.43,-73.24 273.64,-71.17 258.39,-69.4"/>
<polygon fill="#63b8ff" stroke="#63b8ff" points="308,-78.7 318.33,-76.38 308.81,-71.74 308,-78.7"/>
</a>
</g>
</g>
<!-- Node5 -->
<g id="Node000005" class="node">
<title>Node5</title>
<g id="a_Node000005"><a xlink:href="usb_8c.html#a3d29cbfce29da77f8c0e1feb84998aac" target="_top" xlink:title=" ">
<polygon fill="white" stroke="#666666" points="112.75,-148.25 0,-148.25 0,-129 112.75,-129 112.75,-148.25"/>
<text text-anchor="middle" x="56.38" y="-134.75" font-family="Helvetica,sans-Serif" font-size="10.00">USB_HP_IRQHandler</text>
</a>
</g>
</g>
<!-- Node4&#45;&gt;Node5 -->
<g id="edge4_Node000004_Node000005" class="edge">
<title>Node4&#45;&gt;Node5</title>
<g id="a_edge4_Node000004_Node000005"><a xlink:title=" ">
<path fill="none" stroke="#63b8ff" d="M161.16,-114.32C141.34,-118.96 119.21,-124.14 100.5,-128.53"/>
<polygon fill="#63b8ff" stroke="#63b8ff" points="161.79,-117.77 170.73,-112.08 160.19,-110.95 161.79,-117.77"/>
</a>
</g>
</g>
<!-- Node6 -->
<g id="Node000006" class="node">
<title>Node6</title>
<g id="a_Node000006"><a xlink:href="usb_8c.html#ab0abd6916df1318e9dd804cdfc96a56d" target="_top" xlink:title=" ">
<polygon fill="white" stroke="#666666" points="112,-111.25 0.75,-111.25 0.75,-92 112,-92 112,-111.25"/>
<text text-anchor="middle" x="56.38" y="-97.75" font-family="Helvetica,sans-Serif" font-size="10.00">USB_LP_IRQHandler</text>
</a>
</g>
</g>
<!-- Node4&#45;&gt;Node6 -->
<g id="edge5_Node000004_Node000006" class="edge">
<title>Node4&#45;&gt;Node6</title>
<g id="a_edge5_Node000004_Node000006"><a xlink:title=" ">
<path fill="none" stroke="#63b8ff" d="M136.94,-101.62C128.52,-101.62 120.1,-101.62 112.05,-101.62"/>
<polygon fill="#63b8ff" stroke="#63b8ff" points="136.86,-105.13 146.86,-101.63 136.86,-98.13 136.86,-105.13"/>
</a>
</g>
</g>
<!-- Node8 -->
<g id="Node000008" class="node">
<title>Node8</title>
<g id="a_Node000008"><a xlink:href="usb_8c.html#a06c08ebbf291a1e1f7dca05a6660271d" target="_top" xlink:title="Initialize the USB device hardware and endpoints.">
<polygon fill="white" stroke="#666666" points="100,-74.25 12.75,-74.25 12.75,-55 100,-55 100,-74.25"/>
<text text-anchor="middle" x="56.38" y="-60.75" font-family="Helvetica,sans-Serif" font-size="10.00">PHAL_USB_init</text>
</a>
</g>
</g>
<!-- Node7&#45;&gt;Node8 -->
<g id="edge7_Node000007_Node000008" class="edge">
<title>Node7&#45;&gt;Node8</title>
<g id="a_edge7_Node000007_Node000008"><a xlink:title=" ">
<path fill="none" stroke="#63b8ff" d="M163,-64.62C142.72,-64.62 119.78,-64.62 100.48,-64.62"/>
<polygon fill="#63b8ff" stroke="#63b8ff" points="162.76,-68.13 172.76,-64.63 162.76,-61.13 162.76,-68.13"/>
</a>
</g>
</g>
<!-- Node10 -->
<g id="Node000010" class="node">
<title>Node10</title>
<g id="a_Node000010"><a xlink:href="usb_8c.html#af25d0362dcd989b4805bf062366f2142" target="_top" xlink:title="Consume one host&#45;to&#45;device packet.">
<polygon fill="white" stroke="#666666" points="428.25,-56.25 335,-56.25 335,-37 428.25,-37 428.25,-56.25"/>
<text text-anchor="middle" x="381.62" y="-42.75" font-family="Helvetica,sans-Serif" font-size="10.00">PHAL_USB_read</text>
</a>
</g>
</g>
<!-- Node9&#45;&gt;Node10 -->
<g id="edge9_Node000009_Node000010" class="edge">
<title>Node9&#45;&gt;Node10</title>
<g id="a_edge9_Node000009_Node000010"><a xlink:title=" ">
<path fill="none" stroke="#63b8ff" d="M481.85,-46.62C464.37,-46.62 445.26,-46.62 428.52,-46.62"/>
<polygon fill="#63b8ff" stroke="#63b8ff" points="481.84,-50.13 491.84,-46.63 481.84,-43.13 481.84,-50.13"/>
</a>
</g>
</g>
<!-- Node12 -->
<g id="Node000012" class="node">
<title>Node12</title>
<g id="a_Node000012"><a xlink:href="usb_8c.html#a47d401544e89e5c4e84a478fa6c581b5" target="_top" xlink:title="Queue one device&#45;to&#45;host packet.">
<polygon fill="white" stroke="#666666" points="429.38,-19.25 333.88,-19.25 333.88,0 429.38,0 429.38,-19.25"/>
<text text-anchor="middle" x="381.62" y="-5.75" font-family="Helvetica,sans-Serif" font-size="10.00">PHAL_USB_write</text>
</a>
</g>
</g>
<!-- Node11&#45;&gt;Node12 -->
<g id="edge11_Node000011_Node000012" class="edge">
<title>Node11&#45;&gt;Node12</title>
<g id="a_edge11_Node000011_Node000012"><a xlink:title=" ">
<path fill="none" stroke="#63b8ff" d="M480.77,-9.62C464,-9.62 445.81,-9.62 429.7,-9.62"/>
<polygon fill="#63b8ff" stroke="#63b8ff" points="480.6,-13.13 490.6,-9.63 480.6,-6.13 480.6,-13.13"/>
</a>
</g>
</g>
</g>
</svg>

<g id="navigator" transform="translate(0 0)" fill="#404254">
  <rect fill="#f2f5e9" fill-opacity="0.5" stroke="#606060" stroke-width=".5" x="0" y="0" width="60" height="60"/>
  <use id="zoomplus" xlink:href="#zoomPlus" x="17" y="9" onmousedown="handleZoom(evt,'in')"/>
  <use id="zoomminus" xlink:href="#zoomMin" x="42" y="9" onmousedown="handleZoom(evt,'out')"/>
  <use id="reset" xlink:href="#resetDef" x="30" y="36" onmousedown="handleReset()"/>
   <use id="arrowup" xlink:href="#arrowUp" x="0" y="0" onmousedown="handlePan(0,-1)"/>
  <use id="arrowright" xlink:href="#arrowRight" x="0" y="0" onmousedown="handlePan(1,0)"/>
  <use id="arrowdown" xlink:href="#arrowDown" x="0" y="0" onmousedown="handlePan(0,1)"/>
  <use id="arrowleft" xlink:href="#arrowLeft" x="0" y="0" onmousedown="handlePan(-1,0)"/>
</g>
<svg viewBox="0 0 15 15" width="100%" height="30px" preserveAspectRatio="xMaxYMin meet">
 <g id="arrow_out" transform="scale(0.3 0.3)">
  <a xlink:href="usb__priv_8c_ae50319496e974387c6b5a0668b825cb9_icgraph_org.svg" target="_base">
   <rect id="button" ry="5" rx="5" y="6" x="6" height="38" width="38"
        fill="#f2f5e9" fill-opacity="0.5" stroke="#606060" stroke-width="1.0"/>
   <path id="arrow"
     d="M 11.500037,31.436501 C 11.940474,20.09759 22.043105,11.32322 32.158766,21.979434 L 37.068811,17.246167 C 37.068811,17.246167 37.088388,32 37.088388,32 L 22.160133,31.978069 C 22.160133,31.978069 26.997745,27.140456 26.997745,27.140456 C 18.528582,18.264221 13.291696,25.230495 11.500037,31.436501 z"
     style="fill:#404040;"/>
  </a>
 </g>
</svg>

<style type='text/css'>
<![CDATA[
[data-mouse-over-selected='false'] { opacity: 0.7; }
[data-mouse-over-selected='true']  { opacity: 1.0; }
]]>
</style>
<script type="application/ecmascript"><![CDATA[
document.addEventListener('DOMContentLoaded', (event) => {
  highlightEdges();
  highlightAdjacentNodes();
});
]]></script>
</svg>
